<?xml version="1.0" standalone="no"?>
<!DOCTYPE svg PUBLIC "-//W3C//DTD SVG 1.1//EN" "http://www.w3.org/Graphics/SVG/1.1/DTD/svg11.dtd" >
<svg>
<metadata>
Created by FontForge 20090622 at Tue Mar 28 11:34:14 2017
 By deploy user
Copyright &#194;&#169; 2016 Dubai Executive Council. All rights reserved.
</metadata>
<defs>
<font id="Dubai-Light" horiz-adv-x="0" >
  <font-face 
    font-family="Dubai Light"
    font-weight="300"
    font-stretch="normal"
    units-per-em="1000"
    panose-1="2 11 3 3 3 4 3 3 2 4"
    ascent="800"
    descent="-200"
    x-height="430"
    cap-height="648"
    bbox="-636 -491 1317 1092"
    underline-thickness="50"
    underline-position="-50"
    unicode-range="U+000D-U+FEFF"
  />
<missing-glyph horiz-adv-x="540" 
d="M80 0v688h380v-688h-380zM156 72h227v544h-227v-544z" />
    <glyph glyph-name="fi" unicode="fi" horiz-adv-x="534" 
d="M131.5 623q17.5 34 50 51.5t76.5 17.5q45 0 87 -21l-21 -39q-34 16 -63 16q-48 0 -71.5 -28t-23.5 -77v-113h139l-6 -42h-133v-388h-52v388h-91v42h91v113q0 46 17.5 80zM455.5 614.5q11.5 -11.5 11.5 -27.5q0 -15 -11.5 -26.5t-27.5 -11.5q-15 0 -26.5 11.5t-11.5 26.5
q0 16 11.5 27.5t26.5 11.5q16 0 27.5 -11.5zM403 0v430l52 6v-436h-52z" />
    <glyph glyph-name="fl" unicode="fl" horiz-adv-x="534" 
d="M403 688l52 6v-694h-52v688zM131.5 622q17.5 34 50 52t76.5 18q24 0 45 -5.5t42 -15.5l-21 -39q-36 16 -63 16q-48 0 -71.5 -28t-23.5 -77v-113h124l-5 -42h-119v-388h-52v388h-91v42h91v111q0 47 17.5 81z" />
    <glyph glyph-name="uniFEFB" unicode="&#xfedf;&#xfe8e;" horiz-adv-x="449" arabic-form="isolated" 
d="M365.5 186q15.5 -38 15.5 -75q0 -41 -18.5 -65t-58.5 -35t-105 -11h-134l2 56q68 50 117.5 96.5t84.5 103.5q-41 47 -96 92.5t-147 113.5l15 47l6 3q87 -67 145.5 -117t98.5 -96q32 70 32 151q0 71 -29 206l41 25l7 -2q10 -47 19 -109t9 -101q0 -110 -50 -205
q30 -40 45.5 -78zM295 222q-36 -55 -80 -96.5t-92 -76.5h76q63 0 95.5 9t49.5 25q0 69 -49 139z" />
    <glyph glyph-name="uniFEFC" unicode="&#xfee0;&#xfe8e;" horiz-adv-x="513" arabic-form="final" 
d="M559 31q0 -13 -12.5 -22t-34.5 -9q-74 0 -115.5 33t-44.5 98q-102 -134 -305 -134l-20 41l4 6q81 1 147 22t113 62q-83 160 -270 332l17 49l7 3q60 -55 114.5 -120t96.5 -126.5t65 -107.5q19 22 31 44v463l44 11l6 -3l-1 -519q0 -39 12.5 -61.5t41 -33t77.5 -10.5
q27 0 27 -18z" />
    <glyph glyph-name="uniFEF7" unicode="&#xfedf;&#xfe84;" horiz-adv-x="478" arabic-form="isolated" 
d="M394.5 186q15.5 -38 15.5 -75q0 -41 -18.5 -65t-58.5 -35t-105 -11h-134l2 56q68 50 117.5 96.5t84.5 103.5q-41 47 -96 92.5t-147 113.5l15 47l6 3q87 -67 145.5 -117t98.5 -96q32 70 32 151q0 71 -29 206l41 25l7 -2q10 -47 19 -109t9 -101q0 -110 -50 -205
q30 -40 45.5 -78zM324 222q-36 -55 -80 -96.5t-92 -76.5h76q63 0 95.5 9t49.5 25q0 69 -49 139zM190 619q-80 -10 -189 -14l-4 39q37 0 57 1q-15 14 -22 31.5t-7 36.5q0 34 22 55t57 21q29 0 66 -14l-11 -38q-30 11 -51 11q-19 0 -31 -11.5t-12 -30.5q0 -17 11 -32.5
t30 -25.5q54 4 80 7z" />
    <glyph glyph-name="uniFEF8" unicode="&#xfee0;&#xfe84;" horiz-adv-x="560" arabic-form="final" 
d="M606 31q0 -13 -12.5 -22t-34.5 -9q-74 0 -115.5 33t-44.5 98q-102 -134 -305 -134l-20 41l4 6q81 1 147 22t113 62q-83 160 -270 332l17 49l7 3q60 -55 114.5 -120t96.5 -126.5t65 -107.5q19 22 31 44v463l44 11l6 -3l-1 -519q0 -39 12.5 -61.5t41 -33t77.5 -10.5
q27 0 27 -18zM208 619q-80 -10 -189 -14l-4 39q37 0 57 1q-15 14 -22 31.5t-7 36.5q0 34 22 55t57 21q29 0 66 -14l-11 -38q-30 11 -51 11q-19 0 -31 -11.5t-12 -30.5q0 -17 11 -32.5t30 -25.5q54 4 80 7z" />
    <glyph glyph-name="uniFEF9" unicode="&#xfedf;&#xfe88;" horiz-adv-x="449" arabic-form="isolated" 
d="M365.5 186q15.5 -38 15.5 -75q0 -41 -18.5 -65t-58.5 -35t-105 -11h-134l2 56q68 50 117.5 96.5t84.5 103.5q-41 47 -96 92.5t-147 113.5l15 47l6 3q87 -67 145.5 -117t98.5 -96q32 70 32 151q0 71 -29 206l41 25l7 -2q10 -47 19 -109t9 -101q0 -110 -50 -205
q30 -40 45.5 -78zM295 222q-36 -55 -80 -96.5t-92 -76.5h76q63 0 95.5 9t49.5 25q0 69 -49 139zM244 -237q-80 -10 -189 -14l-4 40q37 0 56 1q-14 14 -21 31.5t-7 36.5q0 34 22 55t57 21q29 0 66 -14l-11 -38q-30 11 -51 11q-19 0 -31 -12t-12 -31q0 -16 10.5 -31t29.5 -26
q56 4 81 7z" />
    <glyph glyph-name="uniFEFA" unicode="&#xfee0;&#xfe88;" horiz-adv-x="513" arabic-form="final" 
d="M559 31q0 -13 -12.5 -22t-34.5 -9q-74 0 -115.5 33t-44.5 98q-102 -134 -305 -134l-20 41l4 6q81 1 147 22t113 62q-83 160 -270 332l17 49l7 3q60 -55 114.5 -120t96.5 -126.5t65 -107.5q19 22 31 44v463l44 11l6 -3l-1 -519q0 -39 12.5 -61.5t41 -33t77.5 -10.5
q27 0 27 -18zM254 -237q-80 -10 -189 -14l-4 40q37 0 56 1q-14 14 -21 31.5t-7 36.5q0 34 22 55t57 21q29 0 66 -14l-11 -38q-30 11 -51 11q-19 0 -31 -12t-12 -31q0 -16 10.5 -31t29.5 -26q56 4 81 7z" />
    <glyph glyph-name="uniFEF5" unicode="&#xfedf;&#xfe82;" horiz-adv-x="479" arabic-form="isolated" 
d="M395.5 186q15.5 -38 15.5 -75q0 -41 -18.5 -65t-58.5 -35t-105 -11h-134l2 56q68 50 117.5 96.5t84.5 103.5q-41 47 -96 92.5t-147 113.5l15 47l6 3q87 -67 145.5 -117t98.5 -96q32 70 32 151q0 71 -29 206l41 25l7 -2q10 -47 19 -109t9 -101q0 -110 -50 -205
q30 -40 45.5 -78zM325 222q-36 -55 -80 -96.5t-92 -76.5h76q63 0 95.5 9t49.5 25q0 69 -49 139zM141 599.5q-14 3.5 -36 10.5q-12 5 -25 8.5t-27 3.5q-18 0 -36 -7t-40 -24l-20 32q27 21 48.5 30t43.5 9q17 0 31 -3.5t30 -9.5q19 -7 34 -10.5t35 -3.5q26 0 50 10l13 -34
q-33 -15 -65 -15q-22 0 -36 3.5z" />
    <glyph glyph-name="uniFEF6" unicode="&#xfee0;&#xfe82;" horiz-adv-x="561" arabic-form="final" 
d="M607 31q0 -13 -12.5 -22t-34.5 -9q-74 0 -115.5 33t-44.5 98q-102 -134 -305 -134l-20 41l4 6q81 1 147 22t113 62q-83 160 -270 332l17 49l7 3q60 -55 114.5 -120t96.5 -126.5t65 -107.5q19 22 31 44v463l44 11l6 -3l-1 -519q0 -39 12.5 -61.5t41 -33t77.5 -10.5
q27 0 27 -18zM159 599.5q-14 3.5 -36 10.5q-12 5 -25 8.5t-27 3.5q-18 0 -36 -7t-40 -24l-20 32q27 21 48.5 30t43.5 9q17 0 31 -3.5t30 -9.5q19 -7 34 -10.5t35 -3.5q26 0 50 10l13 -34q-33 -15 -65 -15q-22 0 -36 3.5z" />
    <glyph glyph-name="uni06440671" unicode="&#xfedf;&#xfb51;" horiz-adv-x="476" 
d="M393.5 186q15.5 -38 15.5 -75q0 -41 -18.5 -65t-58.5 -35t-105 -11h-134l2 56q68 50 117.5 96.5t84.5 103.5q-41 47 -96 92.5t-147 113.5l15 47l6 3q87 -67 145.5 -117t98.5 -96q32 70 32 151q0 71 -29 206l41 25l7 -2q10 -47 19 -109t9 -101q0 -110 -50 -205
q30 -40 45.5 -78zM323 222q-36 -55 -80 -96.5t-92 -76.5h76q63 0 95.5 9t49.5 25q0 69 -49 139zM197.5 687.5q13.5 -15.5 13.5 -34.5q0 -25 -18.5 -41t-63.5 -16q-34 0 -54.5 4.5t-36.5 12.5q-16 -16 -48 -16l8 28q11 0 16.5 2t11.5 7q4 5 9.5 21.5t8.5 24.5l28 5l2 -2
q-5 -14 -10.5 -27.5t-10.5 -22.5l23 -4q29 39 49 56.5t39 17.5q20 0 33.5 -15.5zM185 647q0 12 -7 19t-16 7q-10 0 -23 -11t-34 -35q7 -1 24 -1q16 0 32.5 1.5t20.5 3.5q3 9 3 16z" />
    <glyph glyph-name="uni06440671.fina" unicode="&#xfee0;&#xfb51;" horiz-adv-x="559" 
d="M605 31q0 -13 -12.5 -22t-34.5 -9q-74 0 -115.5 33t-44.5 98q-102 -134 -305 -134l-20 41l4 6q81 1 147 22t113 62q-83 160 -270 332l17 49l7 3q60 -55 114.5 -120t96.5 -126.5t65 -107.5q19 22 31 44v463l44 11l6 -3l-1 -519q0 -39 12.5 -61.5t41 -33t77.5 -10.5
q27 0 27 -18zM215.5 687.5q13.5 -15.5 13.5 -34.5q0 -25 -18.5 -41t-63.5 -16q-34 0 -54.5 4.5t-36.5 12.5q-16 -16 -48 -16l8 28q11 0 16.5 2t11.5 7q4 5 9.5 21.5t8.5 24.5l28 5l2 -2q-5 -14 -10.5 -27.5t-10.5 -22.5l23 -4q29 39 49 56.5t39 17.5q20 0 33.5 -15.5z
M203 647q0 12 -7 19t-16 7q-10 0 -23 -11t-34 -35q7 -1 24 -1q16 0 32.5 1.5t20.5 3.5q3 9 3 16z" />
    <glyph glyph-name="uniFDF2" unicode="&#x627;&#xfedf;&#xfee0;&#xfeea;" horiz-adv-x="1233" arabic-form="isolated" 
d="M637 903v-115h-39v115h39zM501 630q-16 22 -16 55q0 20 8 49l35 2q-6 -25 -6 -46q0 -22 8 -34t25 -12q21 0 32.5 19.5t12.5 69.5l34 2q-1 -18 -1 -45q0 -22 11 -32.5t28 -10.5q20 0 28.5 11.5t8.5 33.5q0 30 -13 62l35 9q15 -45 15 -71q0 -35 -18.5 -58.5t-53.5 -23.5
q-19 0 -35.5 8t-25.5 21q-10 -15 -26 -23t-34 -8q-36 0 -52 22zM933 673v-522q0 -59 -21.5 -92t-62.5 -46t-105 -13q-95 0 -131 57q-24 -31 -66 -44t-102 -13h-3q-66 0 -105 22.5t-52 72.5q-41 -10 -83 -10q-48 0 -84.5 12.5t-56 35t-19.5 51.5q0 39 30 76.5t83.5 69.5
t122.5 55v55l43 20l6 -3v-295q0 -45 13 -69t42 -34t81 -10h2v0q34 0 62.5 5.5t49.5 21.5q7 32 7 78v375l44 11l6 -3v-379q0 -41 13 -65t41 -34t75 -10h1v0q34 0 62.5 6t49.5 24q7 30 7 75v511l44 11zM278 142v10v180q-57 -17 -99.5 -41t-66 -50t-25.5 -49q6 -29 40 -43.5
t77 -14.5q36 0 74 8zM1114 -4l-6 3v666l45 11l5 -3l-1 -666z" />
    <glyph glyph-name="uniFE8E" unicode="&#x627;" horiz-adv-x="235" arabic-form="final" 
d="M117 35.5q-42 35.5 -42 105.5v524l44 11l6 -3l-1 -519q0 -39 12.5 -61.5t41 -33t77.5 -10.5q27 0 27 -18q0 -13 -12.5 -22t-34.5 -9q-76 0 -118 35.5z" />
    <glyph glyph-name="uniFE84" unicode="&#x623;" horiz-adv-x="235" arabic-form="final" 
d="M117 35.5q-42 35.5 -42 105.5v524l44 11l6 -3l-1 -519q0 -39 12.5 -61.5t41 -33t77.5 -10.5q27 0 27 -18q0 -13 -12.5 -22t-34.5 -9q-76 0 -118 35.5zM193 752q-80 -10 -189 -14l-4 39q37 0 57 1q-15 14 -22 31.5t-7 36.5q0 34 22 55t57 21q29 0 66 -14l-11 -38
q-30 11 -51 11q-19 0 -31 -11.5t-12 -30.5q0 -17 11 -32.5t30 -25.5q54 4 80 7z" />
    <glyph glyph-name="uniFE88" unicode="&#x625;" horiz-adv-x="235" arabic-form="final" 
d="M117 35.5q-42 35.5 -42 105.5v524l44 11l6 -3l-1 -519q0 -39 12.5 -61.5t41 -33t77.5 -10.5q27 0 27 -18q0 -13 -12.5 -22t-34.5 -9q-76 0 -118 35.5zM201 -237q-80 -10 -189 -14l-4 40q37 0 56 1q-14 14 -21 31.5t-7 36.5q0 34 22 55t57 21q29 0 66 -14l-11 -38
q-30 11 -51 11q-19 0 -31 -12t-12 -31q0 -16 10.5 -31t29.5 -26q56 4 81 7z" />
    <glyph glyph-name="uniFE82" unicode="&#x622;" horiz-adv-x="235" arabic-form="final" 
d="M117 35.5q-42 35.5 -42 105.5v524l44 11l6 -3l-1 -519q0 -39 12.5 -61.5t41 -33t77.5 -10.5q27 0 27 -18q0 -13 -12.5 -22t-34.5 -9q-76 0 -118 35.5zM143 732.5q-14 3.5 -36 10.5q-12 5 -25 8.5t-27 3.5q-18 0 -36 -7t-40 -24l-20 32q27 21 48.5 30t43.5 9q17 0 31 -3.5
t30 -9.5q19 -7 34 -10.5t35 -3.5q26 0 50 10l13 -34q-33 -15 -65 -15q-22 0 -36 3.5z" />
    <glyph glyph-name="uniFB51" unicode="&#x671;" horiz-adv-x="235" arabic-form="final" 
d="M117 35.5q-42 35.5 -42 105.5v524l44 11l6 -3l-1 -519q0 -39 12.5 -61.5t41 -33t77.5 -10.5q27 0 27 -18q0 -13 -12.5 -22t-34.5 -9q-76 0 -118 35.5zM201.5 820.5q13.5 -15.5 13.5 -34.5q0 -25 -18.5 -41t-63.5 -16q-34 0 -54.5 4.5t-36.5 12.5q-16 -16 -48 -16l8 28
q11 0 16.5 2t11.5 7q4 5 9.5 21.5t8.5 24.5l28 5l2 -2q-5 -14 -10.5 -27.5t-10.5 -22.5l23 -4q29 39 49 56.5t39 17.5q20 0 33.5 -15.5zM189 780q0 12 -7 19t-16 7q-10 0 -23 -11t-34 -35q7 -1 24 -1q16 0 32.5 1.5t20.5 3.5q3 9 3 16z" />
    <glyph glyph-name="uni066E.init" unicode="&#x66e;" horiz-adv-x="261" 
d="M20 49h7q42 0 72.5 7.5t46.5 21.5q9 27 9 55q0 68 -45 162l39 30h6q23 -50 34.5 -94t11.5 -74q0 -35 -10 -68.5t-27 -50.5q-38 -38 -157 -38h-7z" />
    <glyph glyph-name="uni066E.medi" unicode="&#x66e;" horiz-adv-x="315" 
d="M355 44.5q6 -4.5 6 -13.5q0 -13 -12.5 -22t-33.5 -9q-41 0 -80.5 13t-68.5 40q-23 -28 -56 -40.5t-83 -12.5h-27l20 49h20q33 0 55 7.5t38 22.5q10 16 25.5 61.5t31.5 109.5l48 12l8 -4q-15 -59 -27.5 -98t-26.5 -67q24 -20 60.5 -32t82.5 -12q14 0 20 -4.5z" />
    <glyph glyph-name="uni066E.fina" unicode="&#x66e;" horiz-adv-x="858" 
d="M898 44.5q6 -4.5 6 -13.5q0 -13 -12.5 -22t-33.5 -9q-42 0 -82.5 14t-68.5 42q-5 -6 -13 -10q-40 -25 -116.5 -40.5t-150.5 -15.5h-33q-122 0 -197.5 17.5t-113.5 59.5t-38 115q0 42 12 92l39 15l7 -4q-10 -47 -10 -87q0 -61 30.5 -95.5t98.5 -49t185 -14.5h34
q32 0 81.5 6t94.5 18t66 29q9 19 25.5 69t25.5 88l48 12l7 -4q-18 -67 -29.5 -104t-24.5 -60q24 -20 60.5 -32t82.5 -12q14 0 20 -4.5z" />
    <glyph glyph-name="uniFE90" unicode="&#x628;" horiz-adv-x="858" arabic-form="final" 
d="M898 44.5q6 -4.5 6 -13.5q0 -13 -12.5 -22t-33.5 -9q-42 0 -82.5 14t-68.5 42q-5 -6 -13 -10q-40 -25 -116.5 -40.5t-150.5 -15.5h-33q-122 0 -197.5 17.5t-113.5 59.5t-38 115q0 42 12 92l39 15l7 -4q-10 -47 -10 -87q0 -61 30.5 -95.5t98.5 -49t185 -14.5h34
q32 0 81.5 6t94.5 18t66 29q9 19 25.5 69t25.5 88l48 12l7 -4q-18 -67 -29.5 -104t-24.5 -60q24 -20 60.5 -32t82.5 -12q14 0 20 -4.5zM421 -198l-57 40l35 53l58 -38z" />
    <glyph glyph-name="uniFE92" unicode="&#x628;" horiz-adv-x="315" arabic-form="medial" 
d="M355 44.5q6 -4.5 6 -13.5q0 -13 -12.5 -22t-33.5 -9q-41 0 -80.5 13t-68.5 40q-23 -28 -56 -40.5t-83 -12.5h-27l20 49h20q33 0 55 7.5t38 22.5q10 16 25.5 61.5t31.5 109.5l48 12l8 -4q-15 -59 -27.5 -98t-26.5 -67q24 -20 60.5 -32t82.5 -12q14 0 20 -4.5zM188 -189
l-57 40l35 53l58 -38z" />
    <glyph glyph-name="uniFE91" unicode="&#x628;" horiz-adv-x="261" arabic-form="initial" 
d="M20 49h7q42 0 72.5 7.5t46.5 21.5q9 27 9 55q0 68 -45 162l39 30h6q23 -50 34.5 -94t11.5 -74q0 -35 -10 -68.5t-27 -50.5q-38 -38 -157 -38h-7zM136 -189l-57 40l35 53l58 -38z" />
    <glyph glyph-name="uniFB57" unicode="&#x67e;" horiz-adv-x="858" arabic-form="final" 
d="M898 44.5q6 -4.5 6 -13.5q0 -13 -12.5 -22t-33.5 -9q-42 0 -82.5 14t-68.5 42q-5 -6 -13 -10q-40 -25 -116.5 -40.5t-150.5 -15.5h-33q-122 0 -197.5 17.5t-113.5 59.5t-38 115q0 42 12 92l39 15l7 -4q-10 -47 -10 -87q0 -61 30.5 -95.5t98.5 -49t185 -14.5h34
q32 0 81.5 6t94.5 18t66 29q9 19 25.5 69t25.5 88l48 12l7 -4q-18 -67 -29.5 -104t-24.5 -60q24 -20 60.5 -32t82.5 -12q14 0 20 -4.5zM360 -197l-57 39l35 54l58 -39zM480 -197l-58 39l35 54l58 -39zM426 -276l-57 39l36 55l57 -41z" />
    <glyph glyph-name="uniFB59" unicode="&#x67e;" horiz-adv-x="336" arabic-form="medial" 
d="M376 44.5q6 -4.5 6 -13.5q0 -13 -12.5 -22t-33.5 -9q-115 0 -172 53q-23 -28 -55 -40.5t-81 -12.5h-28l20 49h18q29 0 53 7t38 23q10 16 25.5 61t32.5 110l48 12l8 -4q-17 -64 -28.5 -101t-25.5 -64q52 -44 167 -44q14 0 20 -4.5zM127 -188l-57 39l35 54l58 -39z
M247 -188l-58 39l35 54l58 -39zM193 -267l-57 39l36 55l57 -41z" />
    <glyph glyph-name="uniFB58" unicode="&#x67e;" horiz-adv-x="281" arabic-form="initial" 
d="M20 49h19q42 0 76 7.5t51 21.5q9 27 9 57q0 67 -43 160l37 30h6q22 -51 34 -94.5t12 -73.5q0 -35 -10 -68.5t-27 -50.5q-38 -38 -157 -38h-27zM102 -188l-57 39l35 54l58 -39zM222 -188l-58 39l35 54l58 -39zM168 -267l-57 39l36 55l57 -41z" />
    <glyph glyph-name="uniFE96" unicode="&#x62a;" horiz-adv-x="858" arabic-form="final" 
d="M898 44.5q6 -4.5 6 -13.5q0 -13 -12.5 -22t-33.5 -9q-42 0 -82.5 14t-68.5 42q-5 -6 -13 -10q-40 -25 -116.5 -40.5t-150.5 -15.5h-33q-122 0 -197.5 17.5t-113.5 59.5t-38 115q0 42 12 92l39 15l7 -4q-10 -47 -10 -87q0 -61 30.5 -95.5t98.5 -49t185 -14.5h34
q32 0 81.5 6t94.5 18t66 29q9 19 25.5 69t25.5 88l48 12l7 -4q-18 -67 -29.5 -104t-24.5 -60q24 -20 60.5 -32t82.5 -12q14 0 20 -4.5zM377 384l-57 40l35 53l57 -39zM495 384l-58 40l36 53l57 -39z" />
    <glyph glyph-name="uniFE98" unicode="&#x62a;" horiz-adv-x="336" arabic-form="medial" 
d="M376 44.5q6 -4.5 6 -13.5q0 -13 -12.5 -22t-33.5 -9q-115 0 -172 53q-23 -28 -55 -40.5t-81 -12.5h-28l20 49h18q29 0 53 7t38 23q10 16 25.5 61t32.5 110l48 12l8 -4q-17 -64 -28.5 -101t-25.5 -64q52 -44 167 -44q14 0 20 -4.5zM164 396l-57 40l35 53l57 -39zM282 396
l-58 40l36 53l57 -39z" />
    <glyph glyph-name="uniFE97" unicode="&#x62a;" horiz-adv-x="281" arabic-form="initial" 
d="M20 49h19q42 0 76 7.5t51 21.5q9 27 9 57q0 67 -43 160l37 30h6q22 -51 34 -94.5t12 -73.5q0 -35 -10 -68.5t-27 -50.5q-38 -38 -157 -38h-27zM105 458l-57 40l35 53l57 -39zM223 458l-58 40l36 53l57 -39z" />
    <glyph glyph-name="uniFE9A" unicode="&#x62b;" horiz-adv-x="858" arabic-form="final" 
d="M898 44.5q6 -4.5 6 -13.5q0 -13 -12.5 -22t-33.5 -9q-42 0 -82.5 14t-68.5 42q-5 -6 -13 -10q-40 -25 -116.5 -40.5t-150.5 -15.5h-33q-122 0 -197.5 17.5t-113.5 59.5t-38 115q0 42 12 92l39 15l7 -4q-10 -47 -10 -87q0 -61 30.5 -95.5t98.5 -49t185 -14.5h34
q32 0 81.5 6t94.5 18t66 29q9 19 25.5 69t25.5 88l48 12l7 -4q-18 -67 -29.5 -104t-24.5 -60q24 -20 60.5 -32t82.5 -12q14 0 20 -4.5zM427 467l-57 41l36 53l57 -39zM378 381l-58 40l35 54l58 -39zM494 381l-58 40l36 54l58 -39z" />
    <glyph glyph-name="uniFE9C" unicode="&#x62b;" horiz-adv-x="336" arabic-form="medial" 
d="M376 44.5q6 -4.5 6 -13.5q0 -13 -12.5 -22t-33.5 -9q-115 0 -172 53q-23 -28 -55 -40.5t-81 -12.5h-28l20 49h18q29 0 53 7t38 23q10 16 25.5 61t32.5 110l48 12l8 -4q-17 -64 -28.5 -101t-25.5 -64q52 -44 167 -44q14 0 20 -4.5zM214 479l-57 41l36 53l57 -39zM165 393
l-58 40l35 54l58 -39zM281 393l-58 40l36 54l58 -39z" />
    <glyph glyph-name="uniFE9B" unicode="&#x62b;" horiz-adv-x="281" arabic-form="initial" 
d="M20 49h19q42 0 76 7.5t51 21.5q9 27 9 57q0 67 -43 160l37 30h6q22 -51 34 -94.5t12 -73.5q0 -35 -10 -68.5t-27 -50.5q-38 -38 -157 -38h-27zM155 541l-57 41l36 53l57 -39zM106 455l-58 40l35 54l58 -39zM222 455l-58 40l36 54l58 -39z" />
    <glyph glyph-name="uniFB67" unicode="&#x679;" horiz-adv-x="858" arabic-form="final" 
d="M898 44.5q6 -4.5 6 -13.5q0 -13 -12.5 -22t-33.5 -9q-42 0 -82.5 14t-68.5 42q-5 -6 -13 -10q-40 -25 -116.5 -40.5t-150.5 -15.5h-33q-122 0 -197.5 17.5t-113.5 59.5t-38 115q0 42 12 92l39 15l7 -4q-10 -47 -10 -87q0 -61 30.5 -95.5t98.5 -49t185 -14.5h34
q32 0 81.5 6t94.5 18t66 29q9 19 25.5 69t25.5 88l48 12l7 -4q-18 -67 -29.5 -104t-24.5 -60q24 -20 60.5 -32t82.5 -12q14 0 20 -4.5zM510.5 530q16.5 -11 26.5 -30t10 -42q0 -41 -33 -64.5t-112 -23.5q-60 0 -104 2l-12 32l2 6h35l24 31v175h36v-132q26 28 48 42.5
t44 14.5q19 0 35.5 -11zM511 449q0 23 -12.5 37.5t-28.5 14.5q-19 0 -44.5 -23t-61.5 -69h42q72 0 102 16q3 12 3 24z" />
    <glyph glyph-name="uniFB69" unicode="&#x679;" horiz-adv-x="336" arabic-form="medial" 
d="M376 44.5q6 -4.5 6 -13.5q0 -13 -12.5 -22t-33.5 -9q-115 0 -172 53q-23 -28 -55 -40.5t-81 -12.5h-28l20 49h18q29 0 53 7t38 23q10 16 25.5 61t32.5 110l48 12l8 -4q-17 -64 -28.5 -101t-25.5 -64q52 -44 167 -44q14 0 20 -4.5zM297.5 542q16.5 -11 26.5 -30t10 -42
q0 -41 -33 -64.5t-112 -23.5q-60 0 -104 2l-12 32l2 6h35l24 31v175h36v-132q26 28 48 42.5t44 14.5q19 0 35.5 -11zM298 461q0 23 -12.5 37.5t-28.5 14.5q-19 0 -44.5 -23t-61.5 -69h42q72 0 102 16q3 12 3 24z" />
    <glyph glyph-name="uniFB68" unicode="&#x679;" horiz-adv-x="281" arabic-form="initial" 
d="M20 49h19q42 0 76 7.5t51 21.5q9 27 9 57q0 67 -43 160l37 30h6q22 -51 34 -94.5t12 -73.5q0 -35 -10 -68.5t-27 -50.5q-38 -38 -157 -38h-27zM238.5 604q16.5 -11 26.5 -30t10 -42q0 -41 -33 -64.5t-112 -23.5q-60 0 -104 2l-12 32l2 6h35l24 31v175h36v-132
q26 28 48 42.5t44 14.5q19 0 35.5 -11zM239 523q0 23 -12.5 37.5t-28.5 14.5q-19 0 -44.5 -23t-61.5 -69h42q72 0 102 16q3 12 3 24z" />
    <glyph glyph-name="uniFE9E" unicode="&#x62c;" horiz-adv-x="699" arabic-form="final" 
d="M746 31q0 -13 -12 -22t-35 -9q-65 0 -109 14.5t-77 56t-57 120.5q-109 -24 -191.5 -75t-127 -121.5t-44.5 -150.5q0 -66 35 -113.5t99.5 -72.5t149.5 -25q102 0 201 32l6 -8l-14 -38q-37 -16 -92.5 -25.5t-106.5 -9.5q-97 0 -171 30t-114.5 87t-40.5 136q0 84 43 160.5
t124 135.5t190 92q-33 7 -89 25q-57 18 -90.5 24.5t-64.5 6.5q-51 0 -107 -17l-4 4l23 47q35 15 89 15q37 0 69.5 -6.5t83.5 -23.5q71 -23 131.5 -33t133.5 -10l-14 -50q-42 -4 -62 -7q21 -62 47.5 -94.5t65.5 -44.5t105 -12q27 0 27 -18zM357 -162l-54 39l34 50l55 -36z
" />
    <glyph glyph-name="uniFEA0" unicode="&#x62c;" horiz-adv-x="616" arabic-form="medial" 
d="M656 44.5q6 -4.5 6 -13.5q0 -13 -12.5 -22t-33.5 -9q-64 0 -104 11.5t-64 34t-40 59.5q-76 -22 -144 -46q-95 -33 -153 -46t-111 -13l19 49q42 0 91.5 11.5t140.5 43.5q64 22 109.5 35t82.5 20q-41 15 -113 57q-65 37 -100.5 51t-65.5 14q-39 0 -85 -16l-4 4l18 44
q39 17 80 17q29 0 66.5 -15t104.5 -53q75 -43 122.5 -61.5t88.5 -20.5l-13 -48q-46 -6 -86 -16q12 -25 33 -39.5t56.5 -21t90.5 -6.5q14 0 20 -4.5zM270 -189l-57 40l35 53l58 -38z" />
    <glyph glyph-name="uniFE9F" unicode="&#x62c;" horiz-adv-x="590" arabic-form="initial" 
d="M466.5 200q48.5 -19 88.5 -21l-13 -48q-59 -8 -124.5 -24.5t-152.5 -46.5q-100 -35 -155.5 -47.5t-109.5 -12.5l19 49q42 0 91 12t141 43l114.5 36t77.5 19q-43 16 -113 57q-63 36 -99.5 50.5t-66.5 14.5q-39 0 -85 -16l-4 4l18 44q39 17 80 17q29 0 66.5 -15t104.5 -53
q74 -43 122.5 -62zM270 -189l-57 40l35 53l58 -38z" />
    <glyph glyph-name="uniFB7B" unicode="&#x686;" horiz-adv-x="699" arabic-form="final" 
d="M746 31q0 -13 -12 -22t-35 -9q-65 0 -109 14.5t-77 56t-57 120.5q-109 -24 -191.5 -75t-127 -121.5t-44.5 -150.5q0 -66 35 -113.5t99.5 -72.5t149.5 -25q102 0 201 32l6 -8l-14 -38q-37 -16 -92.5 -25.5t-106.5 -9.5q-97 0 -171 30t-114.5 87t-40.5 136q0 84 43 160.5
t124 135.5t190 92q-33 7 -89 25q-57 18 -90.5 24.5t-64.5 6.5q-51 0 -107 -17l-4 4l23 47q35 15 89 15q37 0 69.5 -6.5t83.5 -23.5q71 -23 131.5 -33t133.5 -10l-14 -50q-42 -4 -62 -7q21 -62 47.5 -94.5t65.5 -44.5t105 -12q27 0 27 -18zM308 -138l-58 40l36 53l57 -39z
M428 -138l-57 40l35 53l57 -39zM374 -221l-57 38l36 55l57 -40z" />
    <glyph glyph-name="uniFB7D" unicode="&#x686;" horiz-adv-x="616" arabic-form="medial" 
d="M656 44.5q6 -4.5 6 -13.5q0 -13 -12.5 -22t-33.5 -9q-64 0 -104 11.5t-64 34t-40 59.5q-76 -22 -144 -46q-95 -33 -153 -46t-111 -13l19 49q42 0 91.5 11.5t140.5 43.5q64 22 109.5 35t82.5 20q-41 15 -113 57q-65 37 -100.5 51t-65.5 14q-39 0 -85 -16l-4 4l18 44
q39 17 80 17q29 0 66.5 -15t104.5 -53q75 -43 122.5 -61.5t88.5 -20.5l-13 -48q-46 -6 -86 -16q12 -25 33 -39.5t56.5 -21t90.5 -6.5q14 0 20 -4.5zM209 -188l-57 39l35 54l58 -39zM329 -188l-58 39l35 54l58 -39zM275 -267l-57 39l36 55l57 -41z" />
    <glyph glyph-name="uniFB7C" unicode="&#x686;" horiz-adv-x="590" arabic-form="initial" 
d="M466.5 200q48.5 -19 88.5 -21l-13 -48q-59 -8 -124.5 -24.5t-152.5 -46.5q-100 -35 -155.5 -47.5t-109.5 -12.5l19 49q42 0 91 12t141 43l114.5 36t77.5 19q-43 16 -113 57q-63 36 -99.5 50.5t-66.5 14.5q-39 0 -85 -16l-4 4l18 44q39 17 80 17q29 0 66.5 -15t104.5 -53
q74 -43 122.5 -62zM209 -188l-57 39l35 54l58 -39zM329 -188l-58 39l35 54l58 -39zM275 -267l-57 39l36 55l57 -41z" />
    <glyph glyph-name="uniFEA2" unicode="&#x62d;" horiz-adv-x="699" arabic-form="final" 
d="M746 31q0 -13 -12 -22t-35 -9q-65 0 -109 14.5t-77 56t-57 120.5q-109 -24 -191.5 -75t-127 -121.5t-44.5 -150.5q0 -66 35 -113.5t99.5 -72.5t149.5 -25q102 0 201 32l6 -8l-14 -38q-37 -16 -92.5 -25.5t-106.5 -9.5q-97 0 -171 30t-114.5 87t-40.5 136q0 84 43 160.5
t124 135.5t190 92q-33 7 -89 25q-57 18 -90.5 24.5t-64.5 6.5q-51 0 -107 -17l-4 4l23 47q35 15 89 15q37 0 69.5 -6.5t83.5 -23.5q71 -23 131.5 -33t133.5 -10l-14 -50q-42 -4 -62 -7q21 -62 47.5 -94.5t65.5 -44.5t105 -12q27 0 27 -18z" />
    <glyph glyph-name="uniFEA4" unicode="&#x62d;" horiz-adv-x="616" arabic-form="medial" 
d="M656 44.5q6 -4.5 6 -13.5q0 -13 -12.5 -22t-33.5 -9q-64 0 -104 11.5t-64 34t-40 59.5q-76 -22 -144 -46q-95 -33 -153 -46t-111 -13l19 49q42 0 91.5 11.5t140.5 43.5q64 22 109.5 35t82.5 20q-41 15 -113 57q-65 37 -100.5 51t-65.5 14q-39 0 -85 -16l-4 4l18 44
q39 17 80 17q29 0 66.5 -15t104.5 -53q75 -43 122.5 -61.5t88.5 -20.5l-13 -48q-46 -6 -86 -16q12 -25 33 -39.5t56.5 -21t90.5 -6.5q14 0 20 -4.5z" />
    <glyph glyph-name="uniFEA3" unicode="&#x62d;" horiz-adv-x="590" arabic-form="initial" 
d="M466.5 200q48.5 -19 88.5 -21l-13 -48q-59 -8 -124.5 -24.5t-152.5 -46.5q-100 -35 -155.5 -47.5t-109.5 -12.5l19 49q42 0 91 12t141 43l114.5 36t77.5 19q-43 16 -113 57q-63 36 -99.5 50.5t-66.5 14.5q-39 0 -85 -16l-4 4l18 44q39 17 80 17q29 0 66.5 -15t104.5 -53
q74 -43 122.5 -62z" />
    <glyph glyph-name="uniFEA6" unicode="&#x62e;" horiz-adv-x="699" arabic-form="final" 
d="M746 31q0 -13 -12 -22t-35 -9q-65 0 -109 14.5t-77 56t-57 120.5q-109 -24 -191.5 -75t-127 -121.5t-44.5 -150.5q0 -66 35 -113.5t99.5 -72.5t149.5 -25q102 0 201 32l6 -8l-14 -38q-37 -16 -92.5 -25.5t-106.5 -9.5q-97 0 -171 30t-114.5 87t-40.5 136q0 84 43 160.5
t124 135.5t190 92q-33 7 -89 25q-57 18 -90.5 24.5t-64.5 6.5q-51 0 -107 -17l-4 4l23 47q35 15 89 15q37 0 69.5 -6.5t83.5 -23.5q71 -23 131.5 -33t133.5 -10l-14 -50q-42 -4 -62 -7q21 -62 47.5 -94.5t65.5 -44.5t105 -12q27 0 27 -18zM314 464l-57 40l35 53l58 -39z" />
    <glyph glyph-name="uniFEA8" unicode="&#x62e;" horiz-adv-x="616" arabic-form="medial" 
d="M656 44.5q6 -4.5 6 -13.5q0 -13 -12.5 -22t-33.5 -9q-64 0 -104 11.5t-64 34t-40 59.5q-76 -22 -144 -46q-95 -33 -153 -46t-111 -13l19 49q42 0 91.5 11.5t140.5 43.5q64 22 109.5 35t82.5 20q-41 15 -113 57q-65 37 -100.5 51t-65.5 14q-39 0 -85 -16l-4 4l18 44
q39 17 80 17q29 0 66.5 -15t104.5 -53q75 -43 122.5 -61.5t88.5 -20.5l-13 -48q-46 -6 -86 -16q12 -25 33 -39.5t56.5 -21t90.5 -6.5q14 0 20 -4.5zM179 464l-57 40l35 53l58 -39z" />
    <glyph glyph-name="uniFEA7" unicode="&#x62e;" horiz-adv-x="590" arabic-form="initial" 
d="M466.5 200q48.5 -19 88.5 -21l-13 -48q-59 -8 -124.5 -24.5t-152.5 -46.5q-100 -35 -155.5 -47.5t-109.5 -12.5l19 49q42 0 91 12t141 43l114.5 36t77.5 19q-43 16 -113 57q-63 36 -99.5 50.5t-66.5 14.5q-39 0 -85 -16l-4 4l18 44q39 17 80 17q29 0 66.5 -15t104.5 -53
q74 -43 122.5 -62zM179 464l-57 40l35 53l58 -39z" />
    <glyph glyph-name="uniFEAA" unicode="&#x62f;" horiz-adv-x="467" arabic-form="final" 
d="M513 31q0 -13 -12.5 -22t-34.5 -9q-36 0 -64.5 14t-50.5 52q-55 -69 -197 -69q-31 0 -69 4t-57 9l6 43l5 4q22 -4 57.5 -7t60.5 -3q61 0 106.5 17t66.5 41l-68 132l-72 132l37 39h7l20 -41q88 -184 122 -245q16 -30 31 -45.5t33 -21.5t46 -6q27 0 27 -18z" />
    <glyph glyph-name="uniFEAC" unicode="&#x630;" horiz-adv-x="467" arabic-form="final" 
d="M513 31q0 -13 -12.5 -22t-34.5 -9q-36 0 -64.5 14t-50.5 52q-55 -69 -197 -69q-31 0 -69 4t-57 9l6 43l5 4q22 -4 57.5 -7t60.5 -3q61 0 106.5 17t66.5 41l-68 132l-72 132l37 39h7l20 -41q88 -184 122 -245q16 -30 31 -45.5t33 -21.5t46 -6q27 0 27 -18zM223 542l-57 40
l35 53l58 -39z" />
    <glyph glyph-name="uniFB89" unicode="&#x688;" horiz-adv-x="467" arabic-form="final" 
d="M513 31q0 -13 -12.5 -22t-34.5 -9q-36 0 -64.5 14t-50.5 52q-55 -69 -197 -69q-31 0 -69 4t-57 9l6 43l5 4q22 -4 57.5 -7t60.5 -3q61 0 106.5 17t66.5 41l-68 132l-72 132l37 39h7l20 -41q88 -184 122 -245q16 -30 31 -45.5t33 -21.5t46 -6q27 0 27 -18zM301.5 688
q16.5 -11 26.5 -30t10 -42q0 -41 -33 -64.5t-112 -23.5q-60 0 -104 2l-12 32l2 6h35l24 31v175h36v-132q26 28 48 42.5t44 14.5q19 0 35.5 -11zM302 607q0 23 -12.5 37.5t-28.5 14.5q-19 0 -44.5 -23t-61.5 -69h42q72 0 102 16q3 12 3 24z" />
    <glyph glyph-name="uniFEAE" unicode="&#x631;" horiz-adv-x="356" arabic-form="final" 
d="M403 31q0 -13 -12.5 -22t-34.5 -9q-29 0 -50 11t-39 36q-14 -49 -57.5 -93.5t-107 -76.5t-133.5 -45l-27 37l3 7q85 15 149.5 50t100 79.5t39.5 88.5q-6 18 -20 47l-29 59l-31 62l35 37h8q22 -54 47 -107.5t42 -85.5q12 -23 22 -35t25.5 -17t42.5 -5t27 -18z" />
    <glyph glyph-name="uniFEB0" unicode="&#x632;" horiz-adv-x="356" arabic-form="final" 
d="M403 31q0 -13 -12.5 -22t-34.5 -9q-29 0 -50 11t-39 36q-14 -49 -57.5 -93.5t-107 -76.5t-133.5 -45l-27 37l3 7q85 15 149.5 50t100 79.5t39.5 88.5q-6 18 -20 47l-29 59l-31 62l35 37h8q22 -54 47 -107.5t42 -85.5q12 -23 22 -35t25.5 -17t42.5 -5t27 -18zM185 433
l-57 40l35 53l58 -39z" />
    <glyph glyph-name="uniFB8D" unicode="&#x691;" horiz-adv-x="356" arabic-form="final" 
d="M403 31q0 -13 -12.5 -22t-34.5 -9q-29 0 -50 11t-39 36q-14 -49 -57.5 -93.5t-107 -76.5t-133.5 -45l-27 37l3 7q85 15 149.5 50t100 79.5t39.5 88.5q-6 18 -20 47l-29 59l-31 62l35 37h8q22 -54 47 -107.5t42 -85.5q12 -23 22 -35t25.5 -17t42.5 -5t27 -18zM263.5 579
q16.5 -11 26.5 -30t10 -42q0 -41 -33 -64.5t-112 -23.5q-60 0 -104 2l-12 32l2 6h35l24 31v175h36v-132q26 28 48 42.5t44 14.5q19 0 35.5 -11zM264 498q0 23 -12.5 37.5t-28.5 14.5q-19 0 -44.5 -23t-61.5 -69h42q72 0 102 16q3 12 3 24z" />
    <glyph glyph-name="uniFB8B" unicode="&#x698;" horiz-adv-x="356" arabic-form="final" 
d="M403 31q0 -13 -12.5 -22t-34.5 -9q-29 0 -50 11t-39 36q-14 -49 -57.5 -93.5t-107 -76.5t-133.5 -45l-27 37l3 7q85 15 149.5 50t100 79.5t39.5 88.5q-6 18 -20 47l-29 59l-31 62l35 37h8q22 -54 47 -107.5t42 -85.5q12 -23 22 -35t25.5 -17t42.5 -5t27 -18zM180 516
l-57 41l36 53l57 -39zM131 430l-58 40l35 54l58 -39zM247 430l-58 40l36 54l58 -39z" />
    <glyph glyph-name="uniFEB2" unicode="&#x633;" horiz-adv-x="1097" arabic-form="final" 
d="M1137 44.5q6 -4.5 6 -13.5q0 -13 -12.5 -22t-33.5 -9q-39 0 -76 11.5t-64 34.5q-19 -24 -47.5 -35t-69.5 -11q-28 0 -58.5 9t-52.5 23q-16 -17 -37.5 -24.5t-54.5 -7.5q-24 0 -48 8.5t-43 25.5q-3 -69 -38 -118.5t-94 -75.5t-133 -26q-78 0 -131 26.5t-79 74.5t-26 112
q0 51 15 104l39 15l6 -4q-12 -54 -12 -97q0 -182 194 -182q45 0 84.5 11t68 30t43.5 42q18 37 18 82q0 36 -12 77.5t-41 120.5l40 29h6q23 -75 45 -132q14 -36 43 -55t63 -19q17 0 30 3t24 10q11 15 27 56.5t29 83.5l46 7l6 -4q-2 -4 -7 -20l-19.5 -52t-24.5 -60
q17 -10 42 -17t52 -7q50 0 80 28q8 22 12.5 53.5t4.5 65.5q0 14 -2 42l42 17l6 -2q2 -30 2 -43q0 -75 -16 -122q25 -18 59.5 -28.5t78.5 -10.5q14 0 20 -4.5z" />
    <glyph glyph-name="uniFEB4" unicode="&#x633;" horiz-adv-x="798" arabic-form="medial" 
d="M838 44.5q6 -4.5 6 -13.5q0 -13 -12.5 -22t-33.5 -9q-39 0 -76 11.5t-64 34.5q-19 -24 -47.5 -35t-69.5 -11q-28 0 -58.5 9t-52.5 23q-16 -17 -37.5 -24.5t-54.5 -7.5q-46 0 -88.5 12.5t-73.5 35.5q-27 -26 -68 -37t-108 -11l20 49q42 0 72.5 6.5t59.5 24.5q19 30 49 122
l47 7l6 -3q-13 -41 -25 -70.5t-25 -50.5q22 -17 61.5 -26t83.5 -10q29 0 51 13q11 16 28 58t28 82l47 7l5 -4l-28 -76t-24 -56q18 -10 43.5 -17t52.5 -7q49 0 79 28q8 23 12.5 53.5t4.5 64.5q0 15 -2 43l42 17l7 -2q1 -15 1 -43q0 -75 -16 -122q25 -18 59.5 -28.5
t78.5 -10.5q14 0 20 -4.5z" />
    <glyph glyph-name="uniFEB3" unicode="&#x633;" horiz-adv-x="769" arabic-form="initial" 
d="M694 218q15 -55 15 -84q0 -72 -42.5 -103t-123.5 -31q-28 0 -58.5 9t-52.5 23q-16 -17 -37.5 -24.5t-54.5 -7.5h-2q-46 0 -88.5 12.5t-73.5 35.5q-27 -26 -68 -37t-108 -11l20 49q43 0 75 6.5t57 24.5q19 30 49 122l47 7l6 -3q-26 -82 -49 -122q22 -16 62 -25t84 -10
q32 0 51 13q11 16 28 58t28 82l47 7l5 -4l-28 -76t-24 -56q18 -10 43.5 -17t52.5 -7q79 0 104 35q4 12 4 32q0 37 -15 86t-36 93l39 30l6 -1q23 -51 38 -106z" />
    <glyph glyph-name="uniFEB6" unicode="&#x634;" horiz-adv-x="1097" arabic-form="final" 
d="M1137 44.5q6 -4.5 6 -13.5q0 -13 -12.5 -22t-33.5 -9q-39 0 -76 11.5t-64 34.5q-19 -24 -47.5 -35t-69.5 -11q-28 0 -58.5 9t-52.5 23q-16 -17 -37.5 -24.5t-54.5 -7.5q-24 0 -48 8.5t-43 25.5q-3 -69 -38 -118.5t-94 -75.5t-133 -26q-78 0 -131 26.5t-79 74.5t-26 112
q0 51 15 104l39 15l6 -4q-12 -54 -12 -97q0 -182 194 -182q45 0 84.5 11t68 30t43.5 42q18 37 18 82q0 36 -12 77.5t-41 120.5l40 29h6q23 -75 45 -132q14 -36 43 -55t63 -19q17 0 30 3t24 10q11 15 27 56.5t29 83.5l46 7l6 -4q-2 -4 -7 -20l-19.5 -52t-24.5 -60
q17 -10 42 -17t52 -7q50 0 80 28q8 22 12.5 53.5t4.5 65.5q0 14 -2 42l42 17l6 -2q2 -30 2 -43q0 -75 -16 -122q25 -18 59.5 -28.5t78.5 -10.5q14 0 20 -4.5zM774 488l-57 41l36 53l57 -39zM725 402l-58 40l35 54l58 -39zM841 402l-58 40l36 54l58 -39z" />
    <glyph glyph-name="uniFEB8" unicode="&#x634;" horiz-adv-x="798" arabic-form="medial" 
d="M838 44.5q6 -4.5 6 -13.5q0 -13 -12.5 -22t-33.5 -9q-39 0 -76 11.5t-64 34.5q-19 -24 -47.5 -35t-69.5 -11q-28 0 -58.5 9t-52.5 23q-16 -17 -37.5 -24.5t-54.5 -7.5q-46 0 -88.5 12.5t-73.5 35.5q-27 -26 -68 -37t-108 -11l20 49q42 0 72.5 6.5t59.5 24.5q19 30 49 122
l47 7l6 -3q-13 -41 -25 -70.5t-25 -50.5q22 -17 61.5 -26t83.5 -10q29 0 51 13q11 16 28 58t28 82l47 7l5 -4l-28 -76t-24 -56q18 -10 43.5 -17t52.5 -7q49 0 79 28q8 23 12.5 53.5t4.5 64.5q0 15 -2 43l42 17l7 -2q1 -15 1 -43q0 -75 -16 -122q25 -18 59.5 -28.5
t78.5 -10.5q14 0 20 -4.5zM445 488l-57 41l36 53l57 -39zM396 402l-58 40l35 54l58 -39zM512 402l-58 40l36 54l58 -39z" />
    <glyph glyph-name="uniFEB7" unicode="&#x634;" horiz-adv-x="769" arabic-form="initial" 
d="M694 218q15 -55 15 -84q0 -72 -42.5 -103t-123.5 -31q-28 0 -58.5 9t-52.5 23q-16 -17 -37.5 -24.5t-54.5 -7.5h-2q-46 0 -88.5 12.5t-73.5 35.5q-27 -26 -68 -37t-108 -11l20 49q43 0 75 6.5t57 24.5q19 30 49 122l47 7l6 -3q-26 -82 -49 -122q22 -16 62 -25t84 -10
q32 0 51 13q11 16 28 58t28 82l47 7l5 -4l-28 -76t-24 -56q18 -10 43.5 -17t52.5 -7q79 0 104 35q4 12 4 32q0 37 -15 86t-36 93l39 30l6 -1q23 -51 38 -106zM448 488l-57 41l36 53l57 -39zM399 402l-58 40l35 54l58 -39zM515 402l-58 40l36 54l58 -39z" />
    <glyph glyph-name="uniFEBA" unicode="&#x635;" horiz-adv-x="1242" arabic-form="final" 
d="M1282 44.5q6 -4.5 6 -13.5q0 -13 -12.5 -22t-33.5 -9q-39 0 -76 11.5t-65 34.5q-36 -26 -95.5 -36t-160.5 -10h-105q-60 0 -92.5 2t-58 9t-44.5 23q-2 -68 -36 -118t-92 -76t-132 -26q-78 0 -132 26.5t-81 74.5t-27 112q0 49 15 104l39 15l6 -4q-12 -54 -12 -97
q0 -87 48.5 -134.5t150.5 -47.5q67 0 117.5 23.5t73.5 59.5q18 37 18 81q0 37 -12.5 80t-40.5 119l40 29h6q23 -75 45 -132q15 -37 41 -53t75 -20q122 137 211.5 209t147.5 72q41 0 74.5 -24t52.5 -62t19 -78q0 -48 -25 -86q24 -15 56 -23.5t71 -8.5q14 0 20 -4.5zM994.5 58
q61.5 9 94.5 32q10 11 17 31.5t7 41.5q0 27 -13 55t-36 46t-52 18q-47 0 -121.5 -62t-173.5 -171h106q110 0 171.5 9z" />
    <glyph glyph-name="uniFEBC" unicode="&#x635;" horiz-adv-x="839" arabic-form="medial" 
d="M879 44.5q6 -4.5 6 -13.5q0 -13 -12.5 -22t-33.5 -9q-39 0 -76 11.5t-65 34.5q-36 -26 -95.5 -36t-159.5 -10h-137q-69 0 -112 6t-82 22q-20 -15 -46.5 -21.5t-65.5 -6.5l20 49q22 0 43.5 3t32.5 10q11 15 27 56.5t29 83.5l46 7l6 -4q-16 -50 -29.5 -83t-27.5 -55
q22 -8 47 -12t58 -6q122 137 211 209.5t149 72.5q41 0 74 -24t52 -62t19 -78q0 -48 -25 -86q24 -15 56 -23.5t71 -8.5q14 0 20 -4.5zM591.5 58q61.5 9 95.5 32q9 11 16 32t7 41q0 27 -13 55t-36 46t-52 18q-47 0 -121.5 -62t-173.5 -171h106q110 0 171.5 9z" />
    <glyph glyph-name="uniFEBB" unicode="&#x635;" horiz-adv-x="812" arabic-form="initial" 
d="M686 307q33 -24 52 -62t19 -78q0 -35 -14 -65t-38 -50q-36 -30 -96.5 -41t-165.5 -11h-137q-69 0 -112 6t-82 22q-20 -15 -46.5 -21.5t-65.5 -6.5l20 49q22 0 43.5 3t32.5 10q11 15 27 56.5t29 83.5l46 7l6 -4q-16 -50 -29.5 -83t-27.5 -55q22 -8 47 -12t58 -6
q122 137 211 209.5t149 72.5q41 0 74 -24zM703 122q7 21 7 41q0 27 -13 55t-36 46t-52 18q-47 0 -121.5 -62t-173.5 -171h106q110 0 171.5 9t95.5 32q9 11 16 32z" />
    <glyph glyph-name="uniFEBE" unicode="&#x636;" horiz-adv-x="1242" arabic-form="final" 
d="M1282 44.5q6 -4.5 6 -13.5q0 -13 -12.5 -22t-33.5 -9q-39 0 -76 11.5t-65 34.5q-36 -26 -95.5 -36t-160.5 -10h-105q-60 0 -92.5 2t-58 9t-44.5 23q-2 -68 -36 -118t-92 -76t-132 -26q-78 0 -132 26.5t-81 74.5t-27 112q0 49 15 104l39 15l6 -4q-12 -54 -12 -97
q0 -87 48.5 -134.5t150.5 -47.5q67 0 117.5 23.5t73.5 59.5q18 37 18 81q0 37 -12.5 80t-40.5 119l40 29h6q23 -75 45 -132q15 -37 41 -53t75 -20q122 137 211.5 209t147.5 72q41 0 74.5 -24t52.5 -62t19 -78q0 -48 -25 -86q24 -15 56 -23.5t71 -8.5q14 0 20 -4.5zM994.5 58
q61.5 9 94.5 32q10 11 17 31.5t7 41.5q0 27 -13 55t-36 46t-52 18q-47 0 -121.5 -62t-173.5 -171h106q110 0 171.5 9zM1002 465l-57 40l35 53l58 -39z" />
    <glyph glyph-name="uniFEC0" unicode="&#x636;" horiz-adv-x="839" arabic-form="medial" 
d="M879 44.5q6 -4.5 6 -13.5q0 -13 -12.5 -22t-33.5 -9q-39 0 -76 11.5t-65 34.5q-36 -26 -95.5 -36t-159.5 -10h-137q-69 0 -112 6t-82 22q-20 -15 -46.5 -21.5t-65.5 -6.5l20 49q22 0 43.5 3t32.5 10q11 15 27 56.5t29 83.5l46 7l6 -4q-16 -50 -29.5 -83t-27.5 -55
q22 -8 47 -12t58 -6q122 137 211 209.5t149 72.5q41 0 74 -24t52 -62t19 -78q0 -48 -25 -86q24 -15 56 -23.5t71 -8.5q14 0 20 -4.5zM591.5 58q61.5 9 95.5 32q9 11 16 32t7 41q0 27 -13 55t-36 46t-52 18q-47 0 -121.5 -62t-173.5 -171h106q110 0 171.5 9zM594 465l-57 40
l35 53l58 -39z" />
    <glyph glyph-name="uniFEBF" unicode="&#x636;" horiz-adv-x="812" arabic-form="initial" 
d="M686 307q33 -24 52 -62t19 -78q0 -35 -14 -65t-38 -50q-36 -30 -96.5 -41t-165.5 -11h-137q-69 0 -112 6t-82 22q-20 -15 -46.5 -21.5t-65.5 -6.5l20 49q22 0 43.5 3t32.5 10q11 15 27 56.5t29 83.5l46 7l6 -4q-16 -50 -29.5 -83t-27.5 -55q22 -8 47 -12t58 -6
q122 137 211 209.5t149 72.5q41 0 74 -24zM703 122q7 21 7 41q0 27 -13 55t-36 46t-52 18q-47 0 -121.5 -62t-173.5 -171h106q110 0 171.5 9t95.5 32q9 11 16 32zM594 465l-57 40l35 53l58 -39z" />
    <glyph glyph-name="uniFEC2" unicode="&#x637;" horiz-adv-x="729" arabic-form="final" 
d="M769 44.5q6 -4.5 6 -13.5q0 -13 -12.5 -22t-33.5 -9q-37 0 -73.5 10.5t-63.5 32.5q-36 -24 -94.5 -33.5t-155.5 -9.5h-269l-23 41l2 8h98l66 71v545l45 11l5 -3v-501q80 78 140.5 118.5t104.5 40.5q41 0 74.5 -24t52.5 -62t19 -78q0 -50 -29 -90q49 -28 121 -28
q14 0 20 -4.5zM490.5 58q61.5 9 95.5 32q9 11 16 32t7 41q0 27 -13 55t-36 46t-52 18q-47 0 -121.5 -62t-173.5 -171h106q110 0 171.5 9z" />
    <glyph glyph-name="uniFEC4" unicode="&#x637;" horiz-adv-x="643" arabic-form="medial" 
d="M683 44.5q6 -4.5 6 -13.5q0 -13 -12.5 -22t-33.5 -9q-39 0 -75.5 11.5t-64.5 34.5q-36 -26 -95 -36t-159 -10h-249l19 49h38l67 73v543l44 11l5 -3v-501q80 78 140.5 118.5t104.5 40.5q41 0 74.5 -24t52.5 -62t19 -78q0 -49 -27 -87q23 -15 55 -23t71 -8q14 0 20 -4.5z
M398.5 58q61.5 9 94.5 32q10 11 17 31.5t7 41.5q0 27 -13 55t-36.5 46t-52.5 18q-47 0 -121 -62t-173 -171h106q110 0 171.5 9z" />
    <glyph glyph-name="uniFEC3" unicode="&#x637;" horiz-adv-x="619" arabic-form="initial" 
d="M492.5 307q33.5 -24 52.5 -62t19 -78q0 -35 -14 -65t-39 -50q-35 -30 -96 -41t-166 -11h-249l19 49h38l67 73v543l44 11l5 -3v-501q80 78 140.5 118.5t104.5 40.5q41 0 74.5 -24zM510 121.5q7 20.5 7 41.5q0 27 -13 55t-36.5 46t-52.5 18q-47 0 -121 -62t-173 -171h106
q110 0 171.5 9t94.5 32q10 11 17 31.5z" />
    <glyph glyph-name="uniFEC6" unicode="&#x638;" horiz-adv-x="729" arabic-form="final" 
d="M769 44.5q6 -4.5 6 -13.5q0 -13 -12.5 -22t-33.5 -9q-37 0 -73.5 10.5t-63.5 32.5q-36 -24 -94.5 -33.5t-155.5 -9.5h-269l-23 41l2 8h98l66 71v545l45 11l5 -3v-501q80 78 140.5 118.5t104.5 40.5q41 0 74.5 -24t52.5 -62t19 -78q0 -50 -29 -90q49 -28 121 -28
q14 0 20 -4.5zM490.5 58q61.5 9 95.5 32q9 11 16 32t7 41q0 27 -13 55t-36 46t-52 18q-47 0 -121.5 -62t-173.5 -171h106q110 0 171.5 9zM514 465l-57 40l35 53l58 -39z" />
    <glyph glyph-name="uniFEC8" unicode="&#x638;" horiz-adv-x="643" arabic-form="medial" 
d="M683 44.5q6 -4.5 6 -13.5q0 -13 -12.5 -22t-33.5 -9q-39 0 -75.5 11.5t-64.5 34.5q-36 -26 -95 -36t-159 -10h-249l19 49h38l67 73v543l44 11l5 -3v-501q80 78 140.5 118.5t104.5 40.5q41 0 74.5 -24t52.5 -62t19 -78q0 -49 -27 -87q23 -15 55 -23t71 -8q14 0 20 -4.5z
M398.5 58q61.5 9 94.5 32q10 11 17 31.5t7 41.5q0 27 -13 55t-36.5 46t-52.5 18q-47 0 -121 -62t-173 -171h106q110 0 171.5 9zM424 465l-57 40l35 53l58 -39z" />
    <glyph glyph-name="uniFEC7" unicode="&#x638;" horiz-adv-x="619" arabic-form="initial" 
d="M492.5 307q33.5 -24 52.5 -62t19 -78q0 -35 -14 -65t-39 -50q-35 -30 -96 -41t-166 -11h-249l19 49h38l67 73v543l44 11l5 -3v-501q80 78 140.5 118.5t104.5 40.5q41 0 74.5 -24zM510 121.5q7 20.5 7 41.5q0 27 -13 55t-36.5 46t-52.5 18q-47 0 -121 -62t-173 -171h106
q110 0 171.5 9t94.5 32q10 11 17 31.5zM424 465l-57 40l35 53l58 -39z" />
    <glyph glyph-name="uniFECA" unicode="&#x639;" horiz-adv-x="575" arabic-form="final" 
d="M615 44.5q6 -4.5 6 -14.5q0 -13 -12 -21.5t-34 -8.5q-82 0 -149 26.5t-123 80.5q-73 -57 -117.5 -98.5t-73 -90t-28.5 -103.5q0 -57 34 -98t96 -62.5t146 -21.5q46 0 97.5 8t99.5 22l7 -4l-16 -44q-50 -16 -96 -23.5t-99 -7.5q-95 0 -167 26.5t-111.5 77t-39.5 120.5
q0 67 32.5 124.5t82 104t122.5 101.5q-41 42 -75 72t-72 54l-2 7l27 58q37 16 81.5 24.5t90.5 8.5q51 0 97 -11t83 -32l3 -6l-13 -46q-33 -34 -70.5 -65.5l-83.5 -67.5q51 -44 113.5 -64.5t143.5 -20.5q14 0 20 -4.5zM308 165q50 37 84.5 65.5t58.5 56.5q-63 25 -134 25
q-75 0 -145 -26q56 -36 136 -121z" />
    <glyph glyph-name="uniFECC" unicode="&#x639;" horiz-adv-x="548" arabic-form="medial" 
d="M588 44.5q6 -4.5 6 -14.5q0 -13 -12.5 -21.5t-34.5 -8.5q-80 0 -142.5 22t-113.5 72q-130 -94 -291 -94l18 49q66 0 126 20t117 58q-44 50 -78.5 83t-73.5 54l-3 7l28 58q37 16 82 24.5t92 8.5q50 0 96.5 -11t82.5 -32l3 -7l-12 -45q-11 -9 -25.5 -23.5l-29.5 -30.5
l-44.5 -45t-49.5 -45q46 -40 102.5 -57t135.5 -17q15 0 21 -4.5zM215 240.5q31 -30.5 83 -86.5q66 53 136 133q-62 25 -133 25q-37 0 -74 -7t-70 -19q27 -15 58 -45.5z" />
    <glyph glyph-name="uniFECB" unicode="&#x639;" horiz-adv-x="514" arabic-form="initial" 
d="M464 71l-15 -43q-60 -15 -161.5 -21.5t-287.5 -6.5l18 49q106 0 151 1q-32 35 -48.5 75t-16.5 80q0 47 22.5 82.5t62.5 55t90 19.5q33 0 68.5 -8.5t65.5 -22.5l-7 -46l-4 -1q-29 13 -61.5 20.5t-60.5 7.5q-56 0 -89.5 -29t-33.5 -79q0 -39 20.5 -78t59.5 -74
q66 2 119.5 7.5t104.5 15.5z" />
    <glyph glyph-name="uniFECE" unicode="&#x63a;" horiz-adv-x="575" arabic-form="final" 
d="M615 44.5q6 -4.5 6 -14.5q0 -13 -12 -21.5t-34 -8.5q-82 0 -149 26.5t-123 80.5q-73 -57 -117.5 -98.5t-73 -90t-28.5 -103.5q0 -57 34 -98t96 -62.5t146 -21.5q46 0 97.5 8t99.5 22l7 -4l-16 -44q-50 -16 -96 -23.5t-99 -7.5q-95 0 -167 26.5t-111.5 77t-39.5 120.5
q0 67 32.5 124.5t82 104t122.5 101.5q-41 42 -75 72t-72 54l-2 7l27 58q37 16 81.5 24.5t90.5 8.5q51 0 97 -11t83 -32l3 -6l-13 -46q-33 -34 -70.5 -65.5l-83.5 -67.5q51 -44 113.5 -64.5t143.5 -20.5q14 0 20 -4.5zM308 165q50 37 84.5 65.5t58.5 56.5q-63 25 -134 25
q-75 0 -145 -26q56 -36 136 -121zM328 496l-57 40l35 53l58 -39z" />
    <glyph glyph-name="uniFED0" unicode="&#x63a;" horiz-adv-x="548" arabic-form="medial" 
d="M588 44.5q6 -4.5 6 -14.5q0 -13 -12.5 -21.5t-34.5 -8.5q-80 0 -142.5 22t-113.5 72q-130 -94 -291 -94l18 49q66 0 126 20t117 58q-44 50 -78.5 83t-73.5 54l-3 7l28 58q37 16 82 24.5t92 8.5q50 0 96.5 -11t82.5 -32l3 -7l-12 -45q-11 -9 -25.5 -23.5l-29.5 -30.5
l-44.5 -45t-49.5 -45q46 -40 102.5 -57t135.5 -17q15 0 21 -4.5zM215 240.5q31 -30.5 83 -86.5q66 53 136 133q-62 25 -133 25q-37 0 -74 -7t-70 -19q27 -15 58 -45.5zM314 496l-57 40l35 53l58 -39z" />
    <glyph glyph-name="uniFECF" unicode="&#x63a;" horiz-adv-x="514" arabic-form="initial" 
d="M464 71l-15 -43q-60 -15 -161.5 -21.5t-287.5 -6.5l18 49q106 0 151 1q-32 35 -48.5 75t-16.5 80q0 47 22.5 82.5t62.5 55t90 19.5q33 0 68.5 -8.5t65.5 -22.5l-7 -46l-4 -1q-29 13 -61.5 20.5t-60.5 7.5q-56 0 -89.5 -29t-33.5 -79q0 -39 20.5 -78t59.5 -74
q66 2 119.5 7.5t104.5 15.5zM285 496l-57 40l35 53l58 -39z" />
    <glyph glyph-name="uniFED2" unicode="&#x641;" horiz-adv-x="946" arabic-form="final" 
d="M986 44.5q6 -4.5 6 -13.5q0 -13 -12.5 -22t-33.5 -9h-35q-50 0 -96 8t-85 22q-106 -40 -303 -40h-33q-122 0 -197.5 17.5t-113.5 59.5t-38 115q0 42 12 92l39 15l7 -4q-10 -47 -10 -87q0 -61 30.5 -95.5t98.5 -49t185 -14.5h34q67 0 126 5.5t103 15.5q-39 25 -60.5 59
t-21.5 73q0 42 22 82t56.5 64.5t69.5 24.5q32 0 61.5 -21.5t48 -56t18.5 -69.5q0 -45 -19.5 -84.5t-55.5 -67.5q58 -15 134 -15h43q14 0 20 -4.5zM658.5 133.5q25.5 -30.5 73.5 -50.5q41 22 63.5 56.5t22.5 67.5q0 25 -13 49.5t-34 40t-42 15.5q-22 0 -44.5 -17t-37 -43.5
t-14.5 -52.5q0 -35 25.5 -65.5zM742 496l-57 40l35 53l58 -39z" />
    <glyph glyph-name="uniFED4" unicode="&#x641;" horiz-adv-x="484" arabic-form="medial" 
d="M525 44.5q6 -4.5 6 -13.5q0 -13 -12.5 -22t-34.5 -9h-32q-52 0 -101 9t-90 26q-89 -35 -211 -35h-50l20 49h58q63 0 127 16q-36 26 -56 58t-20 69q0 42 22 82t56.5 64.5t69.5 24.5q32 0 61.5 -21.5t47.5 -56t18 -69.5q0 -93 -83 -150q62 -17 143 -17h40q15 0 21 -4.5z
M196.5 136q23.5 -29 66.5 -49q45 20 70.5 51t25.5 69q0 25 -13.5 49.5t-34 40t-41.5 15.5q-22 0 -44.5 -17t-37.5 -43.5t-15 -52.5q0 -34 23.5 -63zM283 497l-57 40l35 53l58 -39z" />
    <glyph glyph-name="uniFED3" unicode="&#x641;" horiz-adv-x="429" arabic-form="initial" 
d="M299.5 412.5q32.5 -32.5 51 -87t18.5 -116.5q0 -61 -14.5 -107t-45.5 -66q-32 -20 -102.5 -28t-206.5 -8l20 49q128 0 192 8.5t90 24.5q7 14 13 39.5t8 52.5q-54 -14 -113 -14q-64 0 -95 27.5t-31 79.5q0 44 19.5 85.5t52.5 67t70 25.5q41 0 73.5 -32.5zM149.5 223.5
q20.5 -14.5 66.5 -14.5q54 0 108 13q-3 45 -18 85.5t-37.5 64.5t-46.5 24t-45.5 -18t-34.5 -47t-13 -61t20.5 -46.5zM224 574l-57 40l35 53l58 -39z" />
    <glyph glyph-name="uniFB6B" unicode="&#x6a4;" horiz-adv-x="946" arabic-form="final" 
d="M986 44.5q6 -4.5 6 -13.5q0 -13 -12.5 -22t-33.5 -9h-35q-50 0 -96 8t-85 22q-106 -40 -303 -40h-33q-122 0 -197.5 17.5t-113.5 59.5t-38 115q0 42 12 92l39 15l7 -4q-10 -47 -10 -87q0 -61 30.5 -95.5t98.5 -49t185 -14.5h34q67 0 126 5.5t103 15.5q-39 25 -60.5 59
t-21.5 73q0 42 22 82t56.5 64.5t69.5 24.5q32 0 61.5 -21.5t48 -56t18.5 -69.5q0 -45 -19.5 -84.5t-55.5 -67.5q58 -15 134 -15h43q14 0 20 -4.5zM658.5 133.5q25.5 -30.5 73.5 -50.5q41 22 63.5 56.5t22.5 67.5q0 25 -13 49.5t-34 40t-42 15.5q-22 0 -44.5 -17t-37 -43.5
t-14.5 -52.5q0 -35 25.5 -65.5zM737 579l-57 41l36 53l57 -39zM688 493l-58 40l35 54l58 -39zM804 493l-58 40l36 54l58 -39z" />
    <glyph glyph-name="uniFB6D" unicode="&#x6a4;" horiz-adv-x="484" arabic-form="medial" 
d="M525 44.5q6 -4.5 6 -13.5q0 -13 -12.5 -22t-34.5 -9h-32q-52 0 -101 9t-90 26q-89 -35 -211 -35h-50l20 49h58q63 0 127 16q-36 26 -56 58t-20 69q0 42 22 82t56.5 64.5t69.5 24.5q32 0 61.5 -21.5t47.5 -56t18 -69.5q0 -93 -83 -150q62 -17 143 -17h40q15 0 21 -4.5z
M196.5 136q23.5 -29 66.5 -49q45 20 70.5 51t25.5 69q0 25 -13.5 49.5t-34 40t-41.5 15.5q-22 0 -44.5 -17t-37.5 -43.5t-15 -52.5q0 -34 23.5 -63zM278 580l-57 41l36 53l57 -39zM229 494l-58 40l35 54l58 -39zM345 494l-58 40l36 54l58 -39z" />
    <glyph glyph-name="uniFB6C" unicode="&#x6a4;" horiz-adv-x="429" arabic-form="initial" 
d="M299.5 412.5q32.5 -32.5 51 -87t18.5 -116.5q0 -61 -14.5 -107t-45.5 -66q-32 -20 -102.5 -28t-206.5 -8l20 49q128 0 192 8.5t90 24.5q7 14 13 39.5t8 52.5q-54 -14 -113 -14q-64 0 -95 27.5t-31 79.5q0 44 19.5 85.5t52.5 67t70 25.5q41 0 73.5 -32.5zM149.5 223.5
q20.5 -14.5 66.5 -14.5q54 0 108 13q-3 45 -18 85.5t-37.5 64.5t-46.5 24t-45.5 -18t-34.5 -47t-13 -61t20.5 -46.5zM219 657l-57 41l36 53l57 -39zM170 571l-58 40l35 54l58 -39zM286 571l-58 40l36 54l58 -39z" />
    <glyph glyph-name="uni06A1.init" unicode="&#x6a1;" horiz-adv-x="429" 
d="M299.5 412.5q32.5 -32.5 51 -87t18.5 -116.5q0 -61 -14.5 -107t-45.5 -66q-32 -20 -102.5 -28t-206.5 -8l20 49q128 0 192 8.5t90 24.5q7 14 13 39.5t8 52.5q-54 -14 -113 -14q-64 0 -95 27.5t-31 79.5q0 44 19.5 85.5t52.5 67t70 25.5q41 0 73.5 -32.5zM149.5 223.5
q20.5 -14.5 66.5 -14.5q54 0 108 13q-3 45 -18 85.5t-37.5 64.5t-46.5 24t-45.5 -18t-34.5 -47t-13 -61t20.5 -46.5z" />
    <glyph glyph-name="uni06A1.medi" unicode="&#x6a1;" horiz-adv-x="484" 
d="M525 44.5q6 -4.5 6 -13.5q0 -13 -12.5 -22t-34.5 -9h-32q-52 0 -101 9t-90 26q-89 -35 -211 -35h-50l20 49h58q63 0 127 16q-36 26 -56 58t-20 69q0 42 22 82t56.5 64.5t69.5 24.5q32 0 61.5 -21.5t47.5 -56t18 -69.5q0 -93 -83 -150q62 -17 143 -17h40q15 0 21 -4.5z
M196.5 136q23.5 -29 66.5 -49q45 20 70.5 51t25.5 69q0 25 -13.5 49.5t-34 40t-41.5 15.5q-22 0 -44.5 -17t-37.5 -43.5t-15 -52.5q0 -34 23.5 -63z" />
    <glyph glyph-name="uni06A1.fina" unicode="&#x6a1;" horiz-adv-x="946" 
d="M986 44.5q6 -4.5 6 -13.5q0 -13 -12.5 -22t-33.5 -9h-35q-50 0 -96 8t-85 22q-106 -40 -303 -40h-33q-122 0 -197.5 17.5t-113.5 59.5t-38 115q0 42 12 92l39 15l7 -4q-10 -47 -10 -87q0 -61 30.5 -95.5t98.5 -49t185 -14.5h34q67 0 126 5.5t103 15.5q-39 25 -60.5 59
t-21.5 73q0 42 22 82t56.5 64.5t69.5 24.5q32 0 61.5 -21.5t48 -56t18.5 -69.5q0 -45 -19.5 -84.5t-55.5 -67.5q58 -15 134 -15h43q14 0 20 -4.5zM658.5 133.5q25.5 -30.5 73.5 -50.5q41 22 63.5 56.5t22.5 67.5q0 25 -13 49.5t-34 40t-42 15.5q-22 0 -44.5 -17t-37 -43.5
t-14.5 -52.5q0 -35 25.5 -65.5z" />
    <glyph glyph-name="uni066F.fina" unicode="&#x66f;" horiz-adv-x="705" 
d="M752 31q0 -13 -12.5 -22t-34.5 -9h-74q-22 -93 -100.5 -139.5t-212.5 -46.5q-91 0 -152 26t-91 73.5t-30 113.5q0 40 13 92l40 14l8 -3q-11 -45 -11 -88q0 -88 55.5 -133.5t174.5 -45.5q86 0 146 22t91 57q13 20 23 58h-46q-97 0 -140.5 30t-43.5 95q0 44 19.5 87.5
t52 71.5t70.5 28q41 0 73.5 -32.5t50.5 -86.5t18 -117q0 -18 -1 -27h87q27 0 27 -18zM593 49q1 8 1 23q0 49 -14 93t-37.5 71t-49.5 27q-25 0 -46.5 -20.5t-34 -51.5t-12.5 -62t13.5 -48t45 -24.5t87.5 -7.5h47z" />
    <glyph glyph-name="uniFED6" unicode="&#x642;" horiz-adv-x="705" arabic-form="final" 
d="M752 31q0 -13 -12.5 -22t-34.5 -9h-74q-22 -93 -100.5 -139.5t-212.5 -46.5q-91 0 -152 26t-91 73.5t-30 113.5q0 40 13 92l40 14l8 -3q-11 -45 -11 -88q0 -88 55.5 -133.5t174.5 -45.5q86 0 146 22t91 57q13 20 23 58h-46q-97 0 -140.5 30t-43.5 95q0 44 19.5 87.5
t52 71.5t70.5 28q41 0 73.5 -32.5t50.5 -86.5t18 -117q0 -18 -1 -27h87q27 0 27 -18zM593 49q1 8 1 23q0 49 -14 93t-37.5 71t-49.5 27q-25 0 -46.5 -20.5t-34 -51.5t-12.5 -62t13.5 -48t45 -24.5t87.5 -7.5h47zM446 446l-57 40l35 53l57 -39zM564 446l-58 40l36 53l57 -39z
" />
    <glyph glyph-name="uniFED8" unicode="&#x642;" horiz-adv-x="484" arabic-form="medial" 
d="M525 44.5q6 -4.5 6 -13.5q0 -13 -12.5 -22t-34.5 -9h-32q-52 0 -101 9t-90 26q-89 -35 -211 -35h-50l20 49h58q63 0 127 16q-36 26 -56 58t-20 69q0 42 22 82t56.5 64.5t69.5 24.5q32 0 61.5 -21.5t47.5 -56t18 -69.5q0 -93 -83 -150q62 -17 143 -17h40q15 0 21 -4.5z
M196.5 136q23.5 -29 66.5 -49q45 20 70.5 51t25.5 69q0 25 -13.5 49.5t-34 40t-41.5 15.5q-22 0 -44.5 -17t-37.5 -43.5t-15 -52.5q0 -34 23.5 -63zM228 497l-57 40l35 53l57 -39zM346 497l-58 40l36 53l57 -39z" />
    <glyph glyph-name="uniFED7" unicode="&#x642;" horiz-adv-x="429" arabic-form="initial" 
d="M299.5 412.5q32.5 -32.5 51 -87t18.5 -116.5q0 -61 -14.5 -107t-45.5 -66q-32 -20 -102.5 -28t-206.5 -8l20 49q128 0 192 8.5t90 24.5q7 14 13 39.5t8 52.5q-54 -14 -113 -14q-64 0 -95 27.5t-31 79.5q0 44 19.5 85.5t52.5 67t70 25.5q41 0 73.5 -32.5zM149.5 223.5
q20.5 -14.5 66.5 -14.5q54 0 108 13q-3 45 -18 85.5t-37.5 64.5t-46.5 24t-45.5 -18t-34.5 -47t-13 -61t20.5 -46.5zM169 574l-57 40l35 53l57 -39zM287 574l-58 40l36 53l57 -39z" />
    <glyph glyph-name="uniFEDA" unicode="&#x643;" horiz-adv-x="832" arabic-form="final" 
d="M879 31q0 -13 -12.5 -22t-34.5 -9q-47 0 -80 14.5t-50 42.5q-29 -35 -92.5 -51t-182.5 -16h-33q-122 0 -197.5 17.5t-113.5 59.5t-38 115q0 42 12 92l39 15l7 -4q-10 -47 -10 -87q0 -61 30.5 -95.5t98.5 -49t185 -14.5h34q93 0 147 9.5t78 28.5q7 32 7 77v511l44 11l6 -3
v-515q0 -39 12 -62.5t40 -35t77 -11.5q27 0 27 -18zM305 299q37 0 57 1q-15 14 -22 31.5t-7 36.5q0 34 22 55t57 21q28 0 67 -14l-12 -36q-30 11 -52 11q-19 0 -31.5 -11.5t-12.5 -31.5q0 -18 11 -33.5t31 -25.5q56 4 81 7l4 -35q-80 -10 -189 -14z" />
    <glyph glyph-name="uniFEDC" unicode="&#x643;" horiz-adv-x="511" arabic-form="medial" 
d="M551 44.5q6 -4.5 6 -13.5q0 -13 -11.5 -22t-34.5 -9q-27 0 -48 6.5t-45 24.5t-58 54q-28 -47 -93 -66t-181 -19h-86l20 49h82q69 0 112.5 6t71 20t45.5 41q-28 40 -111 123.5l-156 150.5l-4 5l13 56l340 191l5 -3l-16 -59l-292 -164q136 -131 233 -236q56 -60 82.5 -85
t49.5 -35.5t56 -10.5q14 0 20 -4.5z" />
    <glyph glyph-name="uniFEDB" unicode="&#x643;" horiz-adv-x="413" arabic-form="initial" 
d="M402 580l-292 -164q100 -65 156 -115.5t76.5 -88t20.5 -70.5q0 -65 -63.5 -103.5t-204.5 -38.5h-95l20 49h73q98 0 153 19.5t73 44.5q3 40 -21 79t-79 85.5t-155 112.5l-4 5l13 56l340 191l5 -3z" />
    <glyph glyph-name="uniFB8F" unicode="&#x6a9;" horiz-adv-x="955" arabic-form="final" 
d="M995 44.5q6 -4.5 6 -13.5q0 -13 -11.5 -22t-34.5 -9q-28 0 -49 6.5t-44.5 24.5t-57.5 54q-22 -38 -66 -58.5t-117.5 -28.5t-193.5 -8h-33q-122 0 -197.5 17.5t-113.5 59.5t-38 115q0 42 12 92l39 15l7 -4q-10 -47 -10 -87q0 -61 30.5 -95.5t98.5 -49t185 -14.5h34
q109 0 173 6t102.5 22.5t58.5 47.5q-28 40 -112 125t-156 150l-3 5l13 56l340 191l5 -3l-15 -59l-293 -164q127 -121 233 -236q57 -61 83 -85.5t49 -35t56 -10.5q14 0 20 -4.5z" />
    <glyph glyph-name="uniFB91" unicode="&#x6a9;" horiz-adv-x="511" arabic-form="medial" 
d="M551 44.5q6 -4.5 6 -13.5q0 -13 -11.5 -22t-34.5 -9q-27 0 -48 6.5t-45 24.5t-58 54q-28 -47 -93 -66t-181 -19h-86l20 49h82q69 0 112.5 6t71 20t45.5 41q-28 40 -111 123.5l-156 150.5l-4 5l13 56l340 191l5 -3l-16 -59l-292 -164q136 -131 233 -236q56 -60 82.5 -85
t49.5 -35.5t56 -10.5q14 0 20 -4.5z" />
    <glyph glyph-name="uniFB90" unicode="&#x6a9;" horiz-adv-x="413" arabic-form="initial" 
d="M402 580l-292 -164q100 -65 156 -115.5t76.5 -88t20.5 -70.5q0 -65 -63.5 -103.5t-204.5 -38.5h-95l20 49h73q98 0 153 19.5t73 44.5q3 40 -21 79t-79 85.5t-155 112.5l-4 5l13 56l340 191l5 -3z" />
    <glyph glyph-name="uniFB93" unicode="&#x6af;" horiz-adv-x="928" arabic-form="final" 
d="M841 710l-315 -181l-6 4l10 51l321 182l5 -4zM995 44.5q6 -4.5 6 -13.5q0 -13 -11.5 -22t-34.5 -9q-28 0 -49 6.5t-44.5 24.5t-57.5 54q-22 -38 -66 -58.5t-117.5 -28.5t-193.5 -8h-33q-122 0 -197.5 17.5t-113.5 59.5t-38 115q0 42 12 92l39 15l7 -4q-10 -47 -10 -87
q0 -61 30.5 -95.5t98.5 -49t185 -14.5h34q109 0 173 6t102.5 22.5t58.5 47.5q-28 40 -112 125t-156 150l-3 5l13 56l340 191l5 -3l-15 -59l-293 -164q127 -121 233 -236q57 -61 83 -85.5t49 -35t56 -10.5q14 0 20 -4.5z" />
    <glyph glyph-name="uniFB95" unicode="&#x6af;" horiz-adv-x="497" arabic-form="medial" 
d="M412 710l-315 -181l-6 4l10 51l321 182l5 -4zM551 44.5q6 -4.5 6 -13.5q0 -13 -11.5 -22t-34.5 -9q-27 0 -48 6.5t-45 24.5t-58 54q-28 -47 -93 -66t-181 -19h-86l20 49h82q69 0 112.5 6t71 20t45.5 41q-28 40 -111 123.5l-156 150.5l-4 5l13 56l340 191l5 -3l-16 -59
l-292 -164q136 -131 233 -236q56 -60 82.5 -85t49.5 -35.5t56 -10.5q14 0 20 -4.5z" />
    <glyph glyph-name="uniFB94" unicode="&#x6af;" horiz-adv-x="415" arabic-form="initial" 
d="M411 710l-315 -181l-6 4l10 51l321 182l5 -4zM413 642l5 -3l-16 -59l-292 -164q100 -65 156 -115.5t76.5 -88t20.5 -70.5q0 -65 -63.5 -103.5t-204.5 -38.5h-95l20 49h73q98 0 153 19.5t73 44.5q3 40 -21 79t-79 85.5t-155 112.5l-4 5l13 56z" />
    <glyph glyph-name="uniFEDE" unicode="&#x644;" horiz-adv-x="664" arabic-form="final" 
d="M705 44.5q6 -4.5 6 -13.5q0 -13 -12.5 -22t-34.5 -9q-81 0 -115 50q-15 -121 -82 -178.5t-182 -57.5q-78 0 -132 26.5t-81 74.5t-27 112q0 51 15 104l39 15l6 -4q-12 -54 -12 -97q0 -87 48.5 -134.5t150.5 -47.5q123 0 176 76q19 30 28.5 81.5t9.5 116.5v528l44 11l5 -3
l-1 -515q0 -41 13 -65t41.5 -34t75.5 -10q15 0 21 -4.5z" />
    <glyph glyph-name="uniFEE0" unicode="&#x644;" horiz-adv-x="299" arabic-form="medial" 
d="M339 44.5q6 -4.5 6 -13.5q0 -13 -12.5 -22t-33.5 -9q-95 0 -131 57q-24 -31 -66 -44t-102 -13l20 49q34 0 62.5 5.5t49.5 21.5q7 32 7 78v511l44 11l6 -3v-515q0 -41 13 -65t41 -34t75 -10q15 0 21 -4.5z" />
    <glyph glyph-name="uniFEDF" unicode="&#x644;" horiz-adv-x="264" arabic-form="initial" 
d="M20 49q34 0 62.5 6t49.5 24q7 30 7 75v511l44 11l6 -3v-522q0 -59 -21.5 -92t-62.5 -46t-105 -13z" />
    <glyph glyph-name="uniFEE2" unicode="&#x645;" horiz-adv-x="551" arabic-form="final" 
d="M598 31q0 -14 -13 -22.5t-34 -8.5q-65 0 -105 44q-24 -55 -78 -55t-115.5 42t-118.5 117q-19 -23 -36 -52q-5 -27 -5 -66q0 -71 11 -175t24 -188l-38 -22l-9 3q-19 141 -27.5 228.5t-8.5 137.5q0 39 6 67.5t21 55t42 59.5q29 34 63.5 62t66.5 44.5t55 16.5
q24 0 45.5 -16.5t44.5 -54t53 -103.5q19 -40 34.5 -60t37 -28t57.5 -8q27 0 27 -18zM417 86l-10 21q-37 84 -63.5 123t-48.5 39t-57.5 -24t-72.5 -62q48 -66 100.5 -105.5t92.5 -39.5q47 0 59 48z" />
    <glyph glyph-name="uniFEE4" unicode="&#x645;" horiz-adv-x="538" arabic-form="medial" 
d="M585 31q0 -14 -14 -22.5t-34 -8.5q-27 0 -53.5 11t-48.5 33q-20 -55 -79 -55q-48 0 -106.5 24t-108.5 60q-19 -30 -37 -45.5t-42 -21.5t-62 -6l20 49q23 0 38.5 8t28.5 24.5t31 48.5l12 22q30 56 50.5 89t47 55.5t56.5 22.5q28 0 52 -20t45.5 -56.5t48.5 -97.5
q15 -35 31 -55.5t39 -30.5t57 -10q28 0 28 -18zM385 49q15 11 20 36q-8 14 -11 22q-35 81 -62 121.5t-49 40.5q-18 0 -36 -19t-36 -50t-47 -87q49 -35 97.5 -55t83.5 -20q25 0 40 11z" />
    <glyph glyph-name="uniFEE3" unicode="&#x645;" horiz-adv-x="497" arabic-form="initial" 
d="M365 282q36 -37 56.5 -94t20.5 -113q0 -41 -23.5 -63.5t-68.5 -22.5q-44 0 -98 21.5t-106 59.5q-17 -28 -35.5 -42.5t-44 -21t-66.5 -6.5l20 49q28 0 44 6.5t26.5 20.5t28.5 44q5 8 18 37q21 46 40 79t46.5 58t60.5 25q45 0 81 -37zM395 74q0 39 -17 85t-43.5 78
t-52.5 32q-20 0 -37.5 -18t-31 -44t-30.5 -66q-10 -20 -14 -30q46 -32 92 -52t75 -20q23 0 36.5 4.5t21.5 14.5q1 5 1 16z" />
    <glyph glyph-name="uniFEE6" unicode="&#x646;" horiz-adv-x="639" arabic-form="final" 
d="M685 31q0 -13 -12.5 -22t-34.5 -9q-24 0 -48.5 8.5t-44.5 25.5q-2 -69 -36 -118.5t-92 -75.5t-132 -26q-78 0 -132 26.5t-81 74.5t-27 112q0 51 15 104l39 15l6 -4q-12 -54 -12 -97q0 -87 48.5 -134.5t150.5 -47.5q67 0 117.5 23.5t73.5 59.5q18 37 18 81q0 37 -12.5 80
t-40.5 119l40 29h6q23 -77 45 -131q29 -75 117 -75q29 0 29 -18zM288 334l-57 40l35 53l58 -39z" />
    <glyph glyph-name="uniFEE8" unicode="&#x646;" horiz-adv-x="315" arabic-form="medial" 
d="M355 44.5q6 -4.5 6 -13.5q0 -13 -12.5 -22t-33.5 -9q-41 0 -80.5 13t-68.5 40q-23 -28 -56 -40.5t-83 -12.5h-27l20 49h20q33 0 55 7.5t38 22.5q10 16 25.5 61.5t31.5 109.5l48 12l8 -4q-15 -59 -27.5 -98t-26.5 -67q24 -20 60.5 -32t82.5 -12q14 0 20 -4.5zM213 395
l-57 40l35 53l58 -39z" />
    <glyph glyph-name="uniFEE7" unicode="&#x646;" horiz-adv-x="261" arabic-form="initial" 
d="M20 49h7q42 0 72.5 7.5t46.5 21.5q9 27 9 55q0 68 -45 162l39 30h6q23 -50 34.5 -94t11.5 -74q0 -35 -10 -68.5t-27 -50.5q-38 -38 -157 -38h-7zM139 457l-57 40l35 53l58 -39z" />
    <glyph glyph-name="uniFB9F" unicode="&#x6ba;" horiz-adv-x="639" arabic-form="final" 
d="M685 31q0 -13 -12.5 -22t-34.5 -9q-24 0 -48.5 8.5t-44.5 25.5q-2 -69 -36 -118.5t-92 -75.5t-132 -26q-78 0 -132 26.5t-81 74.5t-27 112q0 51 15 104l39 15l6 -4q-12 -54 -12 -97q0 -87 48.5 -134.5t150.5 -47.5q67 0 117.5 23.5t73.5 59.5q18 37 18 81q0 37 -12.5 80
t-40.5 119l40 29h6q23 -77 45 -131q29 -75 117 -75q29 0 29 -18z" />
    <glyph glyph-name="uniFEEA" unicode="&#x647;" horiz-adv-x="442" arabic-form="final" 
d="M483 44.5q6 -4.5 6 -13.5q0 -13 -12.5 -22t-34.5 -9q-66 0 -105 22.5t-52 72.5q-41 -10 -83 -10q-48 0 -84.5 12.5t-56 35t-19.5 51.5q0 39 30 76.5t83.5 69.5t122.5 55v55l43 20l6 -3v-295q0 -45 13 -69t42 -34t81 -10q14 0 20 -4.5zM278 142v10v180q-57 -17 -99.5 -41
t-66 -50t-25.5 -49q6 -29 40 -43.5t77 -14.5q36 0 74 8z" />
    <glyph glyph-name="uniFEEC" unicode="&#x647;" horiz-adv-x="429" arabic-form="medial" 
d="M476 30q0 -13 -13 -21.5t-34 -8.5h-90q20 -17 32 -43t12 -51q0 -26 -15 -46.5t-41.5 -32.5t-58.5 -12q-56 0 -98 22.5t-66.5 64.5t-26.5 98h-77l20 49h59q13 142 135 297l29 26l6 1q54 -63 78 -107.5t24 -82.5q0 -35 -23 -72t-61 -62h182q27 0 27 -19zM160.5 174.5
q-27.5 -62.5 -33.5 -126.5q48 1 88 19.5t63.5 48t23.5 64.5q0 26 -14.5 57t-45.5 72q-54 -72 -81.5 -134.5zM312 -127.5q20 8.5 27 19.5q0 33 -18 58.5t-49.5 40t-71.5 14.5q-38 0 -73 -9q3 -40 21.5 -70t50 -46t72.5 -16q21 0 41 8.5z" />
    <glyph glyph-name="uniFEEB" unicode="&#x647;" horiz-adv-x="521" arabic-form="initial" 
d="M373.5 247.5q102.5 -83.5 102.5 -159.5q0 -44 -33.5 -68t-94.5 -24q-89 0 -157 33q-66 -29 -165 -29h-26l13 49h48q48 0 84 9q-30 25 -45.5 57.5t-15.5 70.5q0 32 10.5 62t29.5 52.5t43 31.5l-62 33l16 46l6 2q144 -82 246.5 -165.5zM146 128q17 -29 51 -49
q30 18 47 46.5t17 64.5q0 27 -9 51t-23.5 38.5t-31.5 14.5t-33 -14.5t-25.5 -38t-9.5 -48.5q0 -36 17 -65zM403 52q23 8 31 21q0 37 -37 82t-99 91q8 -27 8 -54q0 -41 -16.5 -75t-47.5 -58q45 -15 106 -15q32 0 55 8z" />
    <glyph glyph-name="uniFBA7" unicode="&#x6c1;" horiz-adv-x="451" arabic-form="final" 
d="M382.5 17.5q-29.5 17.5 -48.5 41t-42 60.5q-11 18 -22.5 34.5t-23 25t-24.5 8.5q-41 0 -82 -30.5t-72 -77.5h-6l-26 29q20 33 49.5 62t66.5 47.5t76 18.5q22 0 39 -10.5t29.5 -26.5t29.5 -44q21 -34 38 -55t43.5 -36t63.5 -15q14 0 20.5 -5t6.5 -14q0 -13 -12.5 -21.5
t-34.5 -8.5q-39 0 -68.5 17.5z" />
    <glyph glyph-name="uniFBA9" unicode="&#x6c1;" horiz-adv-x="528" arabic-form="medial" 
d="M568 44.5q6 -4.5 6 -14.5q0 -13 -12 -21.5t-34 -8.5h-76q-56 0 -83 -42t-27 -109q0 -39 8.5 -81.5t24.5 -81.5l-47 -18q-65 22 -114 65t-75.5 100t-26.5 121q0 30 6 62q-29 -11 -55.5 -13.5t-62.5 -2.5l20 49q33 0 62 6t60 27.5t54 65.5l33 -15l2 -7q-23 -47 -55 -76
q-17 -40 -17 -87q0 -53 21 -103.5t59.5 -89.5t87.5 -57q-27 81 -27 153q0 82 37.5 132.5t114.5 50.5h96q14 0 20 -4.5z" />
    <glyph glyph-name="uniFBA8" unicode="&#x6c1;" horiz-adv-x="263" arabic-form="initial" 
d="M20 49h7q42 0 72.5 7.5t46.5 21.5q9 27 9 55q0 68 -45 162l39 30h6q23 -50 34.5 -94t11.5 -74q0 -35 -10 -68.5t-27 -50.5q-38 -38 -157 -38h-7zM104 -149q-11 12 -11 33q0 27 13 53t38 53l23 -16q-35 -42 -35 -61q0 -10 9 -14q12 -6 17.5 -12t5.5 -17q0 -14 -8.5 -22.5
t-25.5 -8.5q-15 0 -26 12z" />
    <glyph glyph-name="uni06C2.fina" unicode="&#x6c2;" horiz-adv-x="451" 
d="M382.5 17.5q-29.5 17.5 -48.5 41t-42 60.5q-11 18 -22.5 34.5t-23 25t-24.5 8.5q-41 0 -82 -30.5t-72 -77.5h-6l-26 29q20 33 49.5 62t66.5 47.5t76 18.5q22 0 39 -10.5t29.5 -26.5t29.5 -44q21 -34 38 -55t43.5 -36t63.5 -15q14 0 20.5 -5t6.5 -14q0 -13 -12.5 -21.5
t-34.5 -8.5q-39 0 -68.5 17.5zM319 419q-80 -10 -189 -14l-4 39q37 0 57 1q-15 14 -22 31.5t-7 36.5q0 34 22 55t57 21q29 0 66 -14l-11 -38q-30 11 -51 11q-19 0 -31 -11.5t-12 -30.5q0 -17 11 -32.5t30 -25.5q54 4 80 7z" />
    <glyph glyph-name="uniFBAB" unicode="&#x6be;" horiz-adv-x="493" arabic-form="final" 
d="M540 30q0 -13 -13 -21.5t-34 -8.5h-90q20 -17 32 -43t12 -51q0 -26 -15 -46.5t-41.5 -32.5t-58.5 -12q-55 0 -97 22.5t-66.5 63.5t-27.5 97q-26 -4 -49 -14t-46 -27h-6l-20 34q21 24 53.5 39t69.5 18q13 143 135 298l29 26l6 1q54 -63 78 -107.5t24 -82.5q0 -35 -23 -72
t-61 -62h182q27 0 27 -19zM224.5 174.5q-27.5 -62.5 -33.5 -126.5q48 1 88 19.5t63.5 48t23.5 64.5q0 26 -14.5 57t-45.5 72q-54 -72 -81.5 -134.5zM376.5 -127.5q19.5 8.5 26.5 19.5q0 33 -17.5 58.5t-49.5 40t-72 14.5q-38 0 -73 -9q3 -40 21.5 -70t50 -46t72.5 -16
q22 0 41.5 8.5z" />
    <glyph glyph-name="uniFBAD" unicode="&#x6be;" horiz-adv-x="429" arabic-form="medial" 
d="M476 30q0 -13 -13 -21.5t-34 -8.5h-90q20 -17 32 -43t12 -51q0 -26 -15 -46.5t-41.5 -32.5t-58.5 -12q-56 0 -98 22.5t-66.5 64.5t-26.5 98h-77l20 49h59q13 142 135 297l29 26l6 1q54 -63 78 -107.5t24 -82.5q0 -35 -23 -72t-61 -62h182q27 0 27 -19zM160.5 174.5
q-27.5 -62.5 -33.5 -126.5q48 1 88 19.5t63.5 48t23.5 64.5q0 26 -14.5 57t-45.5 72q-54 -72 -81.5 -134.5zM312 -127.5q20 8.5 27 19.5q0 33 -18 58.5t-49.5 40t-71.5 14.5q-38 0 -73 -9q3 -40 21.5 -70t50 -46t72.5 -16q21 0 41 8.5z" />
    <glyph glyph-name="uniFBAC" unicode="&#x6be;" horiz-adv-x="521" arabic-form="initial" 
d="M373.5 247.5q102.5 -83.5 102.5 -159.5q0 -44 -33.5 -68t-94.5 -24q-89 0 -157 33q-66 -29 -165 -29h-26l13 49h48q48 0 84 9q-30 25 -45.5 57.5t-15.5 70.5q0 32 10.5 62t29.5 52.5t43 31.5l-62 33l16 46l6 2q144 -82 246.5 -165.5zM146 128q17 -29 51 -49
q30 18 47 46.5t17 64.5q0 27 -9 51t-23.5 38.5t-31.5 14.5t-33 -14.5t-25.5 -38t-9.5 -48.5q0 -36 17 -65zM403 52q23 8 31 21q0 37 -37 82t-99 91q8 -27 8 -54q0 -41 -16.5 -75t-47.5 -58q45 -15 106 -15q32 0 55 8z" />
    <glyph glyph-name="uniFE94" unicode="&#x629;" horiz-adv-x="442" arabic-form="final" 
d="M483 44.5q6 -4.5 6 -13.5q0 -13 -12.5 -22t-34.5 -9q-66 0 -105 22.5t-52 72.5q-41 -10 -83 -10q-48 0 -84.5 12.5t-56 35t-19.5 51.5q0 39 30 76.5t83.5 69.5t122.5 55v55l43 20l6 -3v-295q0 -45 13 -69t42 -34t81 -10q14 0 20 -4.5zM278 142v10v180q-57 -17 -99.5 -41
t-66 -50t-25.5 -49q6 -29 40 -43.5t77 -14.5q36 0 74 8zM167 558l-57 40l35 53l57 -39zM285 558l-58 40l36 53l57 -39z" />
    <glyph glyph-name="uni06C3.fina" unicode="&#x6c3;" horiz-adv-x="451" 
d="M382.5 17.5q-29.5 17.5 -48.5 41t-42 60.5q-11 18 -22.5 34.5t-23 25t-24.5 8.5q-41 0 -82 -30.5t-72 -77.5h-6l-26 29q20 33 49.5 62t66.5 47.5t76 18.5q22 0 39 -10.5t29.5 -26.5t29.5 -44q21 -34 38 -55t43.5 -36t63.5 -15q14 0 20.5 -5t6.5 -14q0 -13 -12.5 -21.5
t-34.5 -8.5q-39 0 -68.5 17.5zM179 370l-57 40l35 53l57 -39zM297 370l-58 40l36 53l57 -39z" />
    <glyph glyph-name="uniFEEE" unicode="&#x648;" horiz-adv-x="428" arabic-form="final" 
d="M475 31q0 -13 -12.5 -22t-34.5 -9h-80q-18 -48 -56 -85.5t-96.5 -61t-134.5 -25.5l-29 39l5 6q61 1 113.5 17t90 44.5t57.5 65.5h-37q-97 0 -140 30.5t-43 96.5q0 43 19 86t51.5 71t70.5 28q40 0 73 -32t51.5 -85t18.5 -115q0 -11 -2 -31h88q27 0 27 -18zM315 49
q2 18 2 28q0 49 -14.5 91.5t-37.5 68t-49 25.5q-25 0 -46.5 -19.5t-34 -50t-12.5 -62.5q0 -31 13 -48.5t44.5 -25t87.5 -7.5h47z" />
    <glyph glyph-name="uniFE86" unicode="&#x624;" horiz-adv-x="428" arabic-form="final" 
d="M106 452q40 0 62 1q-15 15 -23 34.5t-8 39.5q0 38 24 61.5t62 23.5q31 0 73 -16l-12 -40q-30 12 -56 12q-21 0 -34.5 -14t-13.5 -35q0 -19 11.5 -36t31.5 -27q42 3 91 8l5 -40q-82 -11 -208 -15zM475 31q0 -13 -12.5 -22t-34.5 -9h-80q-18 -48 -56 -85.5t-96.5 -61
t-134.5 -25.5l-29 39l5 6q61 1 113.5 17t90 44.5t57.5 65.5h-37q-97 0 -140 30.5t-43 96.5q0 43 19 86t51.5 71t70.5 28q40 0 73 -32t51.5 -85t18.5 -115q0 -11 -2 -31h88q27 0 27 -18zM315 49q2 18 2 28q0 49 -14.5 91.5t-37.5 68t-49 25.5q-25 0 -46.5 -19.5t-34 -50
t-12.5 -62.5q0 -31 13 -48.5t44.5 -25t87.5 -7.5h47z" />
    <glyph glyph-name="uniFEF0" unicode="&#x649;" horiz-adv-x="731" arabic-form="final" 
d="M166 -160q-61 26 -91 73.5t-30 113.5q0 41 11 92l42 14l8 -3q-11 -45 -11 -88q0 -88 55.5 -133.5t174.5 -45.5q92 0 162 19t110.5 48t47.5 60q0 12 -16.5 21.5t-53 21t-118.5 34.5l14 45l86 -25q65 -20 105.5 -29t88.5 -9q14 0 20 -4.5t6 -14.5q0 -13 -12.5 -21.5
t-34.5 -8.5h-39q-7 -58 -57.5 -100t-132.5 -64t-183 -22q-91 0 -152 26z" />
    <glyph glyph-name="uniFEF2" unicode="&#x64a;" horiz-adv-x="731" arabic-form="final" 
d="M166 -160q-61 26 -91 73.5t-30 113.5q0 41 11 92l42 14l8 -3q-11 -45 -11 -88q0 -88 55.5 -133.5t174.5 -45.5q92 0 162 19t110.5 48t47.5 60q0 12 -16.5 21.5t-53 21t-118.5 34.5l14 45l86 -25q65 -20 105.5 -29t88.5 -9q14 0 20 -4.5t6 -14.5q0 -13 -12.5 -21.5
t-34.5 -8.5h-39q-7 -58 -57.5 -100t-132.5 -64t-183 -22q-91 0 -152 26zM269 -375l-57 40l35 53l58 -38zM389 -375l-58 40l36 53l57 -38z" />
    <glyph glyph-name="uniFEF4" unicode="&#x64a;" horiz-adv-x="336" arabic-form="medial" 
d="M376 44.5q6 -4.5 6 -13.5q0 -13 -12.5 -22t-33.5 -9q-115 0 -172 53q-23 -28 -55 -40.5t-81 -12.5h-28l20 49h18q29 0 53 7t38 23q10 16 25.5 61t32.5 110l48 12l8 -4q-17 -64 -28.5 -101t-25.5 -64q52 -44 167 -44q14 0 20 -4.5zM126 -189l-57 40l35 53l58 -38z
M246 -189l-58 40l36 53l57 -38z" />
    <glyph glyph-name="uniFEF3" unicode="&#x64a;" horiz-adv-x="281" arabic-form="initial" 
d="M20 49h19q42 0 76 7.5t51 21.5q9 27 9 57q0 67 -43 160l37 30h6q22 -51 34 -94.5t12 -73.5q0 -35 -10 -68.5t-27 -50.5q-38 -38 -157 -38h-27zM101 -189l-57 40l35 53l58 -38zM221 -189l-58 40l36 53l57 -38z" />
    <glyph glyph-name="uniFE8A" unicode="&#x626;" horiz-adv-x="731" arabic-form="final" 
d="M57 270q40 0 62 1q-15 15 -23 34.5t-8 39.5q0 38 24 61.5t62 23.5q31 0 73 -16l-12 -40q-30 12 -56 12q-21 0 -34.5 -14t-13.5 -35q0 -19 11.5 -36t31.5 -27q42 3 91 8l5 -40q-82 -11 -208 -15zM771 44.5q6 -4.5 6 -14.5q0 -13 -12.5 -21.5t-34.5 -8.5h-39
q-7 -58 -57.5 -100t-132.5 -64t-183 -22q-91 0 -152 26t-91 73.5t-30 113.5q0 41 11 92l42 14l8 -3q-11 -45 -11 -88q0 -88 55.5 -133.5t174.5 -45.5q92 0 162 19t110.5 48t47.5 60q0 12 -16.5 21.5t-53 21t-118.5 34.5l14 45l86 -25q65 -20 105.5 -29t88.5 -9q14 0 20 -4.5
z" />
    <glyph glyph-name="uniFE8C" unicode="&#x626;" horiz-adv-x="336" arabic-form="medial" 
d="M100 402q40 0 62 1q-15 15 -23 34.5t-8 39.5q0 38 24 61.5t62 23.5q31 0 73 -16l-12 -40q-30 12 -56 12q-21 0 -34.5 -14t-13.5 -35q0 -19 11.5 -36t31.5 -27q42 3 91 8l5 -40q-82 -11 -208 -15zM376 44.5q6 -4.5 6 -13.5q0 -13 -12.5 -22t-33.5 -9q-115 0 -172 53
q-23 -28 -55 -40.5t-81 -12.5h-28l20 49h18q29 0 53 7t38 23q10 16 25.5 61t32.5 110l48 12l8 -4q-17 -64 -28.5 -101t-25.5 -64q52 -44 167 -44q14 0 20 -4.5z" />
    <glyph glyph-name="uniFE8B" unicode="&#x626;" horiz-adv-x="281" arabic-form="initial" 
d="M41 464q40 0 62 1q-15 15 -23 34.5t-8 39.5q0 38 24 61.5t62 23.5q31 0 73 -16l-12 -40q-30 12 -56 12q-21 0 -34.5 -14t-13.5 -35q0 -19 11.5 -36t31.5 -27q42 3 91 8l5 -40q-82 -11 -208 -15zM175 325q22 -51 34 -94.5t12 -73.5q0 -35 -10 -68.5t-27 -50.5
q-38 -38 -157 -38h-27l20 49h19q42 0 76 7.5t51 21.5q9 27 9 57q0 67 -43 160l37 30h6z" />
    <glyph glyph-name="uniFBFD" unicode="&#x6cc;" horiz-adv-x="731" arabic-form="final" 
d="M166 -160q-61 26 -91 73.5t-30 113.5q0 41 11 92l42 14l8 -3q-11 -45 -11 -88q0 -88 55.5 -133.5t174.5 -45.5q92 0 162 19t110.5 48t47.5 60q0 12 -16.5 21.5t-53 21t-118.5 34.5l14 45l86 -25q65 -20 105.5 -29t88.5 -9q14 0 20 -4.5t6 -14.5q0 -13 -12.5 -21.5
t-34.5 -8.5h-39q-7 -58 -57.5 -100t-132.5 -64t-183 -22q-91 0 -152 26z" />
    <glyph glyph-name="uniFBFF" unicode="&#x6cc;" horiz-adv-x="336" arabic-form="medial" 
d="M376 44.5q6 -4.5 6 -13.5q0 -13 -12.5 -22t-33.5 -9q-115 0 -172 53q-23 -28 -55 -40.5t-81 -12.5h-28l20 49h18q29 0 53 7t38 23q10 16 25.5 61t32.5 110l48 12l8 -4q-17 -64 -28.5 -101t-25.5 -64q52 -44 167 -44q14 0 20 -4.5zM126 -189l-57 40l35 53l58 -38z
M246 -189l-58 40l36 53l57 -38z" />
    <glyph glyph-name="uniFBFE" unicode="&#x6cc;" horiz-adv-x="281" arabic-form="initial" 
d="M20 49h19q42 0 76 7.5t51 21.5q9 27 9 57q0 67 -43 160l37 30h6q22 -51 34 -94.5t12 -73.5q0 -35 -10 -68.5t-27 -50.5q-38 -38 -157 -38h-27zM101 -189l-57 40l35 53l58 -38zM221 -189l-58 40l36 53l57 -38z" />
    <glyph glyph-name="uniFBAF" unicode="&#x6d2;" horiz-adv-x="597" arabic-form="final" 
d="M150.5 -236.5q-143.5 28.5 -143.5 93.5q0 60 39.5 103t118.5 66t197 23h255q15 0 21 -4.5t6 -14.5q0 -12 -13 -21t-34 -9h-235q-104 0 -174.5 -17t-105 -48t-34.5 -73q14 -26 90 -43.5t193 -26t257 -8.5l3 -5l-22 -44q-275 0 -418.5 28.5z" />
    <glyph glyph-name="uniFBB1" unicode="&#x6d3;" horiz-adv-x="597" arabic-form="final" 
d="M150.5 -236.5q-143.5 28.5 -143.5 93.5q0 60 39.5 103t118.5 66t197 23h255q15 0 21 -4.5t6 -14.5q0 -12 -13 -21t-34 -9h-235q-104 0 -174.5 -17t-105 -48t-34.5 -73q14 -26 90 -43.5t193 -26t257 -8.5l3 -5l-22 -44q-275 0 -418.5 28.5zM275 232q-80 -10 -189 -14
l-4 39q37 0 57 1q-15 14 -22 31.5t-7 36.5q0 34 22 55t57 21q29 0 66 -14l-11 -38q-30 11 -51 11q-19 0 -31 -11.5t-12 -30.5q0 -17 11 -32.5t30 -25.5q54 4 80 7z" />
    <glyph glyph-name="uniFDFC" unicode="&#xfdfc;" horiz-adv-x="933" arabic-form="isolated" 
d="M451 238v298l38 9l3 -2v-291q0 -46 24.5 -63.5t73.5 -17.5q27 0 49 6.5t32 17.5q5 17 5 30q0 22 -8 45.5t-22 51.5l35 21h3q14 -33 21 -61t7 -47q0 -22 -7.5 -43t-16.5 -30q-13 -13 -40.5 -22.5t-63.5 -9.5q-133 0 -133 108zM381 519l3 -2l-1 -452q0 -99 -45 -144
t-129 -45q-56 0 -95 18.5t-58.5 51.5t-19.5 77q0 31 9 67l35 8l4 -3q-9 -36 -9 -66q0 -38 18.5 -63t49 -37t68.5 -12q46 0 76 14.5t43 40.5q6 18 10 47.5t4 84.5v406zM849.5 116q13.5 -34 13.5 -59t-15 -53q-23 -41 -71.5 -70.5t-111.5 -42.5l-15 35l1 4q50 9 89 29t61 45.5
t22 50.5q0 20 -12 47.5t-35 66.5l32 26h4q24 -45 37.5 -79zM516 44l28 40l44 -28l-26 -42zM676 56l-27 -42l-45 30l27 40z" />
    <glyph glyph-name=".notdef" horiz-adv-x="540" 
d="M80 0v688h380v-688h-380zM156 72h227v544h-227v-544z" />
    <glyph glyph-name="NULL" 
 />
    <glyph glyph-name="NULL" 
 />
    <glyph glyph-name="CR" unicode="&#xd;" horiz-adv-x="254" 
 />
    <glyph glyph-name="space" unicode=" " horiz-adv-x="254" 
 />
    <glyph glyph-name="A" unicode="A" horiz-adv-x="615" 
d="M337 648l257 -643v-5h-58l-80 203h-301l-79 -203h-54v5l255 643h60zM174 250h264l-132 338z" />
    <glyph glyph-name="Aacute" unicode="&#xc1;" horiz-adv-x="615" 
d="M337 648l257 -643v-5h-58l-80 203h-301l-79 -203h-54v5l255 643h60zM174 250h264l-132 338zM263 697l-21 23l151 118l30 -41z" />
    <glyph glyph-name="Acircumflex" unicode="&#xc2;" horiz-adv-x="615" 
d="M337 648l257 -643v-5h-58l-80 203h-301l-79 -203h-54v5l255 643h60zM174 250h264l-132 338zM197 703l-24 22l111 103h46l111 -103l-24 -22l-110 83z" />
    <glyph glyph-name="Adieresis" unicode="&#xc4;" horiz-adv-x="615" 
d="M337 648l257 -643v-5h-58l-80 203h-301l-79 -203h-54v5l255 643h60zM174 250h264l-132 338zM189.5 736q-10.5 10 -10.5 24t10.5 24.5t24.5 10.5t24.5 -10.5t10.5 -24.5t-10.5 -24t-24.5 -10t-24.5 10zM374 736q-10 10 -10 24t10 24.5t24 10.5t24.5 -10.5t10.5 -24.5
t-10.5 -24t-24.5 -10t-24 10z" />
    <glyph glyph-name="Agrave" unicode="&#xc0;" horiz-adv-x="615" 
d="M337 648l257 -643v-5h-58l-80 203h-301l-79 -203h-54v5l255 643h60zM174 250h264l-132 338zM351 710l-160 100l31 41l150 -118z" />
    <glyph glyph-name="Aring" unicode="&#xc5;" horiz-adv-x="615" 
d="M337 648l257 -643v-5h-58l-80 203h-301l-79 -203h-54v5l255 643h60zM174 250h264l-132 338zM248.5 684.5q-26.5 12.5 -41.5 36.5t-15 57q0 34 15 58t41 36.5t59 12.5t59 -12.5t41 -36.5t15 -58q0 -33 -15 -57t-41.5 -36.5t-58.5 -12.5t-58.5 12.5zM358 725.5
q21 16.5 21 52.5q0 37 -21 53.5t-51 16.5t-51 -16.5t-21 -53.5q0 -36 21 -52.5t51 -16.5t51 16.5z" />
    <glyph glyph-name="Atilde" unicode="&#xc3;" horiz-adv-x="615" 
d="M337 648l257 -643v-5h-58l-80 203h-301l-79 -203h-54v5l255 643h60zM174 250h264l-132 338zM326.5 717.5q-15.5 8.5 -32.5 24.5q-15 13 -25.5 19t-23.5 6q-17 0 -30.5 -13t-29.5 -41l-33 13q22 44 44 64t55 20q21 0 36.5 -8.5t32.5 -23.5q15 -13 26 -19.5t24 -6.5
q17 0 30.5 13.5t28.5 40.5l33 -13q-21 -44 -43 -64t-56 -20q-21 0 -36.5 8.5z" />
    <glyph glyph-name="AE" unicode="&#xc6;" horiz-adv-x="880" 
d="M578 48h273v-48h-315l-65 203h-302l-93 -203h-54v5l298 643h464v-48h-388l82 -248h279l-7 -47h-257zM191 250h265l-109 339z" />
    <glyph glyph-name="B" unicode="B" horiz-adv-x="595" 
d="M504.5 281q38.5 -43 38.5 -106q0 -49 -23.5 -88.5t-76.5 -63t-136 -23.5h-210v648h207q67 0 115 -19t73.5 -55.5t25.5 -88.5t-30.5 -92t-98.5 -57q77 -12 115.5 -55zM152 601v-247h144q72 0 119 31.5t47 99.5q0 34 -17 60t-51 41t-83 15h-159zM444.5 83q41.5 36 41.5 93
q0 63 -44 97.5t-127 34.5h-163v-261h162q89 0 130.5 36z" />
    <glyph glyph-name="C" unicode="C" horiz-adv-x="568" 
d="M183.5 31q-65.5 42 -98.5 117.5t-33 176.5q0 113 41 188t107 110.5t143 35.5q59 0 108 -15t97 -43l-25 -42q-43 25 -84 38t-95 13q-76 0 -129 -36t-79.5 -100t-26.5 -147q0 -84 26 -149t78.5 -102.5t129.5 -37.5q52 0 96.5 14t89.5 39l23 -41q-102 -61 -210 -61
q-93 0 -158.5 42z" />
    <glyph glyph-name="Ccedilla" unicode="&#xc7;" horiz-adv-x="568" 
d="M430 -74.5q23 -20.5 23 -54.5q0 -36 -27 -57.5t-74 -21.5q-43 0 -83 17l13 35q36 -13 67 -13q56 0 56 40q0 24 -22.5 35.5t-74.5 12.5l7 71q-84 6 -143.5 49t-89.5 116.5t-30 169.5q0 113 41 188t107 110.5t143 35.5q59 0 108 -15t97 -43l-25 -42q-43 25 -84 38t-95 13
q-76 0 -129 -36t-79.5 -100t-26.5 -147q0 -84 26 -149t78.5 -102.5t129.5 -37.5q52 0 96.5 14t89.5 39l23 -41q-94 -57 -195 -61v-39q50 -4 73 -24.5z" />
    <glyph glyph-name="D" unicode="D" horiz-adv-x="652" 
d="M517.5 569q83.5 -79 83.5 -245q0 -165 -92 -244.5t-264 -79.5h-148v648h173q164 0 247.5 -79zM402 72q66 24 104 84.5t38 167.5q0 138 -65.5 207t-204.5 69h-122v-552h92q92 0 158 24z" />
    <glyph glyph-name="Eth" unicode="&#xd0;" horiz-adv-x="652" 
d="M517.5 569q83.5 -79 83.5 -245q0 -165 -92 -244.5t-264 -79.5h-148v303h-69v44h69v301h173q164 0 247.5 -79zM402 72q66 24 104 84.5t38 167.5q0 138 -65.5 207t-204.5 69h-122v-253h175v-44h-175v-255h92q92 0 158 24z" />
    <glyph glyph-name="E" unicode="E" horiz-adv-x="540" 
d="M152 48h330v-48h-385v648h380v-48h-325v-248h286l-6 -47h-280v-257z" />
    <glyph glyph-name="Eacute" unicode="&#xc9;" horiz-adv-x="540" 
d="M152 48h330v-48h-385v648h380v-48h-325v-248h286l-6 -47h-280v-257zM256 697l-21 23l151 118l30 -41z" />
    <glyph glyph-name="Ecircumflex" unicode="&#xca;" horiz-adv-x="540" 
d="M152 48h330v-48h-385v648h380v-48h-325v-248h286l-6 -47h-280v-257zM190 703l-24 22l111 103h46l111 -103l-24 -22l-110 83z" />
    <glyph glyph-name="Edieresis" unicode="&#xcb;" horiz-adv-x="540" 
d="M152 48h330v-48h-385v648h380v-48h-325v-248h286l-6 -47h-280v-257zM182.5 736q-10.5 10 -10.5 24t10.5 24.5t24.5 10.5t24.5 -10.5t10.5 -24.5t-10.5 -24t-24.5 -10t-24.5 10zM367 736q-10 10 -10 24t10 24.5t24 10.5t24.5 -10.5t10.5 -24.5t-10.5 -24t-24.5 -10t-24 10
z" />
    <glyph glyph-name="Egrave" unicode="&#xc8;" horiz-adv-x="540" 
d="M152 48h330v-48h-385v648h380v-48h-325v-248h286l-6 -47h-280v-257zM344 710l-160 100l31 41l150 -118z" />
    <glyph glyph-name="F" unicode="F" horiz-adv-x="511" 
d="M477 600h-325v-261h286l-6 -48h-280v-291h-55v648h380v-48z" />
    <glyph glyph-name="G" unicode="G" horiz-adv-x="631" 
d="M564 347v-301q-57 -29 -106.5 -43t-109.5 -14q-97 0 -163.5 42.5t-99.5 118t-33 175.5q0 112 42.5 187.5t111 111t145.5 35.5q113 0 198 -57l-26 -42q-77 50 -169 50q-78 0 -133 -36t-83.5 -100t-28.5 -147q0 -85 25 -150t79 -102t136 -37q47 0 84.5 9.5t75.5 27.5v225
h-178l6 47h227z" />
    <glyph glyph-name="H" unicode="H" horiz-adv-x="704" 
d="M552 648h55v-648h-55v305h-400v-305h-55v648h55v-295h400v295z" />
    <glyph glyph-name="I" unicode="I" horiz-adv-x="249" 
d="M97 0v648h55v-648h-55z" />
    <glyph glyph-name="Iacute" unicode="&#xcd;" horiz-adv-x="249" 
d="M97 0v648h55v-648h-55zM81 697l-21 23l151 118l30 -41z" />
    <glyph glyph-name="Icircumflex" unicode="&#xce;" horiz-adv-x="249" 
d="M97 0v648h55v-648h-55zM15 703l-24 22l111 103h46l111 -103l-24 -22l-110 83z" />
    <glyph glyph-name="Idieresis" unicode="&#xcf;" horiz-adv-x="249" 
d="M97 0v648h55v-648h-55zM7.5 736q-10.5 10 -10.5 24t10.5 24.5t24.5 10.5t24.5 -10.5t10.5 -24.5t-10.5 -24t-24.5 -10t-24.5 10zM192 736q-10 10 -10 24t10 24.5t24 10.5t24.5 -10.5t10.5 -24.5t-10.5 -24t-24.5 -10t-24 10z" />
    <glyph glyph-name="Igrave" unicode="&#xcc;" horiz-adv-x="249" 
d="M97 0v648h55v-648h-55zM169 710l-160 100l31 41l150 -118z" />
    <glyph glyph-name="J" unicode="J" horiz-adv-x="433" 
d="M3 42l29 41q27 -21 58 -32.5t71 -11.5q63 0 96 39.5t33 103.5v466h56v-467q0 -63 -23.5 -106t-65 -64.5t-97.5 -21.5q-88 0 -157 53z" />
    <glyph glyph-name="K" unicode="K" horiz-adv-x="555" 
d="M219 338l326 -333v-5h-67l-326 332v-332h-55v648h55v-308l313 308h63v-5z" />
    <glyph glyph-name="L" unicode="L" horiz-adv-x="505" 
d="M152 49h330v-49h-385v648h55v-599z" />
    <glyph glyph-name="Lslash" unicode="&#x141;" horiz-adv-x="525" 
d="M172 49h330v-49h-385v231l-56 -39l-27 37l83 57v362h55v-319l150 108l27 -37l-177 -127v-224z" />
    <glyph glyph-name="M" unicode="M" horiz-adv-x="823" 
d="M726 648v-648h-54v561q-15 -34 -37 -75l-197 -371h-57l-194 371l-10 20q-17 30 -27 52v-558h-53v648h65l198 -378l14 -28q27 -52 37 -76q9 21 22.5 48.5l28.5 55.5l202 378h62z" />
    <glyph glyph-name="N" unicode="N" horiz-adv-x="698" 
d="M601 648v-648h-65l-345 506l-17.5 25.5t-23.5 38.5v-570h-53v648h61l343 -500q13 -18 25.5 -37.5t21.5 -37.5v575h53z" />
    <glyph glyph-name="Ntilde" unicode="&#xd1;" horiz-adv-x="698" 
d="M601 648v-648h-65l-345 506l-17.5 25.5t-23.5 38.5v-570h-53v648h61l343 -500q13 -18 25.5 -37.5t21.5 -37.5v575h53zM368.5 717.5q-15.5 8.5 -32.5 24.5q-15 13 -25.5 19t-23.5 6q-17 0 -30.5 -13t-29.5 -41l-33 13q22 44 44 64t55 20q21 0 36.5 -8.5t32.5 -23.5
q15 -13 26 -19.5t24 -6.5q17 0 30.5 13.5t28.5 40.5l33 -13q-21 -44 -43 -64t-56 -20q-21 0 -36.5 8.5z" />
    <glyph glyph-name="O" unicode="O" horiz-adv-x="691" 
d="M185 31.5q-65 42.5 -99 118.5t-34 176q0 112 41.5 186.5t109 110.5t146.5 36q92 0 157 -42.5t99 -118.5t34 -176q0 -112 -41 -187t-108.5 -110.5t-147.5 -35.5q-92 0 -157 42.5zM473 73.5q54 36.5 81.5 100.5t27.5 147q0 84 -26 149.5t-78 103t-129 37.5t-131.5 -36
t-82 -100.5t-27.5 -147.5t26 -149t78.5 -103.5t129.5 -37.5t131 36.5z" />
    <glyph glyph-name="Oacute" unicode="&#xd3;" horiz-adv-x="691" 
d="M185 31.5q-65 42.5 -99 118.5t-34 176q0 112 41.5 186.5t109 110.5t146.5 36q92 0 157 -42.5t99 -118.5t34 -176q0 -112 -41 -187t-108.5 -110.5t-147.5 -35.5q-92 0 -157 42.5zM473 73.5q54 36.5 81.5 100.5t27.5 147q0 84 -26 149.5t-78 103t-129 37.5t-131.5 -36
t-82 -100.5t-27.5 -147.5t26 -149t78.5 -103.5t129.5 -37.5t131 36.5zM302 697l-21 23l151 118l30 -41z" />
    <glyph glyph-name="Ocircumflex" unicode="&#xd4;" horiz-adv-x="691" 
d="M185 31.5q-65 42.5 -99 118.5t-34 176q0 112 41.5 186.5t109 110.5t146.5 36q92 0 157 -42.5t99 -118.5t34 -176q0 -112 -41 -187t-108.5 -110.5t-147.5 -35.5q-92 0 -157 42.5zM473 73.5q54 36.5 81.5 100.5t27.5 147q0 84 -26 149.5t-78 103t-129 37.5t-131.5 -36
t-82 -100.5t-27.5 -147.5t26 -149t78.5 -103.5t129.5 -37.5t131 36.5zM236 703l-24 22l111 103h46l111 -103l-24 -22l-110 83z" />
    <glyph glyph-name="Odieresis" unicode="&#xd6;" horiz-adv-x="691" 
d="M185 31.5q-65 42.5 -99 118.5t-34 176q0 112 41.5 186.5t109 110.5t146.5 36q92 0 157 -42.5t99 -118.5t34 -176q0 -112 -41 -187t-108.5 -110.5t-147.5 -35.5q-92 0 -157 42.5zM473 73.5q54 36.5 81.5 100.5t27.5 147q0 84 -26 149.5t-78 103t-129 37.5t-131.5 -36
t-82 -100.5t-27.5 -147.5t26 -149t78.5 -103.5t129.5 -37.5t131 36.5zM228.5 736q-10.5 10 -10.5 24t10.5 24.5t24.5 10.5t24.5 -10.5t10.5 -24.5t-10.5 -24t-24.5 -10t-24.5 10zM413 736q-10 10 -10 24t10 24.5t24 10.5t24.5 -10.5t10.5 -24.5t-10.5 -24t-24.5 -10t-24 10z
" />
    <glyph glyph-name="Ograve" unicode="&#xd2;" horiz-adv-x="691" 
d="M185 31.5q-65 42.5 -99 118.5t-34 176q0 112 41.5 186.5t109 110.5t146.5 36q92 0 157 -42.5t99 -118.5t34 -176q0 -112 -41 -187t-108.5 -110.5t-147.5 -35.5q-92 0 -157 42.5zM473 73.5q54 36.5 81.5 100.5t27.5 147q0 84 -26 149.5t-78 103t-129 37.5t-131.5 -36
t-82 -100.5t-27.5 -147.5t26 -149t78.5 -103.5t129.5 -37.5t131 36.5zM390 710l-160 100l31 41l150 -118z" />
    <glyph glyph-name="Oslash" unicode="&#xd8;" horiz-adv-x="691" 
d="M614.5 474q24.5 -68 24.5 -152q0 -112 -41 -187t-108.5 -110.5t-147.5 -35.5q-92 0 -160 44l-41 -62l-39 23l45 68q-46 44 -70.5 112t-24.5 152q0 112 41.5 186.5t109 110.5t146.5 36q92 0 160 -44l42 62l38 -23l-45 -67q46 -45 70.5 -113zM125.5 201.5
q17.5 -56.5 52.5 -95.5l303 465q-54 40 -132 40q-77 0 -131.5 -36t-82 -100.5t-27.5 -147.5q0 -69 17.5 -125.5zM473 73.5q54 36.5 81.5 100.5t27.5 147q0 69 -17.5 126t-52.5 95l-303 -465q56 -40 133 -40t131 36.5z" />
    <glyph glyph-name="Otilde" unicode="&#xd5;" horiz-adv-x="691" 
d="M185 31.5q-65 42.5 -99 118.5t-34 176q0 112 41.5 186.5t109 110.5t146.5 36q92 0 157 -42.5t99 -118.5t34 -176q0 -112 -41 -187t-108.5 -110.5t-147.5 -35.5q-92 0 -157 42.5zM473 73.5q54 36.5 81.5 100.5t27.5 147q0 84 -26 149.5t-78 103t-129 37.5t-131.5 -36
t-82 -100.5t-27.5 -147.5t26 -149t78.5 -103.5t129.5 -37.5t131 36.5zM365.5 717.5q-15.5 8.5 -32.5 24.5q-15 13 -25.5 19t-23.5 6q-17 0 -30.5 -13t-29.5 -41l-33 13q22 44 44 64t55 20q21 0 36.5 -8.5t32.5 -23.5q15 -13 26 -19.5t24 -6.5q17 0 30.5 13.5t28.5 40.5
l33 -13q-21 -44 -43 -64t-56 -20q-21 0 -36.5 8.5z" />
    <glyph glyph-name="OE" unicode="&#x152;" horiz-adv-x="906" 
d="M849 48v-48h-377q-47 -11 -108 -11q-104 0 -173.5 43t-104 118.5t-34.5 175.5q0 114 43 188.5t115 109.5t162 35q53 0 96 -11h376v-48h-324v-248h285l-7 -47h-278v-257h329zM135 177q27 -65 85 -102.5t145 -37.5q52 0 100 10v553q-21 6 -44 8.5t-52 2.5q-87 0 -145.5 -36
t-87 -99.5t-28.5 -148.5t27 -150z" />
    <glyph glyph-name="P" unicode="P" horiz-adv-x="554" 
d="M417.5 624.5q51.5 -23.5 78.5 -66t27 -100.5q0 -55 -26.5 -101.5t-80.5 -74.5t-133 -28h-131v-254h-55v648h198q71 0 122.5 -23.5zM383.5 322.5q42.5 20.5 63 55t20.5 76.5q0 68 -44 107t-130 39h-141v-298h128q61 0 103.5 20.5z" />
    <glyph glyph-name="Thorn" unicode="&#xde;" horiz-adv-x="571" 
d="M418 504.5q51 -23.5 78 -67t27 -101.5q0 -56 -26.5 -102.5t-80.5 -75t-133 -28.5h-131v-130h-55v648h55v-120h143q72 0 123 -23.5zM384 199q42 21 62.5 56t20.5 78q0 69 -44 108t-130 39h-141v-302h128q62 0 104 21z" />
    <glyph glyph-name="Q" unicode="Q" horiz-adv-x="691" 
d="M628 -125l-216 122q-37 -8 -70 -8q-92 0 -157 42.5t-99 118.5t-34 176q0 112 41.5 186.5t109 110.5t146.5 36q92 0 157 -42.5t99 -118.5t34 -176q0 -117 -47.5 -195.5t-126.5 -112.5l192 -95zM134 178q26 -66 78.5 -103.5t129.5 -37.5t131 36.5t81.5 100.5t27.5 147
q0 84 -26 149.5t-78 103t-129 37.5t-131.5 -36t-82 -100.5t-27.5 -147.5t26 -149z" />
    <glyph glyph-name="R" unicode="R" horiz-adv-x="567" 
d="M547 5v-5h-63l-206 269h-126v-269h-55v648h189q71 0 122 -22.5t78 -64t27 -97.5q0 -49 -19.5 -88.5t-58.5 -66.5t-96 -36zM152 316h132q86 0 129.5 39t43.5 105t-43.5 103t-129.5 37h-132v-284z" />
    <glyph glyph-name="S" unicode="S" horiz-adv-x="548" 
d="M148 7.5q-56 18.5 -104 54.5l27 40q44 -33 95.5 -49t100.5 -16q84 0 125 34t41 94q0 40 -19 65.5t-51 42.5t-89 38l-19 6q-62 23 -99.5 43t-61.5 52.5t-24 81.5q0 51 28.5 88.5t75.5 57t102 19.5t104 -14.5t100 -47.5l-27 -40q-45 28 -87.5 41t-91.5 13q-36 0 -70 -12
t-56 -37t-22 -64q0 -33 14.5 -55t45 -39t85.5 -37l19 -7q64 -23 103 -43t67.5 -57t28.5 -95q0 -55 -26 -94.5t-76 -60.5t-121 -21q-62 0 -118 18.5z" />
    <glyph glyph-name="Scaron" unicode="&#x160;" horiz-adv-x="548" 
d="M148 7.5q-56 18.5 -104 54.5l27 40q44 -33 95.5 -49t100.5 -16q84 0 125 34t41 94q0 40 -19 65.5t-51 42.5t-89 38l-19 6q-62 23 -99.5 43t-61.5 52.5t-24 81.5q0 51 28.5 88.5t75.5 57t102 19.5t104 -14.5t100 -47.5l-27 -40q-45 28 -87.5 41t-91.5 13q-36 0 -70 -12
t-56 -37t-22 -64q0 -33 14.5 -55t45 -39t85.5 -37l19 -7q64 -23 103 -43t67.5 -57t28.5 -95q0 -55 -26 -94.5t-76 -60.5t-121 -21q-62 0 -118 18.5zM255 691l-111 104l24 21l110 -83l110 84l24 -22l-111 -104h-46z" />
    <glyph glyph-name="T" unicode="T" horiz-adv-x="569" 
d="M547 648v-49h-235v-599h-55v599h-235v49h525z" />
    <glyph glyph-name="U" unicode="U" horiz-adv-x="670" 
d="M190.5 22.5q-56.5 33.5 -84.5 92.5t-28 137v396h55v-385q0 -225 203 -225q98 0 149.5 56.5t51.5 164.5v389h55v-393q0 -92 -34.5 -151.5t-93 -87t-132.5 -27.5q-85 0 -141.5 33.5z" />
    <glyph glyph-name="Uacute" unicode="&#xda;" horiz-adv-x="670" 
d="M190.5 22.5q-56.5 33.5 -84.5 92.5t-28 137v396h55v-385q0 -225 203 -225q98 0 149.5 56.5t51.5 164.5v389h55v-393q0 -92 -34.5 -151.5t-93 -87t-132.5 -27.5q-85 0 -141.5 33.5zM291 697l-21 23l151 118l30 -41z" />
    <glyph glyph-name="Ucircumflex" unicode="&#xdb;" horiz-adv-x="670" 
d="M190.5 22.5q-56.5 33.5 -84.5 92.5t-28 137v396h55v-385q0 -225 203 -225q98 0 149.5 56.5t51.5 164.5v389h55v-393q0 -92 -34.5 -151.5t-93 -87t-132.5 -27.5q-85 0 -141.5 33.5zM225 703l-24 22l111 103h46l111 -103l-24 -22l-110 83z" />
    <glyph glyph-name="Udieresis" unicode="&#xdc;" horiz-adv-x="670" 
d="M190.5 22.5q-56.5 33.5 -84.5 92.5t-28 137v396h55v-385q0 -225 203 -225q98 0 149.5 56.5t51.5 164.5v389h55v-393q0 -92 -34.5 -151.5t-93 -87t-132.5 -27.5q-85 0 -141.5 33.5zM217.5 736q-10.5 10 -10.5 24t10.5 24.5t24.5 10.5t24.5 -10.5t10.5 -24.5t-10.5 -24
t-24.5 -10t-24.5 10zM402 736q-10 10 -10 24t10 24.5t24 10.5t24.5 -10.5t10.5 -24.5t-10.5 -24t-24.5 -10t-24 10z" />
    <glyph glyph-name="Ugrave" unicode="&#xd9;" horiz-adv-x="670" 
d="M190.5 22.5q-56.5 33.5 -84.5 92.5t-28 137v396h55v-385q0 -225 203 -225q98 0 149.5 56.5t51.5 164.5v389h55v-393q0 -92 -34.5 -151.5t-93 -87t-132.5 -27.5q-85 0 -141.5 33.5zM379 710l-160 100l31 41l150 -118z" />
    <glyph glyph-name="V" unicode="V" horiz-adv-x="612" 
d="M536 648h54v-5l-254 -643h-59l-255 643v5h57l229 -588z" />
    <glyph glyph-name="W" unicode="W" horiz-adv-x="903" 
d="M875 648v-5l-190 -643h-59l-140 468q-25 85 -34 131q-17 -71 -34 -131l-140 -468h-58l-192 643v5h56l130 -451q21 -71 36 -135l9 37q14 65 24 98l138 451h65l138 -451q7 -23 15.5 -56.5l11.5 -45.5l8 -34q19 80 35 136l127 451h54z" />
    <glyph glyph-name="X" unicode="X" horiz-adv-x="565" 
d="M315 338l229 -338h-65l-198 297l-200 -297h-59l226 336l-212 312h64l182 -272l184 272h59z" />
    <glyph glyph-name="Y" unicode="Y" horiz-adv-x="566" 
d="M544 648v-5l-235 -381v-262h-55v264l-232 379v5h59l203 -336l204 336h56z" />
    <glyph glyph-name="Yacute" unicode="&#xdd;" horiz-adv-x="566" 
d="M544 648v-5l-235 -381v-262h-55v264l-232 379v5h59l203 -336l204 336h56zM239 697l-21 23l151 118l30 -41z" />
    <glyph glyph-name="Ydieresis" unicode="&#x178;" horiz-adv-x="566" 
d="M544 648v-5l-235 -381v-262h-55v264l-232 379v5h59l203 -336l204 336h56zM165.5 736q-10.5 10 -10.5 24t10.5 24.5t24.5 10.5t24.5 -10.5t10.5 -24.5t-10.5 -24t-24.5 -10t-24.5 10zM350 736q-10 10 -10 24t10 24.5t24 10.5t24.5 -10.5t10.5 -24.5t-10.5 -24t-24.5 -10
t-24 10z" />
    <glyph glyph-name="Z" unicode="Z" horiz-adv-x="542" 
d="M491 648v-34l-381 -565h371v-49h-439v35l380 564h-355l6 49h418z" />
    <glyph glyph-name="Zcaron" unicode="&#x17d;" horiz-adv-x="542" 
d="M491 648v-34l-381 -565h371v-49h-439v35l380 564h-355l6 49h418zM248 691l-111 104l24 21l110 -83l110 84l24 -22l-111 -104h-46z" />
    <glyph glyph-name="a" unicode="a" horiz-adv-x="454" 
d="M381 298v-298h-47l-4 48q-38 -30 -80.5 -44.5t-85.5 -14.5q-39 0 -68.5 14t-46 39.5t-16.5 59.5q0 80 83 119t213 41v30q0 51 -22.5 77t-70.5 26q-38 0 -76.5 -12.5t-83.5 -41.5l-24 37q90 62 189 62q140 0 140 -142zM110.5 53q21.5 -19 65.5 -19q41 0 78 15t75 43v129
q-107 -2 -173.5 -29.5t-66.5 -85.5q0 -34 21.5 -53z" />
    <glyph glyph-name="aacute" unicode="&#xe1;" horiz-adv-x="454" 
d="M381 298v-298h-47l-4 48q-38 -30 -80.5 -44.5t-85.5 -14.5q-39 0 -68.5 14t-46 39.5t-16.5 59.5q0 80 83 119t213 41v30q0 51 -22.5 77t-70.5 26q-38 0 -76.5 -12.5t-83.5 -41.5l-24 37q90 62 189 62q140 0 140 -142zM110.5 53q21.5 -19 65.5 -19q41 0 78 15t75 43v129
q-107 -2 -173.5 -29.5t-66.5 -85.5q0 -34 21.5 -53zM172 492l-21 23l151 118l30 -41z" />
    <glyph glyph-name="acircumflex" unicode="&#xe2;" horiz-adv-x="454" 
d="M381 298v-298h-47l-4 48q-38 -30 -80.5 -44.5t-85.5 -14.5q-39 0 -68.5 14t-46 39.5t-16.5 59.5q0 80 83 119t213 41v30q0 51 -22.5 77t-70.5 26q-38 0 -76.5 -12.5t-83.5 -41.5l-24 37q90 62 189 62q140 0 140 -142zM110.5 53q21.5 -19 65.5 -19q41 0 78 15t75 43v129
q-107 -2 -173.5 -29.5t-66.5 -85.5q0 -34 21.5 -53zM106 509l-24 22l111 103h46l111 -103l-24 -22l-110 83z" />
    <glyph glyph-name="adieresis" unicode="&#xe4;" horiz-adv-x="454" 
d="M381 298v-298h-47l-4 48q-38 -30 -80.5 -44.5t-85.5 -14.5q-39 0 -68.5 14t-46 39.5t-16.5 59.5q0 80 83 119t213 41v30q0 51 -22.5 77t-70.5 26q-38 0 -76.5 -12.5t-83.5 -41.5l-24 37q90 62 189 62q140 0 140 -142zM110.5 53q21.5 -19 65.5 -19q41 0 78 15t75 43v129
q-107 -2 -173.5 -29.5t-66.5 -85.5q0 -34 21.5 -53zM98.5 546q-10.5 10 -10.5 24t10.5 24.5t24.5 10.5t24.5 -10.5t10.5 -24.5t-10.5 -24t-24.5 -10t-24.5 10zM283 546q-10 10 -10 24t10 24.5t24 10.5t24.5 -10.5t10.5 -24.5t-10.5 -24t-24.5 -10t-24 10z" />
    <glyph glyph-name="agrave" unicode="&#xe0;" horiz-adv-x="454" 
d="M381 298v-298h-47l-4 48q-38 -30 -80.5 -44.5t-85.5 -14.5q-39 0 -68.5 14t-46 39.5t-16.5 59.5q0 80 83 119t213 41v30q0 51 -22.5 77t-70.5 26q-38 0 -76.5 -12.5t-83.5 -41.5l-24 37q90 62 189 62q140 0 140 -142zM110.5 53q21.5 -19 65.5 -19q41 0 78 15t75 43v129
q-107 -2 -173.5 -29.5t-66.5 -85.5q0 -34 21.5 -53zM260 492l-160 100l31 41l150 -118z" />
    <glyph glyph-name="aring" unicode="&#xe5;" horiz-adv-x="454" 
d="M381 298v-298h-47l-4 48q-38 -30 -80.5 -44.5t-85.5 -14.5q-39 0 -68.5 14t-46 39.5t-16.5 59.5q0 80 83 119t213 41v30q0 51 -22.5 77t-70.5 26q-38 0 -76.5 -12.5t-83.5 -41.5l-24 37q90 62 189 62q140 0 140 -142zM110.5 53q21.5 -19 65.5 -19q41 0 78 15t75 43v129
q-107 -2 -173.5 -29.5t-66.5 -85.5q0 -34 21.5 -53zM157.5 494.5q-26.5 12.5 -41.5 36.5t-15 57q0 34 15 58t41 36.5t59 12.5t59 -12.5t41 -36.5t15 -58q0 -33 -15 -57t-41.5 -36.5t-58.5 -12.5t-58.5 12.5zM267 535.5q21 16.5 21 52.5q0 37 -21 53.5t-51 16.5t-51 -16.5
t-21 -53.5q0 -36 21 -52.5t51 -16.5t51 16.5z" />
    <glyph glyph-name="atilde" unicode="&#xe3;" horiz-adv-x="454" 
d="M381 298v-298h-47l-4 48q-38 -30 -80.5 -44.5t-85.5 -14.5q-39 0 -68.5 14t-46 39.5t-16.5 59.5q0 80 83 119t213 41v30q0 51 -22.5 77t-70.5 26q-38 0 -76.5 -12.5t-83.5 -41.5l-24 37q90 62 189 62q140 0 140 -142zM110.5 53q21.5 -19 65.5 -19q41 0 78 15t75 43v129
q-107 -2 -173.5 -29.5t-66.5 -85.5q0 -34 21.5 -53zM239.5 522.5q-15.5 8.5 -32.5 24.5q-15 13 -25.5 19t-23.5 6q-17 0 -30.5 -13t-29.5 -41l-33 13q22 44 44 64t55 20q21 0 36.5 -8.5t32.5 -23.5q15 -13 26 -19.5t24 -6.5q17 0 30.5 13.5t28.5 40.5l33 -13
q-21 -44 -43 -64t-56 -20q-21 0 -36.5 8.5z" />
    <glyph glyph-name="ae" unicode="&#xe6;" horiz-adv-x="709" 
d="M665 211h-303q1 -92 37 -134.5t100 -42.5q43 0 72.5 12t63.5 36l20 -38q-34 -25 -72 -40t-86 -15q-103 0 -148 78q-45 -40 -93 -59t-96 -19q-38 0 -66.5 14t-44.5 39.5t-16 59.5q0 80 78 114t206 36v40q0 51 -21.5 77t-68.5 26q-35 0 -72.5 -13t-80.5 -42l-23 38
q41 28 86 45t92 17q50 0 81 -24t41 -70q22 45 58.5 69.5t94.5 24.5q55 0 92 -24t54.5 -64.5t17.5 -92.5q0 -21 -3 -48zM407 356.5q-34 -42.5 -43 -104.5h254v6q0 68 -28 104.5t-86 36.5q-63 0 -97 -42.5zM255.5 51q38.5 17 78.5 50q-17 46 -17 111q-105 -2 -167 -25.5
t-62 -80.5q0 -34 21 -53t62 -19q46 0 84.5 17z" />
    <glyph glyph-name="b" unicode="b" horiz-adv-x="498" 
d="M416 383.5q41 -56.5 41 -152.5q0 -83 -34.5 -137.5t-89 -79.5t-117.5 -25q-32 0 -65.5 6.5t-71.5 20.5v672l52 6v-297q38 20 79 31.5t78 11.5q87 0 128 -56.5zM351.5 84.5q49.5 50.5 49.5 148.5q0 78 -29 120t-94 42t-147 -39v-311q42 -11 83 -11q88 0 137.5 50.5z" />
    <glyph glyph-name="c" unicode="c" horiz-adv-x="409" 
d="M130 14.5q-43 25.5 -66 74t-23 116.5q0 79 30.5 132t78 78t99.5 25q64 0 130 -35l-19 -40q-32 15 -59.5 22.5t-55.5 7.5q-46 0 -79.5 -24t-51.5 -67t-18 -99q0 -170 142 -170q36 0 68 11t64 32l22 -38q-72 -51 -160 -51q-59 0 -102 25.5z" />
    <glyph glyph-name="ccedilla" unicode="&#xe7;" horiz-adv-x="409" 
d="M312 -74.5q23 -20.5 23 -54.5q0 -36 -27 -57.5t-74 -21.5q-43 0 -83 17l13 35q36 -13 67 -13q56 0 56 40q0 24 -22.5 35.5t-74.5 12.5l7 72q-74 11 -115 66.5t-41 147.5q0 79 30.5 132t78 78t99.5 25q64 0 130 -35l-19 -40q-32 15 -59.5 22.5t-55.5 7.5q-46 0 -79.5 -24
t-51.5 -67t-18 -99q0 -170 142 -170q36 0 68 11t64 32l22 -38q-69 -50 -153 -51v-39q50 -4 73 -24.5z" />
    <glyph glyph-name="d" unicode="d" horiz-adv-x="498" 
d="M419 694v-694h-47l-3 35q-36 -22 -75.5 -34t-76.5 -12q-59 0 -98.5 27.5t-58.5 75.5t-19 108q0 72 27 126.5t77 84t117 29.5q55 0 105 -19v267zM129 80q33 -45 99 -45q39 0 73 11.5t66 30.5v300q-50 20 -102 20t-90 -22.5t-58.5 -66.5t-20.5 -106q0 -77 33 -122z" />
    <glyph glyph-name="eth" unicode="&#xf0;" horiz-adv-x="508" 
d="M401 522.5q32 -51.5 47 -118.5t15 -157q0 -77 -25 -135t-73 -90.5t-115 -32.5q-59 0 -106.5 23t-75 71t-27.5 119q0 68 26.5 115t70 70.5t94.5 23.5q49 0 91.5 -15t81.5 -47q-11 77 -40 133.5t-81 100.5l-71 -66l-31 27l67 63q-54 29 -119 52l19 40q85 -32 133 -61l65 61
l31 -28l-61 -57q52 -40 84 -91.5zM334.5 58q36.5 24 56.5 72t20 117q0 32 -1 48q-44 36 -82.5 53.5t-83.5 17.5q-72 0 -111 -42.5t-39 -124.5q0 -52 19.5 -89.5t54 -56.5t80.5 -19q50 0 86.5 24z" />
    <glyph glyph-name="e" unicode="e" horiz-adv-x="454" 
d="M411 211h-318q1 -92 38.5 -134.5t104.5 -42.5q32 0 57 6.5t43.5 16t42.5 25.5l21 -38q-37 -26 -76.5 -40.5t-88.5 -14.5q-89 0 -141.5 55t-52.5 170q0 57 22 108.5t67 84.5t112 33q57 0 95.5 -24t57 -64.5t18.5 -92.5q0 -29 -2 -48zM166 378q-31 -21 -48.5 -54t-22.5 -72
h268v8q0 66 -30 102.5t-91 36.5q-45 0 -76 -21z" />
    <glyph glyph-name="eacute" unicode="&#xe9;" horiz-adv-x="454" 
d="M411 211h-318q1 -92 38.5 -134.5t104.5 -42.5q32 0 57 6.5t43.5 16t42.5 25.5l21 -38q-37 -26 -76.5 -40.5t-88.5 -14.5q-89 0 -141.5 55t-52.5 170q0 57 22 108.5t67 84.5t112 33q57 0 95.5 -24t57 -64.5t18.5 -92.5q0 -29 -2 -48zM166 378q-31 -21 -48.5 -54t-22.5 -72
h268v8q0 66 -30 102.5t-91 36.5q-45 0 -76 -21zM198 492l-21 23l151 118l30 -41z" />
    <glyph glyph-name="ecircumflex" unicode="&#xea;" horiz-adv-x="454" 
d="M411 211h-318q1 -92 38.5 -134.5t104.5 -42.5q32 0 57 6.5t43.5 16t42.5 25.5l21 -38q-37 -26 -76.5 -40.5t-88.5 -14.5q-89 0 -141.5 55t-52.5 170q0 57 22 108.5t67 84.5t112 33q57 0 95.5 -24t57 -64.5t18.5 -92.5q0 -29 -2 -48zM166 378q-31 -21 -48.5 -54t-22.5 -72
h268v8q0 66 -30 102.5t-91 36.5q-45 0 -76 -21zM132 509l-24 22l111 103h46l111 -103l-24 -22l-110 83z" />
    <glyph glyph-name="edieresis" unicode="&#xeb;" horiz-adv-x="454" 
d="M411 211h-318q1 -92 38.5 -134.5t104.5 -42.5q32 0 57 6.5t43.5 16t42.5 25.5l21 -38q-37 -26 -76.5 -40.5t-88.5 -14.5q-89 0 -141.5 55t-52.5 170q0 57 22 108.5t67 84.5t112 33q57 0 95.5 -24t57 -64.5t18.5 -92.5q0 -29 -2 -48zM166 378q-31 -21 -48.5 -54t-22.5 -72
h268v8q0 66 -30 102.5t-91 36.5q-45 0 -76 -21zM124.5 546q-10.5 10 -10.5 24t10.5 24.5t24.5 10.5t24.5 -10.5t10.5 -24.5t-10.5 -24t-24.5 -10t-24.5 10zM309 546q-10 10 -10 24t10 24.5t24 10.5t24.5 -10.5t10.5 -24.5t-10.5 -24t-24.5 -10t-24 10z" />
    <glyph glyph-name="egrave" unicode="&#xe8;" horiz-adv-x="454" 
d="M411 211h-318q1 -92 38.5 -134.5t104.5 -42.5q32 0 57 6.5t43.5 16t42.5 25.5l21 -38q-37 -26 -76.5 -40.5t-88.5 -14.5q-89 0 -141.5 55t-52.5 170q0 57 22 108.5t67 84.5t112 33q57 0 95.5 -24t57 -64.5t18.5 -92.5q0 -29 -2 -48zM166 378q-31 -21 -48.5 -54t-22.5 -72
h268v8q0 66 -30 102.5t-91 36.5q-45 0 -76 -21zM286 492l-160 100l31 41l150 -118z" />
    <glyph glyph-name="f" unicode="f" horiz-adv-x="316" 
d="M189.5 619.5q-23.5 -28.5 -23.5 -77.5v-112h144l-5 -42h-139v-388h-52v388h-91v42h91v110q0 47 17.5 81.5t50 53t76.5 18.5q26 0 48 -4.5t45 -13.5l-15 -42q-21 7 -38 11t-37 4q-48 0 -71.5 -28.5z" />
    <glyph glyph-name="f.short" horiz-adv-x="316" 
d="M166 430h144l-5 -42h-139v-388h-52v388h-91v42h91v111q0 47 17 81t49 52t75 18q39 0 69 -12l-16 -40q-24 8 -50 8q-48 0 -70 -27.5t-22 -77.5v-113z" />
    <glyph glyph-name="g" unicode="g" horiz-adv-x="480" 
d="M429.5 15.5q37.5 -26.5 37.5 -74.5q0 -40 -28 -71.5t-80.5 -49t-124.5 -17.5q-93 0 -145 31t-52 93q0 35 18 61.5t55 51.5q-33 19 -33 55q0 19 11 35.5t34 31.5q-32 21 -48 53.5t-16 70.5q0 51 24 85.5t65.5 51.5t93.5 17q31 0 54 -6l150 57l18 -43l-119 -36
q38 -23 56 -56.5t18 -70.5q0 -50 -24.5 -84t-66.5 -51t-94 -17q-43 0 -79 13q-25 -22 -25 -42t23 -30t73 -15l91 -9q76 -8 113.5 -34.5zM140.5 367.5q-30.5 -32.5 -30.5 -80.5q0 -50 30.5 -81.5t98.5 -31.5q60 0 93.5 28.5t33.5 81.5q0 35 -16 61.5t-45 40.5t-67 14
q-67 0 -97.5 -32.5zM316.5 -144.5q40.5 8.5 68.5 28.5t28 53q0 30 -26.5 46.5t-84.5 22.5l-90 9q-34 3 -65 11q-59 -40 -59 -92q0 -48 37 -67.5t111 -19.5q40 0 80.5 8.5z" />
    <glyph glyph-name="h" unicode="h" horiz-adv-x="511" 
d="M398 409.5q39 -30.5 39 -105.5v-304h-52v282q0 40 -9.5 64.5t-31.5 36.5t-60 12q-36 0 -75.5 -11.5t-77.5 -28.5v-355h-52v688l52 6v-300q39 20 82.5 33t84.5 13q61 0 100 -30.5z" />
    <glyph glyph-name="i" unicode="i" horiz-adv-x="210" 
d="M77.5 560.5q-11.5 11.5 -11.5 26.5q0 16 11.5 27.5t26.5 11.5q16 0 27.5 -11.5t11.5 -27.5q0 -15 -11.5 -26.5t-27.5 -11.5q-15 0 -26.5 11.5zM79 0v430l52 6v-436h-52z" />
    <glyph glyph-name="dotlessi" unicode="&#x131;" horiz-adv-x="210" 
d="M79 0v430l52 6v-436h-52z" />
    <glyph glyph-name="iacute" unicode="&#xed;" horiz-adv-x="210" 
d="M79 0v430l52 6v-436h-52zM61 492l-21 23l151 118l30 -41z" />
    <glyph glyph-name="icircumflex" unicode="&#xee;" horiz-adv-x="210" 
d="M79 0v430l52 6v-436h-52zM-5 509l-24 22l111 103h46l111 -103l-24 -22l-110 83z" />
    <glyph glyph-name="idieresis" unicode="&#xef;" horiz-adv-x="210" 
d="M79 0v430l52 6v-436h-52zM10.5 539q-10.5 10 -10.5 24t10.5 24.5t24.5 10.5t24.5 -10.5t10.5 -24.5t-10.5 -24t-24.5 -10t-24.5 10zM150.5 539.5q-10.5 10.5 -10.5 23.5q0 14 10.5 24.5t24.5 10.5t24.5 -10.5t10.5 -24.5t-10.5 -24t-24.5 -10t-24.5 10.5z" />
    <glyph glyph-name="igrave" unicode="&#xec;" horiz-adv-x="210" 
d="M79 0v430l52 6v-436h-52zM149 492l-160 100l31 41l150 -118z" />
    <glyph glyph-name="j" unicode="j" horiz-adv-x="210" 
d="M77.5 560.5q-11.5 11.5 -11.5 26.5q0 16 11.5 27.5t26.5 11.5q16 0 27.5 -11.5t11.5 -27.5q0 -15 -11.5 -26.5t-27.5 -11.5q-15 0 -26.5 11.5zM-44 -192q-23 5 -43 13l15 40q38 -14 71 -14q44 0 62 29t18 74v480l52 6v-484q0 -71 -32.5 -110t-97.5 -39q-22 0 -45 5z" />
    <glyph glyph-name="j.short" horiz-adv-x="210" 
d="M77.5 560.5q-11.5 11.5 -11.5 26.5q0 16 11.5 27.5t26.5 11.5q16 0 27.5 -11.5t11.5 -27.5q0 -15 -11.5 -26.5t-27.5 -11.5q-15 0 -26.5 11.5zM-30 -189l12 40q12 -4 29 -4q38 0 53 26.5t15 66.5v490l52 6v-494q0 -65 -29 -102t-84 -37q-26 0 -48 8z" />
    <glyph glyph-name="k" unicode="k" horiz-adv-x="428" 
d="M195 231l215 -226v-5h-62l-216 227v-227h-52v688l52 6v-461l203 197h58v-5z" />
    <glyph glyph-name="l" unicode="l" horiz-adv-x="210" 
d="M79 0v688l52 6v-694h-52z" />
    <glyph glyph-name="lslash" unicode="&#x142;" horiz-adv-x="254" 
d="M235 379l-85 -60v-319h-52v280l-52 -37l-27 37l79 55v353l52 6v-320l58 41z" />
    <glyph glyph-name="m" unicode="m" horiz-adv-x="759" 
d="M648.5 411q36.5 -29 36.5 -101v-310h-52v289q0 57 -19.5 81.5t-67.5 24.5q-59 0 -143 -42q5 -20 5 -43v-310h-52v289q0 38 -8.5 61t-27 34t-51.5 11q-32 0 -68.5 -11.5t-69.5 -28.5v-355h-52v430l52 6v-41q84 45 151 45q34 0 62 -11.5t45 -39.5q39 21 84 36t86 15
q53 0 89.5 -29z" />
    <glyph glyph-name="n" unicode="n" horiz-adv-x="511" 
d="M398 409.5q39 -30.5 39 -106.5v-303h-52v282q0 40 -9.5 64.5t-31 36.5t-59.5 12q-36 0 -76.5 -11.5t-77.5 -28.5v-355h-52v430l52 6v-42q38 19 81.5 32.5t85.5 13.5q61 0 100 -30.5z" />
    <glyph glyph-name="ntilde" unicode="&#xf1;" horiz-adv-x="511" 
d="M398 409.5q39 -30.5 39 -106.5v-303h-52v282q0 40 -9.5 64.5t-31 36.5t-59.5 12q-36 0 -76.5 -11.5t-77.5 -28.5v-355h-52v430l52 6v-42q38 19 81.5 32.5t85.5 13.5q61 0 100 -30.5zM285.5 522.5q-15.5 8.5 -32.5 24.5q-15 13 -25.5 19t-23.5 6q-17 0 -30.5 -13
t-29.5 -41l-33 13q22 44 44 64t55 20q21 0 36.5 -8.5t32.5 -23.5q15 -13 26 -19.5t24 -6.5q17 0 30.5 13.5t28.5 40.5l33 -13q-21 -44 -43 -64t-56 -20q-21 0 -36.5 8.5z" />
    <glyph glyph-name="o" unicode="o" horiz-adv-x="497" 
d="M132 19q-45 30 -68 81.5t-23 115.5q0 77 29 127.5t77 73.5t108 23q65 0 110.5 -29t68 -80t22.5 -116q0 -78 -28 -128.5t-76 -74t-110 -23.5q-65 0 -110 30zM363 82.5q38 48.5 38 133.5q0 82 -37 131t-113 49q-79 0 -117 -48.5t-38 -131.5t37.5 -132.5t114.5 -49.5
t115 48.5z" />
    <glyph glyph-name="oacute" unicode="&#xf3;" horiz-adv-x="497" 
d="M132 19q-45 30 -68 81.5t-23 115.5q0 77 29 127.5t77 73.5t108 23q65 0 110.5 -29t68 -80t22.5 -116q0 -78 -28 -128.5t-76 -74t-110 -23.5q-65 0 -110 30zM363 82.5q38 48.5 38 133.5q0 82 -37 131t-113 49q-79 0 -117 -48.5t-38 -131.5t37.5 -132.5t114.5 -49.5
t115 48.5zM205 492l-21 23l151 118l30 -41z" />
    <glyph glyph-name="ocircumflex" unicode="&#xf4;" horiz-adv-x="497" 
d="M132 19q-45 30 -68 81.5t-23 115.5q0 77 29 127.5t77 73.5t108 23q65 0 110.5 -29t68 -80t22.5 -116q0 -78 -28 -128.5t-76 -74t-110 -23.5q-65 0 -110 30zM363 82.5q38 48.5 38 133.5q0 82 -37 131t-113 49q-79 0 -117 -48.5t-38 -131.5t37.5 -132.5t114.5 -49.5
t115 48.5zM139 509l-24 22l111 103h46l111 -103l-24 -22l-110 83z" />
    <glyph glyph-name="odieresis" unicode="&#xf6;" horiz-adv-x="497" 
d="M132 19q-45 30 -68 81.5t-23 115.5q0 77 29 127.5t77 73.5t108 23q65 0 110.5 -29t68 -80t22.5 -116q0 -78 -28 -128.5t-76 -74t-110 -23.5q-65 0 -110 30zM363 82.5q38 48.5 38 133.5q0 82 -37 131t-113 49q-79 0 -117 -48.5t-38 -131.5t37.5 -132.5t114.5 -49.5
t115 48.5zM131.5 546q-10.5 10 -10.5 24t10.5 24.5t24.5 10.5t24.5 -10.5t10.5 -24.5t-10.5 -24t-24.5 -10t-24.5 10zM316 546q-10 10 -10 24t10 24.5t24 10.5t24.5 -10.5t10.5 -24.5t-10.5 -24t-24.5 -10t-24 10z" />
    <glyph glyph-name="ograve" unicode="&#xf2;" horiz-adv-x="497" 
d="M132 19q-45 30 -68 81.5t-23 115.5q0 77 29 127.5t77 73.5t108 23q65 0 110.5 -29t68 -80t22.5 -116q0 -78 -28 -128.5t-76 -74t-110 -23.5q-65 0 -110 30zM363 82.5q38 48.5 38 133.5q0 82 -37 131t-113 49q-79 0 -117 -48.5t-38 -131.5t37.5 -132.5t114.5 -49.5
t115 48.5zM293 492l-160 100l31 41l150 -118z" />
    <glyph glyph-name="oslash" unicode="&#xf8;" horiz-adv-x="497" 
d="M437.5 320q18.5 -47 18.5 -105q0 -78 -28 -128.5t-76 -74t-110 -23.5t-107 28l-35 -52l-37 22l37 58q-29 31 -44 75t-15 96q0 77 29 127.5t77 73.5t108 23q51 0 92 -19l30 47l38 -23l-31 -48q35 -30 53.5 -77zM132.5 349q-38.5 -49 -38.5 -133q0 -40 8.5 -73.5
t26.5 -56.5l194 297q-30 15 -72 15q-80 0 -118.5 -49zM364 81q38 49 38 135q0 46 -11.5 82.5t-34.5 59.5l-197 -301q36 -25 89 -25q78 0 116 49z" />
    <glyph glyph-name="otilde" unicode="&#xf5;" horiz-adv-x="497" 
d="M132 19q-45 30 -68 81.5t-23 115.5q0 77 29 127.5t77 73.5t108 23q65 0 110.5 -29t68 -80t22.5 -116q0 -78 -28 -128.5t-76 -74t-110 -23.5q-65 0 -110 30zM363 82.5q38 48.5 38 133.5q0 82 -37 131t-113 49q-79 0 -117 -48.5t-38 -131.5t37.5 -132.5t114.5 -49.5
t115 48.5zM272.5 522.5q-15.5 8.5 -32.5 24.5q-15 13 -25.5 19t-23.5 6q-17 0 -30.5 -13t-29.5 -41l-33 13q22 44 44 64t55 20q21 0 36.5 -8.5t32.5 -23.5q15 -13 26 -19.5t24 -6.5q17 0 30.5 13.5t28.5 40.5l33 -13q-21 -44 -43 -64t-56 -20q-21 0 -36.5 8.5z" />
    <glyph glyph-name="oe" unicode="&#x153;" horiz-adv-x="776" 
d="M732 211h-303q1 -92 37 -134.5t99 -42.5q30 0 54 6.5t42 16t41 25.5l20 -38q-35 -25 -73 -40t-85 -15q-58 0 -99.5 26t-61.5 81q-22 -54 -67.5 -80.5t-105.5 -26.5q-61 0 -103.5 30t-64 81.5t-21.5 115.5q0 77 27.5 127.5t73 73.5t100.5 23q63 0 104.5 -31.5t61.5 -86.5
q19 56 58 87t104 31q55 0 92 -24t55 -64.5t18 -92.5q0 -21 -3 -48zM473.5 356.5q-33.5 -42.5 -42.5 -104.5h254v6q0 67 -28.5 104t-86.5 37q-63 0 -96.5 -42.5zM344 82.5q35 48.5 35 133.5q0 83 -34 131.5t-106 48.5q-73 0 -108 -48.5t-35 -131.5t35 -132.5t105 -49.5
q73 0 108 48.5z" />
    <glyph glyph-name="p" unicode="p" horiz-adv-x="498" 
d="M414 381q43 -59 43 -155q0 -79 -31 -132.5t-82.5 -79t-112.5 -25.5q-51 0 -100 17v-192h-52v616l52 6v-41q37 21 76.5 33t74.5 12q89 0 132 -59zM320 55q39 22 60 65.5t21 105.5q0 81 -31.5 125t-97.5 44q-70 0 -141 -42v-304q45 -16 97 -16q53 0 92 22z" />
    <glyph glyph-name="thorn" unicode="&#xfe;" horiz-adv-x="498" 
d="M414 381q43 -59 43 -155q0 -79 -31 -132.5t-82.5 -79t-112.5 -25.5q-51 0 -100 17v-192h-52v874l52 6v-299q37 21 76.5 33t74.5 12q89 0 132 -59zM320 55q39 22 60 65.5t21 105.5q0 81 -31.5 125t-97.5 44q-70 0 -141 -42v-304q45 -16 97 -16q53 0 92 22z" />
    <glyph glyph-name="q" unicode="q" horiz-adv-x="498" 
d="M343.5 433q35.5 -7 75.5 -21v-598h-52v218q-36 -21 -74.5 -32t-76.5 -11q-59 0 -98 28t-58 75.5t-19 106.5q0 76 30 130.5t82.5 82.5t118.5 28q36 0 71.5 -7zM297 46q34 11 70 30v307q-47 13 -93 13q-54 0 -94 -22t-62 -66t-22 -109q0 -74 32 -119t98 -45q37 0 71 11z
" />
    <glyph glyph-name="r" unicode="r" horiz-adv-x="335" 
d="M284 438.5q13 -1.5 29 -5.5l-13 -53q-29 9 -51 9q-35 0 -65.5 -20.5t-52.5 -67.5v-301h-52v430l52 6v-71q25 38 57.5 56.5t68.5 18.5q14 0 27 -1.5z" />
    <glyph glyph-name="s" unicode="s" horiz-adv-x="409" 
d="M109 3q-43 14 -83 43l25 39q71 -52 153 -52q52 0 83.5 21t31.5 58q0 24 -11.5 40.5t-35 28t-64.5 22.5l-33 9q-64 16 -96 42t-32 71q0 35 19.5 61t54 40t78.5 14q42 0 78.5 -9.5t80.5 -33.5l-23 -39q-39 21 -70.5 29.5t-64.5 8.5q-46 0 -72.5 -17.5t-26.5 -50.5
q0 -20 9.5 -32.5t28.5 -21t53 -17.5l33 -9q53 -14 85 -30.5t47.5 -41t15.5 -60.5q0 -37 -20 -66t-57.5 -45t-88.5 -16q-55 0 -98 14z" />
    <glyph glyph-name="scaron" unicode="&#x161;" horiz-adv-x="409" 
d="M109 3q-43 14 -83 43l25 39q71 -52 153 -52q52 0 83.5 21t31.5 58q0 24 -11.5 40.5t-35 28t-64.5 22.5l-33 9q-64 16 -96 42t-32 71q0 35 19.5 61t54 40t78.5 14q42 0 78.5 -9.5t80.5 -33.5l-23 -39q-39 21 -70.5 29.5t-64.5 8.5q-46 0 -72.5 -17.5t-26.5 -50.5
q0 -20 9.5 -32.5t28.5 -21t53 -17.5l33 -9q53 -14 85 -30.5t47.5 -41t15.5 -60.5q0 -37 -20 -66t-57.5 -45t-88.5 -16q-55 0 -98 14zM177 502l-111 104l24 21l110 -83l110 84l24 -22l-111 -104h-46z" />
    <glyph glyph-name="germandbls" unicode="&#xdf;" horiz-adv-x="524" 
d="M405 308.5q41 -32.5 59.5 -72.5t18.5 -93q0 -45 -20 -80t-56.5 -54.5t-84.5 -19.5q-40 0 -71.5 8.5t-61.5 27.5l22 39q30 -17 55 -23.5t53 -6.5q33 0 58 13.5t38.5 37t13.5 54.5q0 51 -19 88.5t-61 67t-113 55.5v25q59 42 89.5 87t30.5 88q0 47 -27 72.5t-81 25.5
q-31 0 -57.5 -11.5t-43 -37.5t-16.5 -65v-534h-52v528q0 57 24 94t63.5 54t85.5 17q50 0 86 -18.5t54 -50t18 -70.5q0 -49 -29 -94t-86 -89q69 -30 110 -62.5z" />
    <glyph glyph-name="t" unicode="t" horiz-adv-x="352" 
d="M333 13q-48 -24 -96 -24q-62 0 -94.5 37.5t-32.5 104.5v257h-92v42h92v101l52 8v-109h159l-6 -42h-153v-249q0 -52 19 -78.5t60 -26.5q36 0 77 18z" />
    <glyph glyph-name="u" unicode="u" horiz-adv-x="506" 
d="M427 436v-436h-47l-3 40q-36 -22 -77.5 -36.5t-83.5 -14.5q-61 0 -101.5 31.5t-40.5 105.5v304l52 6v-294q0 -38 9.5 -61t32 -34.5t61.5 -11.5q36 0 73.5 13.5t72.5 34.5v347z" />
    <glyph glyph-name="uacute" unicode="&#xfa;" horiz-adv-x="506" 
d="M427 436v-436h-47l-3 40q-36 -22 -77.5 -36.5t-83.5 -14.5q-61 0 -101.5 31.5t-40.5 105.5v304l52 6v-294q0 -38 9.5 -61t32 -34.5t61.5 -11.5q36 0 73.5 13.5t72.5 34.5v347zM211 492l-21 23l151 118l30 -41z" />
    <glyph glyph-name="ucircumflex" unicode="&#xfb;" horiz-adv-x="506" 
d="M427 436v-436h-47l-3 40q-36 -22 -77.5 -36.5t-83.5 -14.5q-61 0 -101.5 31.5t-40.5 105.5v304l52 6v-294q0 -38 9.5 -61t32 -34.5t61.5 -11.5q36 0 73.5 13.5t72.5 34.5v347zM145 509l-24 22l111 103h46l111 -103l-24 -22l-110 83z" />
    <glyph glyph-name="udieresis" unicode="&#xfc;" horiz-adv-x="506" 
d="M427 436v-436h-47l-3 40q-36 -22 -77.5 -36.5t-83.5 -14.5q-61 0 -101.5 31.5t-40.5 105.5v304l52 6v-294q0 -38 9.5 -61t32 -34.5t61.5 -11.5q36 0 73.5 13.5t72.5 34.5v347zM137.5 546q-10.5 10 -10.5 24t10.5 24.5t24.5 10.5t24.5 -10.5t10.5 -24.5t-10.5 -24
t-24.5 -10t-24.5 10zM322 546q-10 10 -10 24t10 24.5t24 10.5t24.5 -10.5t10.5 -24.5t-10.5 -24t-24.5 -10t-24 10z" />
    <glyph glyph-name="ugrave" unicode="&#xf9;" horiz-adv-x="506" 
d="M427 436v-436h-47l-3 40q-36 -22 -77.5 -36.5t-83.5 -14.5q-61 0 -101.5 31.5t-40.5 105.5v304l52 6v-294q0 -38 9.5 -61t32 -34.5t61.5 -11.5q36 0 73.5 13.5t72.5 34.5v347zM299 492l-160 100l31 41l150 -118z" />
    <glyph glyph-name="v" unicode="v" horiz-adv-x="439" 
d="M425 430v-5l-177 -425h-53l-181 425v5h56l119 -291q12 -28 21.5 -54t12.5 -35q10 29 33 89l116 291h53z" />
    <glyph glyph-name="w" unicode="w" horiz-adv-x="645" 
d="M633 430v-5l-143 -425h-52l-99 314q-10 30 -16 57q-4 -24 -15 -57l-99 -314h-50l-147 425v5h55l102 -315q11 -34 16 -55q6 25 15 55l97 315h56l99 -321q8 -24 14 -51q3 20 13 51l103 321h51z" />
    <glyph glyph-name="x" unicode="x" horiz-adv-x="411" 
d="M238 222l160 -217v-5h-59l-135 185l-136 -185h-54v5l159 216l-152 204v5h58l128 -173l125 173h53v-5z" />
    <glyph glyph-name="y" unicode="y" horiz-adv-x="438" 
d="M423 430v-5l-192 -495q-27 -69 -59.5 -98t-82.5 -29q-38 0 -77 15l15 41q29 -12 59 -12q21 0 37 7t30 25t28 52l27 69h-17l-177 425v5h55l114 -281q28 -69 41 -107l40 108l107 280h52z" />
    <glyph glyph-name="yacute" unicode="&#xfd;" horiz-adv-x="438" 
d="M423 430v-5l-192 -495q-27 -69 -59.5 -98t-82.5 -29q-38 0 -77 15l15 41q29 -12 59 -12q21 0 37 7t30 25t28 52l27 69h-17l-177 425v5h55l114 -281q28 -69 41 -107l40 108l107 280h52zM178 492l-21 23l151 118l30 -41z" />
    <glyph glyph-name="ydieresis" unicode="&#xff;" horiz-adv-x="438" 
d="M423 430v-5l-192 -495q-27 -69 -59.5 -98t-82.5 -29q-38 0 -77 15l15 41q29 -12 59 -12q21 0 37 7t30 25t28 52l27 69h-17l-177 425v5h55l114 -281q28 -69 41 -107l40 108l107 280h52zM104.5 546q-10.5 10 -10.5 24t10.5 24.5t24.5 10.5t24.5 -10.5t10.5 -24.5t-10.5 -24
t-24.5 -10t-24.5 10zM289 546q-10 10 -10 24t10 24.5t24 10.5t24.5 -10.5t10.5 -24.5t-10.5 -24t-24.5 -10t-24 10z" />
    <glyph glyph-name="z" unicode="z" horiz-adv-x="402" 
d="M98 47h271v-47h-341v32l268 352h-253l7 46h317v-31z" />
    <glyph glyph-name="zcaron" unicode="&#x17e;" horiz-adv-x="402" 
d="M98 47h271v-47h-341v32l268 352h-253l7 46h317v-31zM178 502l-111 104l24 21l110 -83l110 84l24 -22l-111 -104h-46z" />
    <glyph glyph-name="ordfeminine" unicode="&#xaa;" horiz-adv-x="402" 
d="M307 632q33 -29 33 -91v-257h-42l-6 44q-34 -27 -69 -40.5t-77 -13.5q-31 0 -55 12t-37.5 34t-13.5 50q0 69 68 102t183 34v27q0 46 -19 66t-64 20q-33 0 -64 -10t-68 -34l-23 33q41 27 80.5 40t81.5 13q59 0 92 -29zM111 331q19 -14 48 -14q35 0 66.5 13t65.5 37v103
q-92 -3 -145.5 -24.5t-53.5 -70.5q0 -30 19 -44z" />
    <glyph glyph-name="ordmasculine" unicode="&#xba;" horiz-adv-x="436" 
d="M113 299q-39 26 -58 70t-19 98q0 63 24.5 106.5t67 64.5t96.5 21q58 0 97.5 -25.5t59 -69.5t19.5 -98q0 -64 -25 -107.5t-68 -64.5t-97 -21q-58 0 -97 26zM314.5 356q33.5 41 33.5 111q0 67 -31.5 108.5t-95.5 41.5q-65 0 -99 -40.5t-34 -109.5q0 -68 31.5 -110t96.5 -42
t98.5 41z" />
    <glyph glyph-name="uni0394" unicode="&#x394;" horiz-adv-x="615" 
d="M337 648l257 -643v-5h-572v5l255 643h60zM94 47h424l-212 541z" />
    <glyph glyph-name="uni03A9" unicode="&#x3a9;" horiz-adv-x="716" 
d="M513 45q53 4 130 4v-49h-192v41q78 42 112 116t34 168q0 83 -27 147.5t-81 101.5t-132 37q-77 0 -130.5 -36.5t-80.5 -101t-27 -146.5q0 -95 33.5 -168.5t112.5 -117.5v-41h-192v49q75 0 128 -4q-71 39 -105 110.5t-34 170.5q0 111 41.5 186t109.5 111t147 36
q84 0 150.5 -39t104.5 -114.5t38 -181.5q0 -204 -140 -279z" />
    <glyph glyph-name="uni03BC" unicode="&#x3bc;" horiz-adv-x="511" 
d="M432 436v-436h-47l-3 40q-36 -21 -76.5 -35t-78.5 -14q-67 0 -101 37q5 -35 5 -78v-136h-52v616l52 6v-294q0 -38 9.5 -61t32 -34.5t61.5 -11.5q36 0 73.5 13.5t72.5 34.5v347z" />
    <glyph glyph-name="pi" unicode="&#x3c0;" horiz-adv-x="524" 
d="M508 430l-6 -42h-66v-388h-52v388h-228v-388h-52v388h-68v42h472z" />
    <glyph glyph-name="uni0621" unicode="&#x621;" horiz-adv-x="394" 
d="M344 18q-79 -8 -153 -13t-163 -10l-3 48q31 1 103 5q-24 23 -37.5 53t-13.5 62q0 36 18 66t49 47t69 17q26 0 52 -6t47 -17l-13 -44q-43 18 -85 18q-25 0 -45.5 -11t-32 -31t-11.5 -45q0 -30 17.5 -57.5t49.5 -47.5q97 6 147 13z" />
    <glyph glyph-name="uni0627" unicode="&#x627;" horiz-adv-x="200" 
d="M81 -4l-6 3v666l45 11l5 -3l-1 -666z" />
    <glyph glyph-name="uni0627.short" horiz-adv-x="200" 
d="M81 -4l-6 3v666l45 11l5 -3l-1 -666z" />
    <glyph glyph-name="uniFE8E.short" horiz-adv-x="200" 
d="M81 -4l-6 3v666l45 11l5 -3l-1 -666z" />
    <glyph glyph-name="uni0623" unicode="&#x623;" horiz-adv-x="200" 
d="M81 -4l-6 3v666l45 11l5 -3l-1 -666zM191 752q-80 -10 -189 -14l-4 39q37 0 57 1q-15 14 -22 31.5t-7 36.5q0 34 22 55t57 21q29 0 66 -14l-11 -38q-30 11 -51 11q-19 0 -31 -11.5t-12 -30.5q0 -17 11 -32.5t30 -25.5q54 4 80 7z" />
    <glyph glyph-name="uni0625" unicode="&#x625;" horiz-adv-x="200" 
d="M81 -4l-6 3v666l45 11l5 -3l-1 -666zM198 -237q-80 -10 -189 -14l-4 40q37 0 56 1q-14 14 -21 31.5t-7 36.5q0 34 22 55t57 21q29 0 66 -14l-11 -38q-30 11 -51 11q-19 0 -31 -12t-12 -31q0 -16 10.5 -31t29.5 -26q56 4 81 7z" />
    <glyph glyph-name="uni0622" unicode="&#x622;" horiz-adv-x="200" 
d="M81 -4l-6 3v666l45 11l5 -3l-1 -666zM141 732.5q-14 3.5 -36 10.5q-12 5 -25 8.5t-27 3.5q-18 0 -36 -7t-40 -24l-20 32q27 21 48.5 30t43.5 9q17 0 31 -3.5t30 -9.5q19 -7 34 -10.5t35 -3.5q26 0 50 10l13 -34q-33 -15 -65 -15q-22 0 -36 3.5z" />
    <glyph glyph-name="uni0671" unicode="&#x671;" horiz-adv-x="200" 
d="M81 -4l-6 3v666l45 11l5 -3l-1 -666zM199.5 820.5q13.5 -15.5 13.5 -34.5q0 -25 -18.5 -41t-63.5 -16q-34 0 -54.5 4.5t-36.5 12.5q-16 -16 -48 -16l8 28q11 0 16.5 2t11.5 7q4 5 9.5 21.5t8.5 24.5l28 5l2 -2q-5 -14 -10.5 -27.5t-10.5 -22.5l23 -4q29 39 49 56.5
t39 17.5q20 0 33.5 -15.5zM187 780q0 12 -7 19t-16 7q-10 0 -23 -11t-34 -35q7 -1 24 -1q16 0 32.5 1.5t20.5 3.5q3 9 3 16z" />
    <glyph glyph-name="uni066E" unicode="&#x66e;" horiz-adv-x="817" 
d="M746 227q11 -49 11 -82q0 -35 -12 -61t-39 -42q-38 -24 -115 -38t-164 -14h-33q-122 0 -197.5 17.5t-113.5 59.5t-38 115q0 42 12 92l39 15l7 -4q-10 -47 -10 -87q0 -61 30.5 -95.5t98.5 -49t185 -14.5h34q57 0 113 8t97.5 20.5t58.5 25.5q2 8 2 26q0 36 -13 86t-31 90
l39 30h7q21 -49 32 -98z" />
    <glyph glyph-name="uni066E.medi.wide" horiz-adv-x="336" 
d="M376 44.5q6 -4.5 6 -13.5q0 -13 -12.5 -22t-33.5 -9q-115 0 -172 53q-23 -28 -55 -40.5t-81 -12.5h-28l20 49h18q29 0 53 7t38 23q10 16 25.5 61t32.5 110l48 12l8 -4q-17 -64 -28.5 -101t-25.5 -64q52 -44 167 -44q14 0 20 -4.5z" />
    <glyph glyph-name="uni066E.init.wide" horiz-adv-x="281" 
d="M20 49h19q42 0 76 7.5t51 21.5q9 27 9 57q0 67 -43 160l37 30h6q22 -51 34 -94.5t12 -73.5q0 -35 -10 -68.5t-27 -50.5q-38 -38 -157 -38h-27z" />
    <glyph glyph-name="uni0628" unicode="&#x628;" horiz-adv-x="817" 
d="M746 227q11 -49 11 -82q0 -35 -12 -61t-39 -42q-38 -24 -115 -38t-164 -14h-33q-122 0 -197.5 17.5t-113.5 59.5t-38 115q0 42 12 92l39 15l7 -4q-10 -47 -10 -87q0 -61 30.5 -95.5t98.5 -49t185 -14.5h34q57 0 113 8t97.5 20.5t58.5 25.5q2 8 2 26q0 36 -13 86t-31 90
l39 30h7q21 -49 32 -98zM421 -198l-57 40l35 53l58 -38z" />
    <glyph glyph-name="uniFE91.yeh" horiz-adv-x="250" 
d="M0 13q81 31 116 66q-1 26 -15 72.5t-34 92.5l38 29h6q22 -50 35.5 -97t13.5 -76q0 -20 -9.5 -37t-32.5 -35t-64 -40l-30 -5zM156 -419l-57 40l35 53l58 -38z" />
    <glyph glyph-name="uni067E" unicode="&#x67e;" horiz-adv-x="817" 
d="M746 227q11 -49 11 -82q0 -35 -12 -61t-39 -42q-38 -24 -115 -38t-164 -14h-33q-122 0 -197.5 17.5t-113.5 59.5t-38 115q0 42 12 92l39 15l7 -4q-10 -47 -10 -87q0 -61 30.5 -95.5t98.5 -49t185 -14.5h34q57 0 113 8t97.5 20.5t58.5 25.5q2 8 2 26q0 36 -13 86t-31 90
l39 30h7q21 -49 32 -98zM360 -197l-57 39l35 54l58 -39zM480 -197l-58 39l35 54l58 -39zM426 -276l-57 39l36 55l57 -41z" />
    <glyph glyph-name="uniFBE8.yeh" horiz-adv-x="250" 
d="M0 13q81 31 116 66q-1 26 -15 72.5t-34 92.5l38 29h6q22 -50 35.5 -97t13.5 -76q0 -20 -9.5 -37t-32.5 -35t-64 -40l-30 -5z" />
    <glyph glyph-name="uni062A" unicode="&#x62a;" horiz-adv-x="817" 
d="M746 227q11 -49 11 -82q0 -35 -12 -61t-39 -42q-38 -24 -115 -38t-164 -14h-33q-122 0 -197.5 17.5t-113.5 59.5t-38 115q0 42 12 92l39 15l7 -4q-10 -47 -10 -87q0 -61 30.5 -95.5t98.5 -49t185 -14.5h34q57 0 113 8t97.5 20.5t58.5 25.5q2 8 2 26q0 36 -13 86t-31 90
l39 30h7q21 -49 32 -98zM370 384l-57 40l35 53l57 -39zM488 384l-58 40l36 53l57 -39z" />
    <glyph glyph-name="uniFE97.yeh" horiz-adv-x="250" 
d="M0 13q81 31 116 66q-1 26 -15 72.5t-34 92.5l38 29h6q22 -50 35.5 -97t13.5 -76q0 -20 -9.5 -37t-32.5 -35t-64 -40l-30 -5zM38 394l-57 40l35 53l57 -39zM156 394l-58 40l36 53l57 -39z" />
    <glyph glyph-name="uni062B" unicode="&#x62b;" horiz-adv-x="817" 
d="M746 227q11 -49 11 -82q0 -35 -12 -61t-39 -42q-38 -24 -115 -38t-164 -14h-33q-122 0 -197.5 17.5t-113.5 59.5t-38 115q0 42 12 92l39 15l7 -4q-10 -47 -10 -87q0 -61 30.5 -95.5t98.5 -49t185 -14.5h34q57 0 113 8t97.5 20.5t58.5 25.5q2 8 2 26q0 36 -13 86t-31 90
l39 30h7q21 -49 32 -98zM420 467l-57 41l36 53l57 -39zM371 381l-58 40l35 54l58 -39zM487 381l-58 40l36 54l58 -39z" />
    <glyph glyph-name="uniFE9B.yeh" horiz-adv-x="250" 
d="M0 13q81 31 116 66q-1 26 -15 72.5t-34 92.5l38 29h6q22 -50 35.5 -97t13.5 -76q0 -20 -9.5 -37t-32.5 -35t-64 -40l-30 -5zM88 477l-57 41l36 53l57 -39zM39 391l-58 40l35 54l58 -39zM155 391l-58 40l36 54l58 -39z" />
    <glyph glyph-name="uni0679" unicode="&#x679;" horiz-adv-x="817" 
d="M746 227q11 -49 11 -82q0 -35 -12 -61t-39 -42q-38 -24 -115 -38t-164 -14h-33q-122 0 -197.5 17.5t-113.5 59.5t-38 115q0 42 12 92l39 15l7 -4q-10 -47 -10 -87q0 -61 30.5 -95.5t98.5 -49t185 -14.5h34q57 0 113 8t97.5 20.5t58.5 25.5q2 8 2 26q0 36 -13 86t-31 90
l39 30h7q21 -49 32 -98zM503.5 530q16.5 -11 26.5 -30t10 -42q0 -41 -33 -64.5t-112 -23.5q-60 0 -104 2l-12 32l2 6h35l24 31v175h36v-132q26 28 48 42.5t44 14.5q19 0 35.5 -11zM504 449q0 23 -12.5 37.5t-28.5 14.5q-19 0 -44.5 -23t-61.5 -69h42q72 0 102 16q3 12 3 24z
" />
    <glyph glyph-name="uni062C" unicode="&#x62c;" horiz-adv-x="609" 
d="M584 -343l-14 -38q-37 -16 -92.5 -25.5t-106.5 -9.5q-97 0 -171 30t-114.5 87t-40.5 136q0 84 43 160.5t124 135.5t190 92q-33 7 -89 25q-57 18 -90.5 24.5t-64.5 6.5q-51 0 -107 -17l-4 4l23 47q35 15 89 15q37 0 69.5 -6.5t83.5 -23.5q71 -23 131.5 -33t133.5 -10
l-14 -50q-138 -11 -245 -62t-166 -129.5t-59 -171.5q0 -66 35 -113.5t99.5 -72.5t149.5 -25q102 0 201 32zM357 -162l-54 39l34 50l55 -36z" />
    <glyph glyph-name="uni0686" unicode="&#x686;" horiz-adv-x="612" 
d="M584 -343l-14 -38q-37 -16 -92.5 -25.5t-106.5 -9.5q-97 0 -171 30t-114.5 87t-40.5 136q0 84 43 160.5t124 135.5t190 92q-33 7 -89 25q-57 18 -90.5 24.5t-64.5 6.5q-51 0 -107 -17l-4 4l23 47q35 15 89 15q37 0 69.5 -6.5t83.5 -23.5q71 -23 131.5 -33t133.5 -10
l-14 -50q-138 -11 -245 -62t-166 -129.5t-59 -171.5q0 -66 35 -113.5t99.5 -72.5t149.5 -25q102 0 201 32zM311 -138l-58 40l36 53l57 -39zM431 -138l-57 40l35 53l57 -39zM377 -221l-57 38l36 55l57 -40z" />
    <glyph glyph-name="uni062D" unicode="&#x62d;" horiz-adv-x="609" 
d="M584 -343l-14 -38q-37 -16 -92.5 -25.5t-106.5 -9.5q-97 0 -171 30t-114.5 87t-40.5 136q0 84 43 160.5t124 135.5t190 92q-33 7 -89 25q-57 18 -90.5 24.5t-64.5 6.5q-51 0 -107 -17l-4 4l23 47q35 15 89 15q37 0 69.5 -6.5t83.5 -23.5q71 -23 131.5 -33t133.5 -10
l-14 -50q-138 -11 -245 -62t-166 -129.5t-59 -171.5q0 -66 35 -113.5t99.5 -72.5t149.5 -25q102 0 201 32z" />
    <glyph glyph-name="uni062E" unicode="&#x62e;" horiz-adv-x="609" 
d="M584 -343l-14 -38q-37 -16 -92.5 -25.5t-106.5 -9.5q-97 0 -171 30t-114.5 87t-40.5 136q0 84 43 160.5t124 135.5t190 92q-33 7 -89 25q-57 18 -90.5 24.5t-64.5 6.5q-51 0 -107 -17l-4 4l23 47q35 15 89 15q37 0 69.5 -6.5t83.5 -23.5q71 -23 131.5 -33t133.5 -10
l-14 -50q-138 -11 -245 -62t-166 -129.5t-59 -171.5q0 -66 35 -113.5t99.5 -72.5t149.5 -25q102 0 201 32zM314 464l-57 40l35 53l58 -39z" />
    <glyph glyph-name="uni062F" unicode="&#x62f;" horiz-adv-x="419" 
d="M85 1q-38 4 -57 9l6 43l5 4q23 -4 58 -7t61 -3q65 0 111.5 17t57.5 45q-12 106 -157 255l25 44h7q77 -81 122 -154.5t45 -128.5q0 -61 -56.5 -94.5t-157.5 -33.5q-32 0 -70 4z" />
    <glyph glyph-name="uni0630" unicode="&#x630;" horiz-adv-x="419" 
d="M85 1q-38 4 -57 9l6 43l5 4q23 -4 58 -7t61 -3q65 0 111.5 17t57.5 45q-12 106 -157 255l25 44h7q77 -81 122 -154.5t45 -128.5q0 -61 -56.5 -94.5t-157.5 -33.5q-32 0 -70 4zM191 542l-57 40l35 53l58 -39z" />
    <glyph glyph-name="uni0688" unicode="&#x688;" horiz-adv-x="419" 
d="M85 1q-38 4 -57 9l6 43l5 4q23 -4 58 -7t61 -3q65 0 111.5 17t57.5 45q-12 106 -157 255l25 44h7q77 -81 122 -154.5t45 -128.5q0 -61 -56.5 -94.5t-157.5 -33.5q-32 0 -70 4zM269.5 688q16.5 -11 26.5 -30t10 -42q0 -41 -33 -64.5t-112 -23.5q-60 0 -104 2l-12 32l2 6
h35l24 31v175h36v-132q26 28 48 42.5t44 14.5q19 0 35.5 -11zM270 607q0 23 -12.5 37.5t-28.5 14.5q-19 0 -44.5 -23t-61.5 -69h42q72 0 102 16q3 12 3 24z" />
    <glyph glyph-name="uni0631" unicode="&#x631;" horiz-adv-x="331" 
d="M-58 -131l3 7q81 14 145.5 47.5t100.5 75.5t36 79q-1 32 -19.5 77.5t-52.5 106.5l34 37h7q34 -61 54.5 -117.5t20.5 -95.5q0 -43 -23 -86q-21 -39 -63 -73.5t-98 -59t-118 -35.5z" />
    <glyph glyph-name="uni0631.beh" horiz-adv-x="333" 
d="M6 -116l2 6q60 17 110.5 47.5t80.5 67t30 69.5q-2 32 -21.5 81.5t-50.5 106.5l34 37h6q34 -61 55 -118.5t21 -96.5q0 -51 -32 -99q-32 -47 -86 -81.5t-123 -56.5z" />
    <glyph glyph-name="uniFEAE.beh" horiz-adv-x="358" 
d="M398 44.5q6 -4.5 6 -13.5q0 -13 -12.5 -22t-33.5 -9q-30 0 -50.5 11t-38.5 36q-10 -42 -44 -81t-84 -70t-109 -49l-26 37l2 6q65 19 115.5 51t80 71.5t32.5 81.5q-9 24 -28 62.5t-22 45.5l-30 60l35 37h7q60 -139 90 -193q11 -23 21.5 -35t26 -17t42.5 -5q14 0 20 -4.5z
" />
    <glyph glyph-name="uni0632" unicode="&#x632;" horiz-adv-x="331" 
d="M-58 -131l3 7q81 14 145.5 47.5t100.5 75.5t36 79q-1 32 -19.5 77.5t-52.5 106.5l34 37h7q34 -61 54.5 -117.5t20.5 -95.5q0 -43 -23 -86q-21 -39 -63 -73.5t-98 -59t-118 -35.5zM185 433l-57 40l35 53l58 -39z" />
    <glyph glyph-name="uniFEB0.beh" horiz-adv-x="358" 
d="M398 44.5q6 -4.5 6 -13.5q0 -13 -12.5 -22t-33.5 -9q-30 0 -50.5 11t-38.5 36q-10 -42 -44 -81t-84 -70t-109 -49l-26 37l2 6q65 19 115.5 51t80 71.5t32.5 81.5q-9 24 -28 62.5t-22 45.5l-30 60l35 37h7q60 -139 90 -193q11 -23 21.5 -35t26 -17t42.5 -5q14 0 20 -4.5z
M187 433l-57 40l35 53l58 -39z" />
    <glyph glyph-name="uni0632.beh" horiz-adv-x="333" 
d="M6 -116l2 6q60 17 110.5 47.5t80.5 67t30 69.5q-2 32 -21.5 81.5t-50.5 106.5l34 37h6q34 -61 55 -118.5t21 -96.5q0 -51 -32 -99q-32 -47 -86 -81.5t-123 -56.5zM187 433l-57 40l35 53l58 -39z" />
    <glyph glyph-name="uni0691" unicode="&#x691;" horiz-adv-x="331" 
d="M-58 -131l3 7q81 14 145.5 47.5t100.5 75.5t36 79q-1 32 -19.5 77.5t-52.5 106.5l34 37h7q34 -61 54.5 -117.5t20.5 -95.5q0 -43 -23 -86q-21 -39 -63 -73.5t-98 -59t-118 -35.5zM263.5 579q16.5 -11 26.5 -30t10 -42q0 -41 -33 -64.5t-112 -23.5q-60 0 -104 2l-12 32
l2 6h35l24 31v175h36v-132q26 28 48 42.5t44 14.5q19 0 35.5 -11zM264 498q0 23 -12.5 37.5t-28.5 14.5q-19 0 -44.5 -23t-61.5 -69h42q72 0 102 16q3 12 3 24z" />
    <glyph glyph-name="uni0698" unicode="&#x698;" horiz-adv-x="331" 
d="M-58 -131l3 7q81 14 145.5 47.5t100.5 75.5t36 79q-1 32 -19.5 77.5t-52.5 106.5l34 37h7q34 -61 54.5 -117.5t20.5 -95.5q0 -43 -23 -86q-21 -39 -63 -73.5t-98 -59t-118 -35.5zM180 516l-57 41l36 53l57 -39zM131 430l-58 40l35 54l58 -39zM247 430l-58 40l36 54
l58 -39z" />
    <glyph glyph-name="uni0633" unicode="&#x633;" horiz-adv-x="1066" 
d="M991 218q15 -55 15 -84q0 -72 -42.5 -103t-123.5 -31q-28 0 -58.5 9t-52.5 23q-16 -17 -37.5 -24.5t-54.5 -7.5q-24 0 -48.5 8.5t-43.5 25.5q-2 -68 -37 -118t-94 -76t-133 -26q-78 0 -131 26.5t-79 74.5t-26 112q0 51 15 104l39 15l6 -4q-12 -54 -12 -97
q0 -182 194 -182q45 0 84.5 11t68 30t43.5 42q18 37 18 81q0 37 -12.5 80t-40.5 119l40 29h6q23 -75 45 -132q14 -36 43 -55t63 -19q17 0 30 3t24 10q11 15 27 56.5t29 83.5l46 7l6 -4q-2 -4 -7 -20l-19.5 -52t-24.5 -60q17 -10 42 -17t52 -7q80 0 105 35q4 12 4 32
q0 37 -15 86t-36 93l39 30l6 -1q23 -51 38 -106z" />
    <glyph glyph-name="uni0634" unicode="&#x634;" horiz-adv-x="1066" 
d="M991 218q15 -55 15 -84q0 -72 -42.5 -103t-123.5 -31q-28 0 -58.5 9t-52.5 23q-16 -17 -37.5 -24.5t-54.5 -7.5q-24 0 -48.5 8.5t-43.5 25.5q-2 -68 -37 -118t-94 -76t-133 -26q-78 0 -131 26.5t-79 74.5t-26 112q0 51 15 104l39 15l6 -4q-12 -54 -12 -97
q0 -182 194 -182q45 0 84.5 11t68 30t43.5 42q18 37 18 81q0 37 -12.5 80t-40.5 119l40 29h6q23 -75 45 -132q14 -36 43 -55t63 -19q17 0 30 3t24 10q11 15 27 56.5t29 83.5l46 7l6 -4q-2 -4 -7 -20l-19.5 -52t-24.5 -60q17 -10 42 -17t52 -7q80 0 105 35q4 12 4 32
q0 37 -15 86t-36 93l39 30l6 -1q23 -51 38 -106zM774 488l-57 41l36 53l57 -39zM725 402l-58 40l35 54l58 -39zM841 402l-58 40l36 54l58 -39z" />
    <glyph glyph-name="uni0635" unicode="&#x635;" horiz-adv-x="1215" 
d="M1088.5 307q33.5 -24 52.5 -62t19 -78q0 -35 -14 -65t-38 -50q-36 -30 -97 -41t-166 -11h-105q-60 0 -92.5 2t-58 9t-44.5 23q-2 -68 -36 -118t-92 -76t-132 -26q-78 0 -132 26.5t-81 74.5t-27 112q0 49 15 104l39 15l6 -4q-12 -54 -12 -97q0 -87 48.5 -134.5
t150.5 -47.5q67 0 117.5 23.5t73.5 59.5q18 37 18 81q0 37 -12.5 80t-40.5 119l40 29h6q23 -75 45 -132q15 -37 41 -53t75 -20q122 137 211.5 209t147.5 72q41 0 74.5 -24zM1106 121.5q7 20.5 7 41.5q0 27 -13 55t-36 46t-52 18q-47 0 -121.5 -62t-173.5 -171h106
q110 0 171.5 9t94.5 32q10 11 17 31.5z" />
    <glyph glyph-name="uni0636" unicode="&#x636;" horiz-adv-x="1215" 
d="M1088.5 307q33.5 -24 52.5 -62t19 -78q0 -35 -14 -65t-38 -50q-36 -30 -97 -41t-166 -11h-105q-60 0 -92.5 2t-58 9t-44.5 23q-2 -68 -36 -118t-92 -76t-132 -26q-78 0 -132 26.5t-81 74.5t-27 112q0 49 15 104l39 15l6 -4q-12 -54 -12 -97q0 -87 48.5 -134.5
t150.5 -47.5q67 0 117.5 23.5t73.5 59.5q18 37 18 81q0 37 -12.5 80t-40.5 119l40 29h6q23 -75 45 -132q15 -37 41 -53t75 -20q122 137 211.5 209t147.5 72q41 0 74.5 -24zM1106 121.5q7 20.5 7 41.5q0 27 -13 55t-36 46t-52 18q-47 0 -121.5 -62t-173.5 -171h106
q110 0 171.5 9t94.5 32q10 11 17 31.5zM1002 465l-57 40l35 53l58 -39z" />
    <glyph glyph-name="uni0637" unicode="&#x637;" horiz-adv-x="712" 
d="M585.5 307q33.5 -24 52.5 -62t19 -78q0 -35 -14 -65t-39 -50q-36 -30 -96.5 -41t-165.5 -11h-269l-23 41l2 8h98l66 71v545l45 11l5 -3v-501q80 78 140.5 118.5t104.5 40.5q41 0 74.5 -24zM602 122q7 21 7 41q0 27 -13 55t-36 46t-52 18q-47 0 -121.5 -62t-173.5 -171
h106q110 0 171.5 9t95.5 32q9 11 16 32z" />
    <glyph glyph-name="uni0638" unicode="&#x638;" horiz-adv-x="712" 
d="M585.5 307q33.5 -24 52.5 -62t19 -78q0 -35 -14 -65t-39 -50q-36 -30 -96.5 -41t-165.5 -11h-269l-23 41l2 8h98l66 71v545l45 11l5 -3v-501q80 78 140.5 118.5t104.5 40.5q41 0 74.5 -24zM602 122q7 21 7 41q0 27 -13 55t-36 46t-52 18q-47 0 -121.5 -62t-173.5 -171
h106q110 0 171.5 9t95.5 32q9 11 16 32zM514 465l-57 40l35 53l58 -39z" />
    <glyph glyph-name="uni0639" unicode="&#x639;" horiz-adv-x="516" 
d="M576 -377q-114 -39 -223 -39q-94 0 -166 26t-112 74.5t-40 112.5q0 65 38.5 120t113.5 100q-47 42 -72.5 90t-25.5 98q0 47 22.5 82.5t62.5 55t90 19.5q32 0 68 -8.5t65 -22.5l-6 -46l-4 -1q-29 13 -61.5 20.5t-60.5 7.5q-37 0 -65 -13t-43.5 -37.5t-15.5 -57.5
q0 -42 23.5 -83t68.5 -79q80 40 194 69l5 -3l-4 -48q-167 -43 -255.5 -108t-88.5 -151q0 -50 34.5 -88.5t97.5 -59t146 -20.5q46 0 98 8t100 24l6 -5z" />
    <glyph glyph-name="uni063A" unicode="&#x63a;" horiz-adv-x="516" 
d="M576 -377q-114 -39 -223 -39q-94 0 -166 26t-112 74.5t-40 112.5q0 65 38.5 120t113.5 100q-47 42 -72.5 90t-25.5 98q0 47 22.5 82.5t62.5 55t90 19.5q32 0 68 -8.5t65 -22.5l-6 -46l-4 -1q-29 13 -61.5 20.5t-60.5 7.5q-37 0 -65 -13t-43.5 -37.5t-15.5 -57.5
q0 -42 23.5 -83t68.5 -79q80 40 194 69l5 -3l-4 -48q-167 -43 -255.5 -108t-88.5 -151q0 -50 34.5 -88.5t97.5 -59t146 -20.5q46 0 98 8t100 24l6 -5zM270 496l-57 40l35 53l58 -39z" />
    <glyph glyph-name="uni0641" unicode="&#x641;" horiz-adv-x="876" 
d="M747.5 412.5q32.5 -32.5 50.5 -86.5t18 -117q0 -127 -59 -173q-33 -25 -113.5 -35.5t-216.5 -10.5h-33q-122 0 -197.5 17.5t-113.5 59.5t-38 115q0 42 12 92l39 15l7 -4q-10 -47 -10 -87q0 -61 30.5 -95.5t98.5 -49t185 -14.5h34q256 0 309 43q7 13 12.5 38.5t7.5 53.5
q-54 -14 -112 -14q-64 0 -95 27.5t-31 79.5q0 44 19.5 85.5t52.5 67t70 25.5q41 0 73.5 -32.5zM597.5 223.5q20.5 -14.5 66.5 -14.5q50 0 107 12q-2 46 -17 86.5t-37.5 64.5t-46.5 24t-45.5 -18t-34.5 -47t-13 -61t20.5 -46.5zM660 578l-57 40l35 53l58 -39z" />
    <glyph glyph-name="uniFED3.yeh" horiz-adv-x="359" 
d="M214.5 442.5q32.5 -32.5 51 -87t18.5 -116.5q0 -64 -15.5 -106t-52 -70t-102.5 -49l-18 45q74 21 122 59q7 14 12.5 37t7.5 48q-54 -14 -112 -14q-126 0 -126 108q0 44 19.5 85.5t52.5 67t70 25.5q40 0 72.5 -32.5zM65.5 253q20.5 -15 66.5 -15q53 0 107 13
q-3 46 -17.5 86t-37 64t-46.5 24t-45.5 -18t-34.5 -46.5t-13 -60.5t20.5 -47zM147 608l-57 40l35 53l58 -39z" />
    <glyph glyph-name="uni06A4" unicode="&#x6a4;" horiz-adv-x="876" 
d="M747.5 412.5q32.5 -32.5 50.5 -86.5t18 -117q0 -127 -59 -173q-33 -25 -113.5 -35.5t-216.5 -10.5h-33q-122 0 -197.5 17.5t-113.5 59.5t-38 115q0 42 12 92l39 15l7 -4q-10 -47 -10 -87q0 -61 30.5 -95.5t98.5 -49t185 -14.5h34q256 0 309 43q7 13 12.5 38.5t7.5 53.5
q-54 -14 -112 -14q-64 0 -95 27.5t-31 79.5q0 44 19.5 85.5t52.5 67t70 25.5q41 0 73.5 -32.5zM597.5 223.5q20.5 -14.5 66.5 -14.5q50 0 107 12q-2 46 -17 86.5t-37.5 64.5t-46.5 24t-45.5 -18t-34.5 -47t-13 -61t20.5 -46.5zM655 661l-57 41l36 53l57 -39zM606 575l-58 40
l35 54l58 -39zM722 575l-58 40l36 54l58 -39z" />
    <glyph glyph-name="uniFB6C.yeh" horiz-adv-x="359" 
d="M214.5 442.5q32.5 -32.5 51 -87t18.5 -116.5q0 -64 -15.5 -106t-52 -70t-102.5 -49l-18 45q74 21 122 59q7 14 12.5 37t7.5 48q-54 -14 -112 -14q-126 0 -126 108q0 44 19.5 85.5t52.5 67t70 25.5q40 0 72.5 -32.5zM65.5 253q20.5 -15 66.5 -15q53 0 107 13
q-3 46 -17.5 86t-37 64t-46.5 24t-45.5 -18t-34.5 -46.5t-13 -60.5t20.5 -47zM142 691l-57 41l36 53l57 -39zM93 605l-58 40l35 54l58 -39zM209 605l-58 40l36 54l58 -39z" />
    <glyph glyph-name="uni06A1" unicode="&#x6a1;" horiz-adv-x="876" 
d="M747.5 412.5q32.5 -32.5 50.5 -86.5t18 -117q0 -127 -59 -173q-33 -25 -113.5 -35.5t-216.5 -10.5h-33q-122 0 -197.5 17.5t-113.5 59.5t-38 115q0 42 12 92l39 15l7 -4q-10 -47 -10 -87q0 -61 30.5 -95.5t98.5 -49t185 -14.5h34q256 0 309 43q7 13 12.5 38.5t7.5 53.5
q-54 -14 -112 -14q-64 0 -95 27.5t-31 79.5q0 44 19.5 85.5t52.5 67t70 25.5q41 0 73.5 -32.5zM597.5 223.5q20.5 -14.5 66.5 -14.5q50 0 107 12q-2 46 -17 86.5t-37.5 64.5t-46.5 24t-45.5 -18t-34.5 -47t-13 -61t20.5 -46.5z" />
    <glyph glyph-name="uni06A1.init.yeh" horiz-adv-x="359" 
d="M214.5 442.5q32.5 -32.5 51 -87t18.5 -116.5q0 -64 -15.5 -106t-52 -70t-102.5 -49l-18 45q74 21 122 59q7 14 12.5 37t7.5 48q-54 -14 -112 -14q-126 0 -126 108q0 44 19.5 85.5t52.5 67t70 25.5q40 0 72.5 -32.5zM65.5 253q20.5 -15 66.5 -15q53 0 107 13
q-3 46 -17.5 86t-37 64t-46.5 24t-45.5 -18t-34.5 -46.5t-13 -60.5t20.5 -47z" />
    <glyph glyph-name="uni066F" unicode="&#x66f;" horiz-adv-x="699" 
d="M570.5 279.5q32.5 -32.5 50.5 -86.5t18 -117q0 -132 -81 -197t-240 -65q-91 0 -152 26t-91 73.5t-30 113.5q0 40 13 92l40 14l8 -3q-11 -45 -11 -88q0 -88 55.5 -133.5t174.5 -45.5q86 0 146 22t91 57q11 19 19 45.5t11 53.5q-54 -14 -111 -14q-64 0 -95 27.5t-31 79.5
q0 44 19.5 85.5t52.5 67t70 25.5q41 0 73.5 -32.5zM420.5 90.5q20.5 -14.5 66.5 -14.5q50 0 107 12q-2 46 -17 86.5t-37.5 64.5t-46.5 24t-45.5 -18t-34.5 -47t-13 -61t20.5 -46.5z" />
    <glyph glyph-name="uni0642" unicode="&#x642;" horiz-adv-x="699" 
d="M570.5 279.5q32.5 -32.5 50.5 -86.5t18 -117q0 -132 -81 -197t-240 -65q-91 0 -152 26t-91 73.5t-30 113.5q0 40 13 92l40 14l8 -3q-11 -45 -11 -88q0 -88 55.5 -133.5t174.5 -45.5q86 0 146 22t91 57q11 19 19 45.5t11 53.5q-54 -14 -111 -14q-64 0 -95 27.5t-31 79.5
q0 44 19.5 85.5t52.5 67t70 25.5q41 0 73.5 -32.5zM420.5 90.5q20.5 -14.5 66.5 -14.5q50 0 107 12q-2 46 -17 86.5t-37.5 64.5t-46.5 24t-45.5 -18t-34.5 -47t-13 -61t20.5 -46.5zM447 446l-57 40l35 53l57 -39zM565 446l-58 40l36 53l57 -39z" />
    <glyph glyph-name="uniFED7.yeh" horiz-adv-x="359" 
d="M214.5 442.5q32.5 -32.5 51 -87t18.5 -116.5q0 -64 -15.5 -106t-52 -70t-102.5 -49l-18 45q74 21 122 59q7 14 12.5 37t7.5 48q-54 -14 -112 -14q-126 0 -126 108q0 44 19.5 85.5t52.5 67t70 25.5q40 0 72.5 -32.5zM65.5 253q20.5 -15 66.5 -15q53 0 107 13
q-3 46 -17.5 86t-37 64t-46.5 24t-45.5 -18t-34.5 -46.5t-13 -60.5t20.5 -47zM92 608l-57 40l35 53l57 -39zM210 608l-58 40l36 53l57 -39z" />
    <glyph glyph-name="uni0643" unicode="&#x643;" horiz-adv-x="797" 
d="M722 673v-516q0 -63 -26 -98.5t-89.5 -52t-179.5 -16.5h-33q-122 0 -197.5 17.5t-113.5 59.5t-38 115q0 42 12 92l39 15l7 -4q-10 -47 -10 -87q0 -61 30.5 -95.5t98.5 -49t185 -14.5h34q87 0 143 10.5t80 30.5q9 31 9 74v511l44 11zM305 299q37 0 57 1q-15 14 -22 31.5
t-7 36.5q0 34 22 55t57 21q28 0 67 -14l-12 -36q-30 11 -52 11q-19 0 -31.5 -11.5t-12.5 -31.5q0 -18 11 -33.5t31 -25.5q56 4 81 7l4 -35q-80 -10 -189 -14z" />
    <glyph glyph-name="uni06A9" unicode="&#x6a9;" horiz-adv-x="858" 
d="M847 580l-292 -164q100 -65 155.5 -115.5t76 -88t20.5 -70.5q0 -57 -41.5 -90.5t-124 -47.5t-214.5 -14h-33q-122 0 -197.5 17.5t-113.5 59.5t-38 115q0 42 12 92l39 15l7 -4q-10 -47 -10 -87q0 -61 30.5 -95.5t98.5 -49t185 -14.5h34q135 0 215.5 17.5t106.5 56.5
q3 40 -21 79t-79 85.5t-155 112.5l-4 5l13 56l340 191l6 -3z" />
    <glyph glyph-name="uni06AF" unicode="&#x6af;" horiz-adv-x="847" 
d="M841 710l-315 -181l-6 4l10 51l321 182l5 -4zM847 580l-292 -164q100 -65 155.5 -115.5t76 -88t20.5 -70.5q0 -57 -41.5 -90.5t-124 -47.5t-214.5 -14h-33q-122 0 -197.5 17.5t-113.5 59.5t-38 115q0 42 12 92l39 15l7 -4q-10 -47 -10 -87q0 -61 30.5 -95.5t98.5 -49
t185 -14.5h34q135 0 215.5 17.5t106.5 56.5q3 40 -21 79t-79 85.5t-155 112.5l-4 5l13 56l340 191l6 -3z" />
    <glyph glyph-name="uni0644" unicode="&#x644;" horiz-adv-x="631" 
d="M153 -159.5q-54 26.5 -81 74.5t-27 112q0 51 15 104l39 15l6 -4q-12 -54 -12 -97q0 -87 48.5 -134.5t150.5 -47.5q66 0 111.5 20t74.5 59q15 32 21.5 74t6.5 121v528l44 11l5 -3l-1 -574q0 -149 -69 -217t-200 -68q-78 0 -132 26.5z" />
    <glyph glyph-name="uniFEE0.yeh" horiz-adv-x="424" 
d="M464 44.5q6 -4.5 6 -13.5q0 -13 -12.5 -22t-33.5 -9q-65 0 -101.5 32.5t-46.5 100.5q-27 -26 -81.5 -42t-147.5 -23l-34 42q81 9 129 18t74.5 18.5t41.5 22.5q7 32 7 86v410l44 11l5 -3v-416q0 -79 10.5 -123t38.5 -64.5t81 -20.5q14 0 20 -4.5z" />
    <glyph glyph-name="uniFEDF.yeh" horiz-adv-x="267" 
d="M10 61q41 11 71 22.5t54 33.5q7 33 7 76v414l44 11l6 -3v-410q0 -50 -13 -84t-46.5 -59.5t-94.5 -43.5z" />
    <glyph glyph-name="uni0645" unicode="&#x645;" horiz-adv-x="438" 
d="M308 286q35 -33 55 -84.5t20 -104.5q0 -49 -12.5 -70t-39.5 -21q-23 0 -60 5q-52 6 -87 6q-26 0 -50.5 -8.5t-35.5 -23.5q-4 -20 -4 -51t5.5 -75.5t12.5 -88.5l14 -103l-38 -22l-9 3l-14 106q-8 50 -14 100t-6 81t16 61.5t49 50.5t80 20q38 0 108 -8q12 -2 36 -4
q2 20 2 34q0 41 -15.5 83.5t-41.5 69.5t-55 27q-20 0 -39.5 -16.5t-33 -46t-18.5 -67.5l-33 -5l-8 5q5 53 25 94t50 63.5t63 22.5q43 0 78 -33z" />
    <glyph glyph-name="uni0646" unicode="&#x646;" horiz-adv-x="606" 
d="M156 -160.5q-54 25.5 -82.5 73t-28.5 114.5q0 50 15 104l39 15l6 -4q-12 -49 -12 -97q0 -90 50 -136t149 -46q64 0 115 22.5t76 60.5q19 39 19 85q0 38 -13 85.5t-41 109.5l40 29h6q24 -57 38 -114t14 -97q0 -69 -32.5 -121t-91.5 -80.5t-137 -28.5q-75 0 -129 25.5z
M288 334l-57 40l35 53l58 -39z" />
    <glyph glyph-name="uniFEE7.yeh" horiz-adv-x="250" 
d="M0 13q81 31 116 66q-1 26 -15 72.5t-34 92.5l38 29h6q22 -50 35.5 -97t13.5 -76q0 -20 -9.5 -37t-32.5 -35t-64 -40l-30 -5zM93 394l-57 40l35 53l58 -39z" />
    <glyph glyph-name="uni06BA" unicode="&#x6ba;" horiz-adv-x="606" 
d="M156 -160.5q-54 25.5 -82.5 73t-28.5 114.5q0 50 15 104l39 15l6 -4q-12 -49 -12 -97q0 -90 50 -136t149 -46q64 0 115 22.5t76 60.5q19 39 19 85q0 38 -13 85.5t-41 109.5l40 29h6q24 -57 38 -114t14 -97q0 -69 -32.5 -121t-91.5 -80.5t-137 -28.5q-75 0 -129 25.5z" />
    <glyph glyph-name="uni0647" unicode="&#x647;" horiz-adv-x="370" 
d="M240.5 280q39.5 -43 57 -79t17.5 -73q0 -39 -18.5 -69.5t-52 -47t-76.5 -16.5q-41 0 -72 14.5t-48 41.5t-17 64q0 39 23 87t76 114l-28 22l23 43l6 2q70 -60 109.5 -103zM241 67q26 23 26 63q0 37 -26 74.5t-76 81.5q-46 -54 -66.5 -93.5t-20.5 -69.5q0 -36 25 -57.5
t67 -21.5q45 0 71 23z" />
    <glyph glyph-name="uni06C1" unicode="&#x6c1;" horiz-adv-x="370" 
d="M240.5 280q39.5 -43 57 -79t17.5 -73q0 -39 -18.5 -69.5t-52 -47t-76.5 -16.5q-41 0 -72 14.5t-48 41.5t-17 64q0 39 23 87t76 114l-28 22l23 43l6 2q70 -60 109.5 -103zM241 67q26 23 26 63q0 37 -26 74.5t-76 81.5q-46 -54 -66.5 -93.5t-20.5 -69.5q0 -36 25 -57.5
t67 -21.5q45 0 71 23z" />
    <glyph glyph-name="uni06C2" unicode="&#x6c2;" horiz-adv-x="370" 
d="M240.5 280q39.5 -43 57 -79t17.5 -73q0 -39 -18.5 -69.5t-52 -47t-76.5 -16.5q-41 0 -72 14.5t-48 41.5t-17 64q0 39 23 87t76 114l-28 22l23 43l6 2q70 -60 109.5 -103zM241 67q26 23 26 63q0 37 -26 74.5t-76 81.5q-46 -54 -66.5 -93.5t-20.5 -69.5q0 -36 25 -57.5
t67 -21.5q45 0 71 23zM259 553q-80 -10 -189 -14l-4 39q37 0 57 1q-15 14 -22 31.5t-7 36.5q0 34 22 55t57 21q29 0 66 -14l-11 -38q-30 11 -51 11q-19 0 -31 -11.5t-12 -30.5q0 -17 11 -32.5t30 -25.5q54 4 80 7z" />
    <glyph glyph-name="uni06BE" unicode="&#x6be;" horiz-adv-x="607" 
d="M458.5 246q103.5 -87 103.5 -158q0 -44 -33.5 -68t-94.5 -24q-45 0 -85 8.5t-72 24.5q-27 -12 -53 -17.5t-70 -10.5q-33 -4 -57 -13.5t-51 -29.5h-6l-20 34q23 27 56.5 40t80.5 17q22 2 39.5 4.5t32.5 6.5q-29 24 -44 56.5t-15 69.5q0 32 10.5 62t29.5 52.5t43 31.5
q-28 16 -62 33l16 46l6 2q142 -80 245.5 -167zM232.5 127.5q17.5 -29.5 50.5 -48.5q30 16 47 45t17 66q0 27 -9 51t-23.5 38.5t-31.5 14.5t-33 -14.5t-25.5 -38t-9.5 -48.5q0 -36 17.5 -65.5zM489 52q23 8 31 21q0 34 -36.5 78t-98.5 93q7 -22 7 -52q0 -40 -17 -74.5
t-47 -59.5q47 -14 106 -14q32 0 55 8z" />
    <glyph glyph-name="uni0629" unicode="&#x629;" horiz-adv-x="370" 
d="M240.5 280q39.5 -43 57 -79t17.5 -73q0 -39 -18.5 -69.5t-52 -47t-76.5 -16.5q-41 0 -72 14.5t-48 41.5t-17 64q0 39 23 87t76 114l-28 22l23 43l6 2q70 -60 109.5 -103zM241 67q26 23 26 63q0 37 -26 74.5t-76 81.5q-46 -54 -66.5 -93.5t-20.5 -69.5q0 -36 25 -57.5
t67 -21.5q45 0 71 23zM119 504l-57 40l35 53l57 -39zM237 504l-58 40l36 53l57 -39z" />
    <glyph glyph-name="uni06C3" unicode="&#x6c3;" horiz-adv-x="370" 
d="M240.5 280q39.5 -43 57 -79t17.5 -73q0 -39 -18.5 -69.5t-52 -47t-76.5 -16.5q-41 0 -72 14.5t-48 41.5t-17 64q0 39 23 87t76 114l-28 22l23 43l6 2q70 -60 109.5 -103zM241 67q26 23 26 63q0 37 -26 74.5t-76 81.5q-46 -54 -66.5 -93.5t-20.5 -69.5q0 -36 25 -57.5
t67 -21.5q45 0 71 23zM119 504l-57 40l35 53l57 -39zM237 504l-58 40l36 53l57 -39z" />
    <glyph glyph-name="uni0648" unicode="&#x648;" horiz-adv-x="422" 
d="M292.5 280q32.5 -32 51 -85.5t18.5 -114.5q0 -65 -34.5 -121t-102.5 -92t-164 -39l-29 39l5 6q72 1 131 23t96.5 59.5t48.5 85.5q-52 -14 -109 -14q-126 0 -126 107q0 44 19.5 85.5t52 67t69.5 25.5q41 0 73.5 -32zM143.5 90.5q20.5 -14.5 66.5 -14.5q53 0 107 13
q-2 45 -16.5 85t-37.5 64.5t-48 24.5q-24 0 -45 -18t-34 -47t-13 -61t20.5 -46.5z" />
    <glyph glyph-name="uni0624" unicode="&#x624;" horiz-adv-x="422" 
d="M106 452q40 0 62 1q-15 15 -23 34.5t-8 39.5q0 38 24 61.5t62 23.5q31 0 73 -16l-12 -40q-30 12 -56 12q-21 0 -34.5 -14t-13.5 -35q0 -19 11.5 -36t31.5 -27q42 3 91 8l5 -40q-82 -11 -208 -15zM292.5 280q32.5 -32 51 -85.5t18.5 -114.5q0 -65 -34.5 -121t-102.5 -92
t-164 -39l-29 39l5 6q72 1 131 23t96.5 59.5t48.5 85.5q-52 -14 -109 -14q-126 0 -126 107q0 44 19.5 85.5t52 67t69.5 25.5q41 0 73.5 -32zM143.5 90.5q20.5 -14.5 66.5 -14.5q53 0 107 13q-2 45 -16.5 85t-37.5 64.5t-48 24.5q-24 0 -45 -18t-34 -47t-13 -61t20.5 -46.5z
" />
    <glyph glyph-name="uni0649" unicode="&#x649;" horiz-adv-x="748" 
d="M164.5 -131q-59.5 26 -89.5 73.5t-30 113.5q0 41 11 92l42 14l7 -3q-10 -47 -10 -88q0 -88 54 -133.5t167 -45.5q67 0 131.5 17t111.5 47t65 67q3 11 3 19q0 16 -10 26.5t-28 18t-51 17.5q-46 14 -71.5 26t-40.5 32.5t-15 55.5q0 49 27.5 97t73.5 78.5t97 30.5
q27 0 53.5 -7t46.5 -19l-9 -42l-5 -3q-19 10 -42 16t-44 6q-39 0 -74.5 -23.5t-57.5 -59t-22 -70.5q0 -18 12.5 -30t33.5 -20.5t59 -20.5q47 -14 72.5 -26.5t35.5 -27t10 -35.5q0 -58 -51 -108.5t-135.5 -80.5t-181.5 -30q-86 0 -145.5 26z" />
    <glyph glyph-name="uniFEF0.yeh" horiz-adv-x="624" 
d="M164.5 -160q-59.5 26 -89.5 73.5t-30 113.5q0 41 11 92l42 14l8 -3q-11 -45 -11 -88q0 -88 54 -133.5t167 -45.5q96 0 168 18.5t112 45.5t46 52q0 12 -13 22.5t-54.5 25.5t-121.5 35l14 45q92 -25 138.5 -41.5t65.5 -34t19 -41.5q-6 -51 -56.5 -91t-134.5 -62.5
t-189 -22.5q-86 0 -145.5 26z" />
    <glyph glyph-name="uni064A" unicode="&#x64a;" horiz-adv-x="748" 
d="M164.5 -131q-59.5 26 -89.5 73.5t-30 113.5q0 41 11 92l42 14l7 -3q-10 -47 -10 -88q0 -88 54 -133.5t167 -45.5q67 0 131.5 17t111.5 47t65 67q3 11 3 19q0 16 -10 26.5t-28 18t-51 17.5q-46 14 -71.5 26t-40.5 32.5t-15 55.5q0 49 27.5 97t73.5 78.5t97 30.5
q27 0 53.5 -7t46.5 -19l-9 -42l-5 -3q-19 10 -42 16t-44 6q-39 0 -74.5 -23.5t-57.5 -59t-22 -70.5q0 -18 12.5 -30t33.5 -20.5t59 -20.5q47 -14 72.5 -26.5t35.5 -27t10 -35.5q0 -58 -51 -108.5t-135.5 -80.5t-181.5 -30q-86 0 -145.5 26zM261 -346l-57 40l35 53l58 -38z
M381 -346l-58 40l36 53l57 -38z" />
    <glyph glyph-name="uniFEF2.yeh" horiz-adv-x="624" 
d="M164.5 -160q-59.5 26 -89.5 73.5t-30 113.5q0 41 11 92l42 14l8 -3q-11 -45 -11 -88q0 -88 54 -133.5t167 -45.5q96 0 168 18.5t112 45.5t46 52q0 12 -13 22.5t-54.5 25.5t-121.5 35l14 45q92 -25 138.5 -41.5t65.5 -34t19 -41.5q-6 -51 -56.5 -91t-134.5 -62.5
t-189 -22.5q-86 0 -145.5 26zM261 -375l-57 40l35 53l58 -38zM381 -375l-58 40l36 53l57 -38z" />
    <glyph glyph-name="uniFEF3.yeh" horiz-adv-x="250" 
d="M0 13q81 31 116 66q-1 26 -15 72.5t-34 92.5l38 29h6q22 -50 35.5 -97t13.5 -76q0 -20 -9.5 -37t-32.5 -35t-64 -40l-30 -5zM94 -419l-57 40l35 53l58 -38zM214 -419l-58 40l36 53l57 -38z" />
    <glyph glyph-name="uni0626" unicode="&#x626;" horiz-adv-x="748" 
d="M41 302q40 0 62 1q-15 15 -23 34.5t-8 39.5q0 38 24 61.5t62 23.5q31 0 73 -16l-12 -40q-30 12 -56 12q-21 0 -34.5 -14t-13.5 -35q0 -19 11.5 -36t31.5 -27q42 3 91 8l5 -40q-82 -11 -208 -15zM662.5 417q26.5 -7 46.5 -19l-9 -42l-5 -3q-19 10 -42 16t-44 6
q-39 0 -74.5 -23.5t-57.5 -59t-22 -70.5q0 -18 12.5 -30t33.5 -20.5t59 -20.5q47 -14 72.5 -26.5t35.5 -27t10 -35.5q0 -58 -51 -108.5t-135.5 -80.5t-181.5 -30q-86 0 -145.5 26t-89.5 73.5t-30 113.5q0 41 11 92l42 14l7 -3q-10 -47 -10 -88q0 -88 54 -133.5t167 -45.5
q67 0 131.5 17t111.5 47t65 67q3 11 3 19q0 16 -10 26.5t-28 18t-51 17.5q-46 14 -71.5 26t-40.5 32.5t-15 55.5q0 49 27.5 97t73.5 78.5t97 30.5q27 0 53.5 -7z" />
    <glyph glyph-name="uniFE8A.yeh" horiz-adv-x="624" 
d="M164.5 -160q-59.5 26 -89.5 73.5t-30 113.5q0 41 11 92l42 14l8 -3q-11 -45 -11 -88q0 -88 54 -133.5t167 -45.5q96 0 168 18.5t112 45.5t46 52q0 12 -13 22.5t-54.5 25.5t-121.5 35l14 45q92 -25 138.5 -41.5t65.5 -34t19 -41.5q-6 -51 -56.5 -91t-134.5 -62.5
t-189 -22.5q-86 0 -145.5 26zM261 316q-80 -10 -189 -14l-4 39q37 0 57 1q-15 14 -22 31.5t-7 36.5q0 34 22 55t57 21q29 0 66 -14l-11 -38q-30 11 -51 11q-19 0 -31 -11.5t-12 -30.5q0 -17 11 -32.5t30 -25.5q54 4 80 7z" />
    <glyph glyph-name="uniFE8B.yeh" horiz-adv-x="250" 
d="M0 13q81 31 116 66q-1 26 -15 72.5t-34 92.5l38 29h6q22 -50 35.5 -97t13.5 -76q0 -20 -9.5 -37t-32.5 -35t-64 -40l-30 -5zM178 443q-80 -10 -189 -14l-4 39q37 0 57 1q-15 14 -22 31.5t-7 36.5q0 34 22 55t57 21q29 0 66 -14l-11 -38q-30 11 -51 11q-19 0 -31 -11.5
t-12 -30.5q0 -17 11 -32.5t30 -25.5q54 4 80 7z" />
    <glyph glyph-name="uni06CC" unicode="&#x6cc;" horiz-adv-x="748" 
d="M164.5 -131q-59.5 26 -89.5 73.5t-30 113.5q0 41 11 92l42 14l7 -3q-10 -47 -10 -88q0 -88 54 -133.5t167 -45.5q67 0 131.5 17t111.5 47t65 67q3 11 3 19q0 16 -10 26.5t-28 18t-51 17.5q-46 14 -71.5 26t-40.5 32.5t-15 55.5q0 49 27.5 97t73.5 78.5t97 30.5
q27 0 53.5 -7t46.5 -19l-9 -42l-5 -3q-19 10 -42 16t-44 6q-39 0 -74.5 -23.5t-57.5 -59t-22 -70.5q0 -18 12.5 -30t33.5 -20.5t59 -20.5q47 -14 72.5 -26.5t35.5 -27t10 -35.5q0 -58 -51 -108.5t-135.5 -80.5t-181.5 -30q-86 0 -145.5 26z" />
    <glyph glyph-name="uni06D2" unicode="&#x6d2;" horiz-adv-x="852" 
d="M324 0q-160 8 -234.5 30.5t-74.5 67.5q0 31 19 54t43.5 36.5t63.5 30.5q16 6 30 13t19 13q9 9 18 24t17 30q16 29 28.5 48t30.5 32t40 13q26 0 49.5 -26t37.5 -68t13 -88l-36 -12l-6 5q-1 31 -10.5 62.5t-23 53.5t-24.5 27q-14 0 -26 -16t-29 -48q-13 -25 -24 -42
t-24 -30q-16 -16 -36 -25.5t-56 -24.5q-26 -10 -41 -17.5t-25 -18t-10 -24.5q13 -23 88 -35.5t231 -18t428 -5.5l3 -5l-21 -44q-298 0 -458 8z" />
    <glyph glyph-name="uni06D3" unicode="&#x6d3;" horiz-adv-x="852" 
d="M324 0q-160 8 -234.5 30.5t-74.5 67.5q0 31 19 54t43.5 36.5t63.5 30.5q16 6 30 13t19 13q9 9 18 24t17 30q16 29 28.5 48t30.5 32t40 13q26 0 49.5 -26t37.5 -68t13 -88l-36 -12l-6 5q-1 31 -10.5 62.5t-23 53.5t-24.5 27q-14 0 -26 -16t-29 -48q-13 -25 -24 -42
t-24 -30q-16 -16 -36 -25.5t-56 -24.5q-26 -10 -41 -17.5t-25 -18t-10 -24.5q13 -23 88 -35.5t231 -18t428 -5.5l3 -5l-21 -44q-298 0 -458 8zM228 459q-80 -10 -189 -14l-4 39q37 0 57 1q-15 14 -22 31.5t-7 36.5q0 34 22 55t57 21q29 0 66 -14l-11 -38q-30 11 -51 11
q-19 0 -31 -11.5t-12 -30.5q0 -17 11 -32.5t30 -25.5q54 4 80 7z" />
    <glyph glyph-name="uni0640" unicode="&#x640;" horiz-adv-x="80" 
d="M13 49h87q14 0 20 -4.5t6 -13.5q0 -13 -12.5 -22t-33.5 -9h-80z" />
    <glyph glyph-name="zero" unicode="0" horiz-adv-x="540" 
d="M39 322q0 120 32.5 195t86 108.5t119.5 33.5q113 0 168.5 -89t55.5 -249q0 -178 -65.5 -255t-171.5 -77q-225 0 -225 333zM399 103q46 68 46 219q0 146 -42.5 218.5t-129.5 72.5q-83 0 -130.5 -70t-47.5 -221q0 -146 42.5 -216.5t131.5 -70.5q84 0 130 68z" />
    <glyph glyph-name="one" unicode="1" horiz-adv-x="540" 
d="M316 47h139v-47h-367v47h174v540l-155 -94l-22 31l177 124h54v-601z" />
    <glyph glyph-name="two" unicode="2" horiz-adv-x="540" 
d="M466 47v-47h-412v31q129 122 198 194t107 132.5t38 112.5q0 67 -37 103.5t-103 36.5q-48 0 -90 -21.5t-83 -56.5l-30 34q48 44 98.5 68.5t110.5 24.5q57 0 100 -22.5t66.5 -63.5t23.5 -96q0 -61 -38.5 -125.5t-101 -130.5t-175.5 -174h328z" />
    <glyph glyph-name="three" unicode="3" horiz-adv-x="540" 
d="M418.5 290q38.5 -43 38.5 -105q0 -59 -27.5 -103.5t-78.5 -68.5t-120 -24q-48 0 -92 10t-77 26l18 41q74 -31 150 -31q50 0 88.5 17.5t60 50t21.5 78.5q0 65 -44.5 101t-134.5 36h-51l4 45h67q74 18 111.5 54t37.5 92q0 30 -14.5 54t-45.5 38t-78 14q-45 0 -82 -16
t-78 -48l-30 33q43 37 90.5 56.5t102.5 19.5q62 0 105 -20.5t64 -55t21 -76.5q0 -58 -36 -98.5t-98 -61.5q69 -15 107.5 -58z" />
    <glyph glyph-name="four" unicode="4" horiz-adv-x="540" 
d="M498 203v-48h-102v-155h-55v155h-300v32l190 461h60l-187 -445h237l9 236h46v-236h102z" />
    <glyph glyph-name="five" unicode="5" horiz-adv-x="540" 
d="M370 376.5q49 -23.5 74 -68.5t25 -107q0 -66 -28 -113t-80.5 -72t-124.5 -25q-95 0 -165 35l19 42q69 -31 145 -31q52 0 92.5 18.5t63 54.5t22.5 86q0 77 -41 117t-133 40q-61 0 -108 -15l-24 21v289h345l-6 -46h-287v-215q23 6 48 9.5t44 3.5q70 0 119 -23.5z" />
    <glyph glyph-name="six" unicode="6" horiz-adv-x="540" 
d="M393.5 386.5q42.5 -21.5 68 -68t25.5 -117.5t-30 -118.5t-79.5 -70.5t-106.5 -23q-68 0 -115 32.5t-70 91t-23 137.5q0 129 33 221.5t92 140t137 47.5q31 0 58 -5t62 -17l-13 -43q-57 19 -110 19q-86 0 -137.5 -73.5t-64.5 -200.5q83 69 179 69q52 0 94.5 -21.5z
M356.5 54q36.5 19 57 55.5t20.5 86.5q0 89 -36.5 128t-109.5 39q-48 0 -87 -18t-84 -56q-1 -13 -1 -39q0 -108 41 -161.5t117 -53.5q46 0 82.5 19z" />
    <glyph glyph-name="seven" unicode="7" horiz-adv-x="540" 
d="M473 648v-29q-114 -165 -175.5 -310t-90.5 -309h-57q29 157 89 300.5t168 300.5h-340l6 47h400z" />
    <glyph glyph-name="eight" unicode="8" horiz-adv-x="540" 
d="M418.5 295.5q35.5 -23.5 55 -55.5t19.5 -77q0 -54 -26 -93.5t-76 -60t-119 -20.5t-120 21.5t-78 61.5t-27 92q0 61 39.5 105t126.5 76q-60 27 -96.5 64t-36.5 94q0 47 24.5 82.5t68.5 54.5t101 19q61 0 103.5 -22t63 -57t20.5 -74q0 -53 -36.5 -92.5t-101.5 -69.5
q60 -25 95.5 -48.5zM149 446q16 -23 46 -41.5t82 -40.5q60 23 95.5 58.5t35.5 77.5q0 53 -36 84t-100 31q-42 0 -73.5 -14t-48.5 -39.5t-17 -59.5q0 -33 16 -56zM364 50.5q37 15.5 55.5 43.5t18.5 65q0 41 -19.5 68.5t-55.5 48.5t-104 50q-80 -28 -118.5 -66t-38.5 -90
q0 -41 21.5 -71.5t60.5 -47t89 -16.5q54 0 91 15.5z" />
    <glyph glyph-name="nine" unicode="9" horiz-adv-x="540" 
d="M382.5 626.5q47.5 -32.5 71 -91t23.5 -137.5q0 -131 -32 -223t-91 -139t-139 -47q-32 0 -61 5t-61 17l14 43q53 -20 111 -20q87 0 138 70.5t64 197.5q-42 -36 -86 -53.5t-94 -17.5q-53 0 -95 22t-67 70t-25 122q0 70 30.5 118.5t79 72t103.5 23.5q69 0 116.5 -32.5z
M339 294.5q40 18.5 85 56.5q1 15 1 47q0 108 -41.5 162t-118.5 54q-46 0 -82.5 -19.5t-57 -57t-20.5 -89.5q0 -91 36.5 -131.5t110.5 -40.5q47 0 87 18.5z" />
    <glyph glyph-name="zero.osf" horiz-adv-x="572" 
d="M157 23.5q-49 34.5 -72 90.5t-23 123q0 83 31.5 138.5t84 82.5t115.5 27q73 0 121.5 -34t72 -90.5t23.5 -124.5q0 -82 -30.5 -137.5t-82.5 -82.5t-117 -27q-74 0 -123 34.5zM375.5 58q38.5 24 59 70t20.5 109q0 60 -18 106t-55.5 72t-92.5 26q-52 0 -91 -23.5t-60.5 -69
t-21.5 -111.5q0 -58 18.5 -104t56.5 -72.5t94 -26.5q52 0 90.5 24z" />
    <glyph glyph-name="one.osf" horiz-adv-x="411" 
d="M261 45h130v-45h-345v45h163v370l-143 -88l-22 30l165 116h52v-428z" />
    <glyph glyph-name="two.osf" horiz-adv-x="443" 
d="M397 45v-45h-364v28q119 90 178.5 140.5t87.5 91t28 81.5q0 47 -31 72.5t-86 25.5q-44 0 -79 -16t-70 -45l-31 33q42 37 86 55.5t101 18.5q49 0 86.5 -16.5t58 -48.5t20.5 -75q0 -48 -28.5 -93t-82.5 -92t-148 -115h274z" />
    <glyph glyph-name="three.osf" horiz-adv-x="458" 
d="M361.5 135q35.5 -41 35.5 -100q0 -56 -25 -98.5t-71.5 -65.5t-109.5 -23q-82 0 -148 33l18 41q33 -14 63.5 -21.5t65.5 -7.5q44 0 78.5 16.5t54 47.5t19.5 74q0 61 -40.5 95t-121.5 34h-48l4 43h65q64 18 97.5 52.5t33.5 86.5q0 43 -30.5 71t-91.5 28q-42 0 -77 -15
t-71 -45l-30 31q39 35 83.5 54t97.5 19q57 0 96 -19.5t58 -52t19 -71.5q0 -55 -33 -93.5t-90 -59.5q63 -13 98.5 -54z" />
    <glyph glyph-name="four.osf" horiz-adv-x="507" 
d="M470 46v-46h-99v-141h-53v141h-271v31l179 443h56l-177 -428h213l9 229h44v-229h99z" />
    <glyph glyph-name="five.osf" horiz-adv-x="446" 
d="M310 215.5q44 -22.5 66.5 -65.5t22.5 -102q0 -61 -24.5 -106.5t-71 -69.5t-111.5 -24q-87 0 -150 33l18 40q30 -14 61 -21t67 -7q46 0 81.5 17.5t55 51.5t19.5 82q0 73 -37 111.5t-120 38.5q-49 0 -90 -13l-23 18v275h311l-6 -45h-253v-202q41 11 79 11q61 0 105 -22.5z
" />
    <glyph glyph-name="six.osf" horiz-adv-x="527" 
d="M378 368.5q40 -20.5 64 -65t24 -111.5q0 -68 -29 -113.5t-75.5 -67.5t-100.5 -22q-64 0 -108 31t-66 87t-22 131q0 123 31 211t87 133t130 45q29 0 54.5 -5t59.5 -16l-13 -42q-51 18 -104 18q-80 0 -128.5 -69.5t-60.5 -188.5q77 65 168 65q49 0 89 -20.5zM342 52
q34 18 53.5 53t19.5 82q0 83 -34.5 120t-103.5 37q-44 0 -80 -16.5t-79 -52.5q-1 -12 -1 -37q0 -102 38.5 -153t108.5 -51q44 0 78 18z" />
    <glyph glyph-name="seven.osf" horiz-adv-x="420" 
d="M400 474v-27q-106 -159 -163 -296.5t-84 -291.5h-57q26 148 82.5 284t158.5 286h-317l7 45h373z" />
    <glyph glyph-name="eight.osf" horiz-adv-x="533" 
d="M406 281q34 -23 52 -53t18 -73q0 -52 -24.5 -89t-71 -57t-111.5 -20t-113 20.5t-73.5 58t-25.5 87.5q0 57 37 99t119 73q-55 25 -89.5 61t-34.5 90q0 45 23 78.5t64.5 52t94.5 18.5q57 0 96.5 -21t58.5 -54t19 -71q0 -51 -33.5 -87.5t-95.5 -64.5q56 -25 90 -48z
M154.5 425q14.5 -22 42.5 -39.5t75 -37.5q57 22 89.5 55t32.5 73q0 51 -33 79.5t-92 28.5t-94 -28.5t-35 -77.5q0 -31 14.5 -53zM354.5 48q34.5 15 51.5 41.5t17 60.5q0 38 -18 64.5t-52.5 47t-95.5 46.5q-75 -27 -111 -62t-36 -86q0 -38 20 -67t56.5 -44.5t83.5 -15.5
q50 0 84.5 15z" />
    <glyph glyph-name="nine.osf" horiz-adv-x="527" 
d="M372.5 453.5q44.5 -30.5 66.5 -86t22 -130.5q0 -125 -30 -212.5t-85.5 -132t-131.5 -44.5q-29 0 -56.5 5.5t-59.5 16.5l13 42q57 -19 106 -19q81 0 128.5 66.5t59.5 184.5q-77 -66 -168 -66q-49 0 -89 21t-64 66.5t-24 114.5q0 67 28.5 113t75 68.5t99.5 22.5
q65 0 109.5 -30.5zM331.5 141q37.5 17 77.5 52q1 14 1 44q0 101 -38.5 151.5t-109.5 50.5q-44 0 -78 -18.5t-53 -53.5t-19 -84q0 -84 34.5 -121.5t103.5 -37.5q44 0 81.5 17z" />
    <glyph glyph-name="zero.dnom" horiz-adv-x="360" 
d="M60.5 45q-38.5 53 -38.5 154q0 112 46.5 160.5t116.5 48.5q76 0 114.5 -53.5t38.5 -156.5q0 -111 -45.5 -158.5t-116.5 -47.5q-77 0 -115.5 53zM257.5 74.5q27.5 38.5 27.5 124.5q0 83 -25 124.5t-78 41.5q-107 0 -107 -166q0 -82 25 -122.5t79 -40.5q51 0 78.5 38.5z
" />
    <glyph glyph-name="one.dnom" horiz-adv-x="360" 
d="M168 400h51v-400h-51v346l-96 -51l-21 29z" />
    <glyph glyph-name="two.dnom" horiz-adv-x="360" 
d="M316 43v-43h-272v26q83 77 126 121t65 78t22 63q0 36 -21.5 56t-59.5 20q-28 0 -53.5 -12t-50.5 -33l-28 32q31 27 65 42t74 15q38 0 67 -13.5t45 -39t16 -60.5t-21.5 -71.5t-60 -77t-106.5 -103.5h193z" />
    <glyph glyph-name="three.dnom" horiz-adv-x="360" 
d="M292.5 179.5q24.5 -26.5 24.5 -63.5q0 -36 -18 -64t-53 -44t-84 -16q-60 0 -114 23l17 39q44 -19 94 -19q48 0 76.5 21t28.5 58q0 36 -27.5 56t-85.5 20h-34l4 39h47q45 12 67 32t22 50q0 24 -20.5 39.5t-62.5 15.5q-29 0 -54 -9.5t-50 -27.5l-28 30q60 49 135 49
q43 0 73 -13t44.5 -34.5t14.5 -48.5q0 -34 -22.5 -58.5t-61.5 -37.5q43 -10 67.5 -36.5z" />
    <glyph glyph-name="four.dnom" horiz-adv-x="360" 
d="M337 136v-43h-64v-93h-51v93h-200v27l125 280h57l-122 -264h140l8 130h43v-130h64z" />
    <glyph glyph-name="five.dnom" horiz-adv-x="360" 
d="M278.5 215.5q38.5 -32.5 38.5 -90.5q0 -39 -18 -68.5t-54 -46t-87 -16.5q-64 0 -115 22l17 39q43 -18 95 -18q51 0 80 22.5t29 61.5q0 42 -25 64.5t-84 22.5q-40 0 -66 -8l-21 17v183h238l-6 -42h-183v-116q27 6 53 6q70 0 108.5 -32.5z" />
    <glyph glyph-name="six.dnom" horiz-adv-x="360" 
d="M263 242.5q29 -13.5 46 -42.5t17 -73q0 -46 -21.5 -76.5t-55 -44.5t-71.5 -14q-70 0 -107 44.5t-37 120.5q0 81 23 137.5t63.5 85t93.5 28.5q41 0 83 -14l-12 -38q-38 12 -73 12q-53 0 -83.5 -40.5t-40.5 -108.5q51 37 111 37q35 0 64 -13.5zM250 58q27 24 27 66
q0 48 -22.5 70.5t-67.5 22.5q-28 0 -51.5 -9t-51.5 -28v-23q0 -62 24.5 -92.5t71.5 -30.5q43 0 70 24z" />
    <glyph glyph-name="seven.dnom" horiz-adv-x="360" 
d="M320 400v-24q-75 -99 -116 -189t-58 -187h-54q16 91 56 178.5t110 179.5h-218l6 42h274z" />
    <glyph glyph-name="eight.dnom" horiz-adv-x="360" 
d="M307.5 166.5q25.5 -24.5 25.5 -64.5q0 -51 -40 -80.5t-112 -29.5q-48 0 -83 13.5t-53.5 38t-18.5 57.5q0 35 25 62t80 48q-37 18 -59.5 41.5t-22.5 57.5q0 30 17 52.5t47.5 34t68.5 11.5q42 0 71 -13.5t43.5 -35t14.5 -46.5q0 -31 -22.5 -55.5t-61.5 -42.5
q55 -24 80.5 -48.5zM119.5 267q20.5 -17 68.5 -37q34 14 54 35t20 43q0 29 -21.5 45t-59.5 16t-60 -16t-22 -44q0 -25 20.5 -42zM255.5 52q25.5 19 25.5 49q0 22 -12 37.5t-34.5 27t-64.5 28.5q-92 -33 -92 -87q0 -33 28 -53.5t75 -20.5q49 0 74.5 19z" />
    <glyph glyph-name="nine.dnom" horiz-adv-x="360" 
d="M288.5 364q37.5 -44 37.5 -120q0 -82 -22 -138.5t-62.5 -85t-95.5 -28.5q-40 0 -85 15l13 37q36 -12 73 -12q54 0 84.5 39t40.5 106q-51 -37 -111 -37q-36 0 -64.5 14t-45.5 44t-17 76t21 76t54.5 44t71.5 14q70 0 107.5 -44zM224.5 189q23.5 9 50.5 28q1 8 1 26
q0 63 -24.5 93.5t-71.5 30.5q-44 0 -70.5 -23.5t-26.5 -67.5q0 -49 22 -72.5t68 -23.5q28 0 51.5 9z" />
    <glyph glyph-name="zero.numr" horiz-adv-x="360" 
d="M60.5 262q-38.5 53 -38.5 154q0 112 46.5 160.5t116.5 48.5q76 0 114.5 -53.5t38.5 -156.5q0 -111 -45.5 -158.5t-116.5 -47.5q-77 0 -115.5 53zM257.5 291.5q27.5 38.5 27.5 124.5q0 83 -25 124.5t-78 41.5q-107 0 -107 -166q0 -82 25 -122.5t79 -40.5q51 0 78.5 38.5z
" />
    <glyph glyph-name="one.numr" horiz-adv-x="360" 
d="M168 617h51v-400h-51v346l-96 -51l-21 29z" />
    <glyph glyph-name="two.numr" horiz-adv-x="360" 
d="M316 260v-43h-272v26q83 77 126 121t65 78t22 63q0 36 -21.5 56t-59.5 20q-28 0 -53.5 -12t-50.5 -33l-28 32q31 27 65 42t74 15q38 0 67 -13.5t45 -39t16 -60.5t-21.5 -71.5t-60 -77t-106.5 -103.5h193z" />
    <glyph glyph-name="three.numr" horiz-adv-x="360" 
d="M292.5 396.5q24.5 -26.5 24.5 -63.5q0 -36 -18 -64t-53 -44t-84 -16q-60 0 -114 23l17 39q44 -19 94 -19q48 0 76.5 21t28.5 58q0 36 -27.5 56t-85.5 20h-34l4 39h47q45 12 67 32t22 50q0 24 -20.5 39.5t-62.5 15.5q-29 0 -54 -9.5t-50 -27.5l-28 30q60 49 135 49
q43 0 73 -13t44.5 -34.5t14.5 -48.5q0 -34 -22.5 -58.5t-61.5 -37.5q43 -10 67.5 -36.5z" />
    <glyph glyph-name="four.numr" horiz-adv-x="360" 
d="M337 353v-43h-64v-93h-51v93h-200v27l125 280h57l-122 -264h140l8 130h43v-130h64z" />
    <glyph glyph-name="five.numr" horiz-adv-x="360" 
d="M278.5 432.5q38.5 -32.5 38.5 -90.5q0 -39 -18 -68.5t-54 -46t-87 -16.5q-64 0 -115 22l17 39q43 -18 95 -18q51 0 80 22.5t29 61.5q0 42 -25 64.5t-84 22.5q-40 0 -66 -8l-21 17v183h238l-6 -42h-183v-116q27 6 53 6q70 0 108.5 -32.5z" />
    <glyph glyph-name="six.numr" horiz-adv-x="360" 
d="M263 459.5q29 -13.5 46 -42.5t17 -73q0 -46 -21.5 -76.5t-55 -44.5t-71.5 -14q-70 0 -107 44.5t-37 120.5q0 81 23 137.5t63.5 85t93.5 28.5q41 0 83 -14l-12 -38q-38 12 -73 12q-53 0 -83.5 -40.5t-40.5 -108.5q51 37 111 37q35 0 64 -13.5zM250 275q27 24 27 66
q0 48 -22.5 70.5t-67.5 22.5q-28 0 -51.5 -9t-51.5 -28v-23q0 -62 24.5 -92.5t71.5 -30.5q43 0 70 24z" />
    <glyph glyph-name="seven.numr" horiz-adv-x="360" 
d="M320 617v-24q-75 -99 -116 -189t-58 -187h-54q16 91 56 178.5t110 179.5h-218l6 42h274z" />
    <glyph glyph-name="eight.numr" horiz-adv-x="360" 
d="M307.5 383.5q25.5 -24.5 25.5 -64.5q0 -51 -40 -80.5t-112 -29.5q-48 0 -83 13.5t-53.5 38t-18.5 57.5q0 35 25 62t80 48q-37 18 -59.5 41.5t-22.5 57.5q0 30 17 52.5t47.5 34t68.5 11.5q42 0 71 -13.5t43.5 -35t14.5 -46.5q0 -31 -22.5 -55.5t-61.5 -42.5
q55 -24 80.5 -48.5zM119.5 484q20.5 -17 68.5 -37q34 14 54 35t20 43q0 29 -21.5 45t-59.5 16t-60 -16t-22 -44q0 -25 20.5 -42zM255.5 269q25.5 19 25.5 49q0 22 -12 37.5t-34.5 27t-64.5 28.5q-92 -33 -92 -87q0 -33 28 -53.5t75 -20.5q49 0 74.5 19z" />
    <glyph glyph-name="nine.numr" horiz-adv-x="360" 
d="M288.5 581q37.5 -44 37.5 -120q0 -82 -22 -138.5t-62.5 -85t-95.5 -28.5q-40 0 -85 15l13 37q36 -12 73 -12q54 0 84.5 39t40.5 106q-51 -37 -111 -37q-36 0 -64.5 14t-45.5 44t-17 76t21 76t54.5 44t71.5 14q70 0 107.5 -44zM224.5 406q23.5 9 50.5 28q1 8 1 26
q0 63 -24.5 93.5t-71.5 30.5q-44 0 -70.5 -23.5t-26.5 -67.5q0 -49 22 -72.5t68 -23.5q28 0 51.5 9z" />
    <glyph glyph-name="onesuperior" unicode="&#xb9;" horiz-adv-x="360" 
d="M168 688h51v-400h-51v346l-96 -51l-21 29z" />
    <glyph glyph-name="twosuperior" unicode="&#xb2;" horiz-adv-x="360" 
d="M316 331v-43h-272v26q83 77 126 121t65 78t22 63q0 36 -21.5 56t-59.5 20q-28 0 -53.5 -12t-50.5 -33l-28 32q31 27 65 42t74 15q38 0 67 -13.5t45 -39t16 -60.5t-21.5 -71.5t-60 -77t-106.5 -103.5h193z" />
    <glyph glyph-name="threesuperior" unicode="&#xb3;" horiz-adv-x="360" 
d="M292.5 467.5q24.5 -26.5 24.5 -63.5q0 -36 -18 -64t-53 -44t-84 -16q-60 0 -114 23l17 39q44 -19 94 -19q48 0 76.5 21t28.5 58q0 36 -27.5 56t-85.5 20h-34l4 39h47q45 12 67 32t22 50q0 24 -20.5 39.5t-62.5 15.5q-29 0 -54 -9.5t-50 -27.5l-28 30q60 49 135 49
q43 0 73 -13t44.5 -34.5t14.5 -48.5q0 -34 -22.5 -58.5t-61.5 -37.5q43 -10 67.5 -36.5z" />
    <glyph glyph-name="fraction" unicode="&#x2044;" horiz-adv-x="219" 
d="M-108 -80l-40 21l477 788l38 -21z" />
    <glyph glyph-name="onehalf" unicode="&#xbd;" horiz-adv-x="889" 
d="M168 617h51v-400h-51v346l-96 -51l-21 29zM232 -80l-40 21l477 788l38 -21zM845 43v-43h-272v26q83 77 126 121t65 78t22 63q0 36 -21.5 56t-59.5 20q-28 0 -53.5 -12t-50.5 -33l-28 32q31 27 65 42t74 15q38 0 67 -13.5t45 -39t16 -60.5t-21.5 -71.5t-60 -77
t-106.5 -103.5h193z" />
    <glyph glyph-name="onequarter" unicode="&#xbc;" horiz-adv-x="849" 
d="M168 617h51v-400h-51v346l-96 -51l-21 29zM232 -80l-40 21l477 788l38 -21zM826 136v-43h-64v-93h-51v93h-200v27l125 280h57l-122 -264h140l8 130h43v-130h64z" />
    <glyph glyph-name="threequarters" unicode="&#xbe;" horiz-adv-x="869" 
d="M292.5 396.5q24.5 -26.5 24.5 -63.5q0 -36 -18 -64t-53 -44t-84 -16q-60 0 -114 23l17 39q44 -19 94 -19q48 0 76.5 21t28.5 58q0 36 -27.5 56t-85.5 20h-34l4 39h47q45 12 67 32t22 50q0 24 -20.5 39.5t-62.5 15.5q-29 0 -54 -9.5t-50 -27.5l-28 30q60 49 135 49
q43 0 73 -13t44.5 -34.5t14.5 -48.5q0 -34 -22.5 -58.5t-61.5 -37.5q43 -10 67.5 -36.5zM252 -80l-40 21l477 788l38 -21zM846 136v-43h-64v-93h-51v93h-200v27l125 280h57l-122 -264h140l8 130h43v-130h64z" />
    <glyph glyph-name="uni066B" unicode="&#x66b;" horiz-adv-x="240" 
d="M28 -119q22 30 34 56.5t12 43.5q0 7 -3.5 11t-9.5 8q-9 6 -13 12t-4 19q0 17 11 28t27 11q17 0 29 -12.5t12 -37.5q0 -31 -16.5 -72t-48.5 -82z" />
    <glyph glyph-name="uni066C" unicode="&#x66c;" horiz-adv-x="215" 
d="M22 -95q18 23 27.5 44.5t9.5 35.5q0 8 -7 13t-12 10.5t-5 16.5q0 13 9 22t22 9t22.5 -10t9.5 -30q0 -24 -13 -57t-39 -66z" />
    <glyph glyph-name="uni0660" unicode="&#x660;" horiz-adv-x="461" 
d="M214.5 217q-8.5 8 -14.5 13q-6 8 -15 15l39 43q27 -22 52 -50l-40 -41z" />
    <glyph glyph-name="uni0660.pnum" horiz-adv-x="272" 
d="M119.5 217q-8.5 8 -14.5 13q-6 7 -15 15l39 43q28 -21 53 -50l-41 -41z" />
    <glyph glyph-name="uni0661" unicode="&#x661;" horiz-adv-x="461" 
d="M242 -9q-11 130 -29.5 282.5t-38.5 254.5l41 29l7 -2q15 -77 29 -191t23 -218t9 -147l-34 -10z" />
    <glyph glyph-name="uni0661.pnum" horiz-adv-x="249" 
d="M138 -9q-11 130 -29.5 282.5t-38.5 254.5l41 29l7 -2q15 -77 29 -191t23 -218t9 -147l-34 -10z" />
    <glyph glyph-name="uni0662" unicode="&#x662;" horiz-adv-x="461" 
d="M420 547q-5 -89 -45.5 -126t-105.5 -37q-57 0 -113 24q16 -114 27 -236.5t11 -172.5l-34 -10l-7 2q-11 130 -29.5 282.5t-38.5 254.5l41 29l7 -2q13 -74 16 -93q24 -14 56 -22t63 -8q33 0 55.5 9t38 35t20.5 75z" />
    <glyph glyph-name="uni0662.pnum" horiz-adv-x="412" 
d="M402 547q-6 -90 -46 -126.5t-106 -36.5q-57 0 -108 23q16 -120 27 -241t10 -167l-34 -10l-7 2q-11 130 -29.5 282.5t-38.5 254.5l41 29l7 -2q7 -32 16 -96q25 -12 55.5 -19.5t60.5 -7.5q32 0 54.5 9t38 35t20.5 75z" />
    <glyph glyph-name="uni0663" unicode="&#x663;" horiz-adv-x="461" 
d="M423.5 500.5q6.5 -26.5 6.5 -47.5q0 -43 -25 -68.5t-65 -25.5q-25 0 -46.5 9t-32.5 26q-17 -38 -64 -38q-36 0 -63 23q14 -111 24 -222.5t10 -157.5l-34 -10l-7 2q-11 130 -29.5 282.5t-38.5 254.5l41 29l7 -2q8 -40 19 -117q11 -16 27.5 -25t35.5 -9t29.5 10t16.5 34.5
t12 75.5l41 -6q0 -5 -1 -11.5l-2 -13.5q-1 -6 -3 -21.5t-2 -22.5q0 -20 13.5 -31t39.5 -11q55 0 55 51q0 30 -20 82l35 16q14 -29 20.5 -55.5z" />
    <glyph glyph-name="uni0663.pnum" horiz-adv-x="451" 
d="M434.5 500.5q6.5 -26.5 6.5 -47.5q0 -43 -25 -68.5t-65 -25.5q-26 0 -47.5 9t-30.5 26q-19 -38 -65 -38q-36 0 -63 23q15 -114 25 -225.5t9 -154.5l-34 -10l-7 2q-11 130 -29.5 282.5t-38.5 254.5l41 29l7 -2q8 -40 19 -117q11 -16 27.5 -25t35.5 -9t29 10t16 34t13 76
l41 -6q0 -5 -1 -11.5l-2 -13.5q-1 -6 -3 -21.5t-2 -22.5q0 -20 14 -31t39 -11q29 0 42.5 13t13.5 37q0 29 -21 83l35 16q14 -29 20.5 -55.5z" />
    <glyph glyph-name="uni0664" unicode="&#x664;" horiz-adv-x="461" 
d="M410 58l-15 -44q-24 -8 -63.5 -13t-74.5 -5q-73 0 -116.5 28t-43.5 80q0 40 29 81.5t100 85.5q-61 13 -96 35.5t-35 57.5q0 33 27.5 70t83 69.5t134.5 51.5l5 -3l-10 -50q-66 -17 -109.5 -41t-63.5 -47.5t-20 -42.5q0 -18 26.5 -32.5t67.5 -23t82 -8.5l5 -6l-11 -35
q-52 -21 -90 -47t-58.5 -53.5t-20.5 -52.5q0 -36 35.5 -53t95.5 -17q27 0 63 5.5t71 13.5z" />
    <glyph glyph-name="uni0664.pnum" horiz-adv-x="395" 
d="M375 58l-15 -44q-24 -8 -63.5 -13t-74.5 -5q-73 0 -117 28t-44 80q0 40 29.5 81.5t100.5 85.5q-61 13 -96 35.5t-35 57.5q0 33 27.5 70t82.5 69.5t135 51.5l5 -3l-10 -50q-66 -17 -109.5 -41t-63.5 -47.5t-20 -42.5q0 -18 26.5 -32.5t67.5 -23t82 -8.5l4 -6l-10 -35
q-52 -21 -90.5 -47t-58.5 -53.5t-20 -52.5q0 -36 35.5 -53t95.5 -17q27 0 63 5.5t71 13.5z" />
    <glyph glyph-name="uni0665" unicode="&#x665;" horiz-adv-x="461" 
d="M101 51q-39 56 -39 146q0 71 21.5 133.5t60.5 100t89 37.5q49 0 88.5 -38t61.5 -100.5t22 -132.5q0 -90 -39.5 -146t-132.5 -56t-132 56zM357 189q0 56 -14.5 109t-43 87t-67.5 34t-67 -34t-42 -87t-14 -109q0 -62 26 -104t98 -42q124 0 124 146z" />
    <glyph glyph-name="uni0665.pnum" horiz-adv-x="463" 
d="M99 50.5q-39 55.5 -39 146.5q0 71 21.5 133.5t61 100t88.5 37.5q50 0 89 -38t61 -100.5t22 -132.5q0 -90 -39.5 -146t-132.5 -56t-132 55.5zM329.5 85.5q26.5 42.5 26.5 103.5q0 56 -14.5 109t-43.5 87t-68 34t-67 -34t-42 -87t-14 -109q0 -62 26 -104t98 -42t98.5 42.5z
" />
    <glyph glyph-name="uni0666" unicode="&#x666;" horiz-adv-x="461" 
d="M347 270.5q20 -146.5 41 -259.5l-40 -20l-8 2l-7 41q-46 257 -53 454q-31 -3 -67 -3q-48 0 -96.5 4.5t-81.5 12.5l5 42l5 5q86 -15 189 -15q46 0 90 3q3 -120 23 -266.5z" />
    <glyph glyph-name="uni0666.pnum" horiz-adv-x="429" 
d="M342 264.5q21 -151.5 41 -253.5l-41 -20l-8 2q-3 17 -6 38q-45 253 -53 457q-31 -3 -68 -3q-48 0 -96.5 4.5t-80.5 12.5l4 42l5 5q86 -15 189 -15q46 0 90 3q3 -121 24 -272.5z" />
    <glyph glyph-name="uni0667" unicode="&#x667;" horiz-adv-x="461" 
d="M407 555l37 -31l-193 -525l-51 -6l-184 540l43 22h6l161 -501l174 500z" />
    <glyph glyph-name="uni0667.pnum" horiz-adv-x="462" 
d="M408 555l37 -31l-193 -525l-51 -6l-184 540l43 22h6l160 -501l175 500z" />
    <glyph glyph-name="uni0668" unicode="&#x668;" horiz-adv-x="461" 
d="M260 555l184 -540l-43 -21h-6l-160 500l-174 -500l-7 -1l-38 31l194 525z" />
    <glyph glyph-name="uni0668.pnum" horiz-adv-x="462" 
d="M261 555l184 -540l-43 -21h-6l-161 500l-174 -500l-7 -1l-37 31l193 525z" />
    <glyph glyph-name="uni0669" unicode="&#x669;" horiz-adv-x="461" 
d="M382 151.5q12 -79.5 25 -142.5l-40 -18l-8 2q-11 58 -22.5 136.5t-18.5 142.5q-47 -16 -95 -16q-64 0 -104 28t-40 87q0 44 20.5 86t55.5 68.5t74 26.5q66 0 96 -65.5t39 -176.5q6 -79 18 -158.5zM153.5 321.5q26.5 -16.5 75.5 -16.5q21 0 41 4t43 11q-6 55 -15 94
t-27 63.5t-47 24.5q-26 0 -48.5 -19t-35.5 -48.5t-13 -58.5q0 -38 26.5 -54.5z" />
    <glyph glyph-name="uni0669.pnum" horiz-adv-x="383" 
d="M313 151.5q12 -79.5 25 -142.5l-40 -18l-8 2q-11 58 -22.5 136.5t-18.5 142.5q-47 -16 -95 -16q-64 0 -104 28t-40 87q0 44 20.5 86t55.5 68.5t74 26.5q66 0 96 -65.5t39 -176.5q6 -79 18 -158.5zM84.5 321.5q26.5 -16.5 76.5 -16.5q36 0 83 15q-6 55 -15 94t-27 63.5
t-47 24.5q-26 0 -48.5 -19t-35.5 -48.5t-13 -58.5q0 -38 26.5 -54.5z" />
    <glyph glyph-name="uni06F0" unicode="&#x6f0;" horiz-adv-x="461" 
d="M214.5 217q-8.5 8 -14.5 13q-6 8 -15 15l39 43q27 -22 52 -50l-40 -41z" />
    <glyph glyph-name="uni06F0.pnum" horiz-adv-x="272" 
d="M119.5 217q-8.5 8 -14.5 13q-6 7 -15 15l39 43q28 -21 53 -50l-41 -41z" />
    <glyph glyph-name="uni06F1" unicode="&#x6f1;" horiz-adv-x="461" 
d="M242 -9q-11 130 -29.5 282.5t-38.5 254.5l41 29l7 -2q15 -77 29 -191t23 -218t9 -147l-34 -10z" />
    <glyph glyph-name="uni06F1.pnum" horiz-adv-x="249" 
d="M138 -9q-11 130 -29.5 282.5t-38.5 254.5l41 29l7 -2q15 -77 29 -191t23 -218t9 -147l-34 -10z" />
    <glyph glyph-name="uni06F2" unicode="&#x6f2;" horiz-adv-x="461" 
d="M420 547q-5 -89 -45.5 -126t-105.5 -37q-57 0 -113 24q16 -114 27 -236.5t11 -172.5l-34 -10l-7 2q-11 130 -29.5 282.5t-38.5 254.5l41 29l7 -2q13 -74 16 -93q24 -14 56 -22t63 -8q33 0 55.5 9t38 35t20.5 75z" />
    <glyph glyph-name="uni06F2.pnum" horiz-adv-x="412" 
d="M402 547q-6 -90 -46 -126.5t-106 -36.5q-57 0 -108 23q16 -120 27 -241t10 -167l-34 -10l-7 2q-11 130 -29.5 282.5t-38.5 254.5l41 29l7 -2q7 -32 16 -96q25 -12 55.5 -19.5t60.5 -7.5q32 0 54.5 9t38 35t20.5 75z" />
    <glyph glyph-name="uni06F3" unicode="&#x6f3;" horiz-adv-x="461" 
d="M423.5 500.5q6.5 -26.5 6.5 -47.5q0 -43 -25 -68.5t-65 -25.5q-25 0 -46.5 9t-32.5 26q-17 -38 -64 -38q-36 0 -63 23q14 -111 24 -222.5t10 -157.5l-34 -10l-7 2q-11 130 -29.5 282.5t-38.5 254.5l41 29l7 -2q8 -40 19 -117q11 -16 27.5 -25t35.5 -9t29.5 10t16.5 34.5
t12 75.5l41 -6q0 -5 -1 -11.5l-2 -13.5q-1 -6 -3 -21.5t-2 -22.5q0 -20 13.5 -31t39.5 -11q55 0 55 51q0 30 -20 82l35 16q14 -29 20.5 -55.5z" />
    <glyph glyph-name="uni06F3.pnum" horiz-adv-x="451" 
d="M434.5 500.5q6.5 -26.5 6.5 -47.5q0 -43 -25 -68.5t-65 -25.5q-26 0 -47.5 9t-30.5 26q-19 -38 -65 -38q-36 0 -63 23q15 -114 25 -225.5t9 -154.5l-34 -10l-7 2q-11 130 -29.5 282.5t-38.5 254.5l41 29l7 -2q8 -40 19 -117q11 -16 27.5 -25t35.5 -9t29 10t16 34t13 76
l41 -6q0 -5 -1 -11.5l-2 -13.5q-1 -6 -3 -21.5t-2 -22.5q0 -20 14 -31t39 -11q29 0 42.5 13t13.5 37q0 29 -21 83l35 16q14 -29 20.5 -55.5z" />
    <glyph glyph-name="uni06F4" unicode="&#x6f4;" horiz-adv-x="461" 
d="M276 307q-49 0 -143 16q12 -105 20 -196t7 -128l-34 -10l-7 2q-11 130 -29.5 282.5t-38.5 254.5l41 29l6 -2q14 -71 29 -185l79 -11q-22 35 -22 74q0 37 15 64t41 41t57 14q30 0 56.5 -14t43.5 -40l-34 -28q-25 34 -69 34q-31 0 -49.5 -19t-18.5 -50q0 -22 8.5 -43
t24.5 -38q8 -1 23 -1q34 0 64 9.5t53 25.5l16 -37q-57 -44 -139 -44z" />
    <glyph glyph-name="uni06F4.pnum" horiz-adv-x="445" 
d="M296 307q-48 0 -144 16q12 -105 20 -196t7 -128l-34 -10l-7 2q-11 130 -29.5 282.5t-38.5 254.5l41 29l7 -2q16 -79 28 -185l79 -11q-22 35 -22 74q0 37 15 64t41 41t57 14q30 0 56.5 -14t43.5 -40l-33 -28q-26 34 -69 34q-31 0 -50 -19t-19 -50q0 -22 9 -43t25 -38
q8 -1 22 -1q65 0 118 35l16 -37q-58 -44 -139 -44z" />
    <glyph glyph-name="uni06F4.urdu" horiz-adv-x="461" 
d="M414 544q-48 -123 -68 -250h-33q-28 116 -64.5 162t-75.5 46q-21 0 -35 -16.5t-14 -38.5q0 -20 4.5 -44t15.5 -65q29 -105 41.5 -172t19.5 -156l-37 -16l-8 2q-6 74 -19 147t-36 161q-13 52 -18 79t-5 47q0 35 13.5 62.5t36 43.5t48.5 16q28 0 55.5 -18t51.5 -53.5
t39 -87.5q6 42 15.5 77t26.5 85l7 3z" />
    <glyph glyph-name="uni06F4.urdu.pnum" horiz-adv-x="383" 
d="M373 544q-50 -128 -69 -250h-32q-28 116 -65 162t-76 46q-21 0 -35 -16.5t-14 -38.5q0 -19 4.5 -42.5t16.5 -66.5q29 -105 41.5 -172t18.5 -156l-37 -16l-8 2q-6 73 -18.5 146t-35.5 162q-14 52 -19 79t-5 47q0 35 13.5 62.5t36 43.5t48.5 16q28 0 56 -18t51.5 -53.5
t38.5 -86.5q6 42 16 78t27 83l7 3z" />
    <glyph glyph-name="uni06F5" unicode="&#x6f5;" horiz-adv-x="461" 
d="M359.5 383q72.5 -99 72.5 -219q0 -51 -13.5 -89t-39 -59t-61.5 -21q-58 0 -89 66q-31 -66 -89 -66q-34 0 -59 18.5t-39 53t-14 82.5q0 90 49 178t119 162l-18 14.5t-22 16.5l28 37h10q93 -75 165.5 -174zM367.5 75.5q18.5 30.5 18.5 80.5q0 84 -46.5 163t-114.5 144
q-64 -64 -108.5 -147.5t-44.5 -165.5q0 -50 18.5 -77.5t50.5 -27.5q31 0 49 31t20 89h39l1 -14q3 -55 21 -80.5t46 -25.5q32 0 50.5 30.5z" />
    <glyph glyph-name="uni06F5.pnum" horiz-adv-x="524" 
d="M391.5 383q72.5 -99 72.5 -219q0 -51 -13.5 -89t-39 -59t-61.5 -21q-58 0 -89 66q-31 -66 -89 -66q-34 0 -59 18.5t-39 53t-14 82.5q0 90 49 178t119 162l-18 14.5t-22 16.5l28 37h10q93 -75 165.5 -174zM399.5 75.5q18.5 30.5 18.5 80.5q0 84 -46.5 163t-114.5 144
q-64 -64 -108.5 -147.5t-44.5 -165.5q0 -50 18.5 -77.5t50.5 -27.5q31 0 49 31t20 89h39l1 -14q3 -55 21 -80.5t46 -25.5q32 0 50.5 30.5z" />
    <glyph glyph-name="uni06F6" unicode="&#x6f6;" horiz-adv-x="461" 
d="M402 370l-6 -52q-77 -41 -126 -76.5t-91.5 -96.5t-69.5 -155l-37 8l-6 7q22 84 58.5 144t87.5 105q-54 27 -85 67t-31 85q0 41 19.5 74.5t53 52.5t73.5 19q34 0 63.5 -14t49.5 -40l-34 -29q-16 18 -37.5 26.5t-43.5 8.5q-30 0 -51.5 -13t-32.5 -35.5t-11 -49.5
q0 -36 28 -67.5t80 -52.5q29 22 62 41.5l80 45.5z" />
    <glyph glyph-name="uni06F6.pnum" horiz-adv-x="419" 
d="M379 370l-5 -52q-77 -41 -126 -76.5t-91.5 -96.5t-69.5 -155l-38 8l-6 7q22 84 58.5 143.5t88.5 104.5q-54 28 -85 68t-31 85q0 41 19.5 74.5t52.5 52.5t73 19q34 0 63.5 -14t49.5 -40l-33 -29q-17 18 -38.5 26.5t-43.5 8.5q-29 0 -50.5 -13t-33 -35.5t-11.5 -49.5
q0 -36 28.5 -67.5t80.5 -52.5q29 22 62 41.5l80 45.5z" />
    <glyph glyph-name="uni06F7" unicode="&#x6f7;" horiz-adv-x="461" 
d="M407 555l37 -31l-193 -525l-51 -6l-184 540l43 22h6l161 -501l174 500z" />
    <glyph glyph-name="uni06F7.pnum" horiz-adv-x="462" 
d="M408 555l37 -31l-193 -525l-51 -6l-184 540l43 22h6l160 -501l175 500z" />
    <glyph glyph-name="uni06F7.urdu" horiz-adv-x="461" 
d="M408 18q-25 -10 -73.5 -16.5t-100.5 -6.5q-76 0 -124 13.5t-48 40.5q0 53 27.5 132.5t86.5 176t146 194.5h8l31 -33q-79 -84 -134 -169.5t-83.5 -159.5t-34.5 -131q56 -16 126 -16q43 0 85.5 5.5t74.5 13.5l6 -3z" />
    <glyph glyph-name="uni06F7.urdu.pnum" horiz-adv-x="416" 
d="M386 18q-25 -10 -73.5 -16.5t-100.5 -6.5q-76 0 -124 13.5t-48 40.5q0 53 27.5 132.5t86.5 176t146 194.5h8l32 -33q-79 -84 -134 -169.5t-84 -159.5t-35 -131q58 -16 126 -16q43 0 85.5 5.5t74.5 13.5l6 -3z" />
    <glyph glyph-name="uni06F8" unicode="&#x6f8;" horiz-adv-x="461" 
d="M260 555l184 -540l-43 -21h-6l-160 500l-174 -500l-7 -1l-38 31l194 525z" />
    <glyph glyph-name="uni06F8.pnum" horiz-adv-x="462" 
d="M261 555l184 -540l-43 -21h-6l-161 500l-174 -500l-7 -1l-37 31l193 525z" />
    <glyph glyph-name="uni06F9" unicode="&#x6f9;" horiz-adv-x="461" 
d="M382 151.5q12 -79.5 25 -142.5l-40 -18l-8 2q-11 58 -22.5 136.5t-18.5 142.5q-47 -16 -95 -16q-64 0 -104 28t-40 87q0 44 20.5 86t55.5 68.5t74 26.5q66 0 96 -65.5t39 -176.5q6 -79 18 -158.5zM153.5 321.5q26.5 -16.5 75.5 -16.5q21 0 41 4t43 11q-6 55 -15 94
t-27 63.5t-47 24.5q-26 0 -48.5 -19t-35.5 -48.5t-13 -58.5q0 -38 26.5 -54.5z" />
    <glyph glyph-name="uni06F9.pnum" horiz-adv-x="392" 
d="M313 151.5q12 -79.5 25 -142.5l-40 -18l-8 2q-11 58 -22.5 136.5t-18.5 142.5q-47 -16 -95 -16q-64 0 -104 28t-40 87q0 44 20.5 86t55.5 68.5t74 26.5q66 0 96 -65.5t39 -176.5q6 -79 18 -158.5zM84.5 321.5q26.5 -16.5 76.5 -16.5q36 0 83 15q-6 55 -15 94t-27 63.5
t-47 24.5q-26 0 -48.5 -19t-35.5 -48.5t-13 -58.5q0 -38 26.5 -54.5z" />
    <glyph glyph-name="asterisk" unicode="*" horiz-adv-x="500" 
d="M436 532l-160 -38l105 -128l-47 -32l-84 138l-84 -138l-47 32l105 128l-160 38l18 53l151 -62l-12 165h57l-12 -165l152 62z" />
    <glyph glyph-name="backslash" unicode="\" horiz-adv-x="485" 
d="M386 -133l-334 886l46 15l335 -886z" />
    <glyph glyph-name="periodcentered" unicode="&#xb7;" horiz-adv-x="166" 
d="M55.5 223.5q-11.5 11.5 -11.5 27.5t11.5 27.5t27.5 11.5t28 -11.5t12 -27.5t-12 -27.5t-28 -11.5t-27.5 11.5z" />
    <glyph glyph-name="bullet" unicode="&#x2022;" horiz-adv-x="300" 
d="M105 199q-21 12 -33 32.5t-12 44.5t12.5 44.5t33 32.5t44.5 12t44.5 -12t33 -32.5t12.5 -44.5t-12.5 -44.5t-33 -32.5t-44.5 -12t-45 12z" />
    <glyph glyph-name="periodcentered.case" horiz-adv-x="166" 
d="M55.5 296.5q-11.5 11.5 -11.5 27.5t11.5 27.5t27.5 11.5t28 -11.5t12 -27.5t-12 -27.5t-28 -11.5t-27.5 11.5z" />
    <glyph glyph-name="exclamdown.case" horiz-adv-x="210" 
d="M77 588.5q-12 11.5 -12 27.5t12 27.5t28 11.5t27.5 -11.5t11.5 -27.5t-11.5 -27.5t-27.5 -11.5t-28 11.5zM75 0l11 462l41 4l10 -466h-62z" />
    <glyph glyph-name="questiondown.case" horiz-adv-x="440" 
d="M205 588.5q-12 11.5 -12 27.5t11.5 27.5t28.5 11.5q16 0 27.5 -11.5t11.5 -27.5t-11.5 -27.5t-27.5 -11.5t-28 11.5zM126 7.5q-39 18.5 -61.5 52t-22.5 76.5q0 45 17 76.5t62 64.5q49 37 69 74t20 92v15l50 5v-27q0 -61 -21 -103.5t-75 -83.5q-38 -30 -52 -53.5
t-14 -54.5t15.5 -54.5t43 -36.5t63.5 -13q43 0 82 18t77 49l31 -36q-44 -39 -92 -59t-104 -20q-49 0 -88 18.5z" />
    <glyph glyph-name="colon" unicode=":" horiz-adv-x="166" 
d="M55.5 3.5q-11.5 11.5 -11.5 27.5t11.5 27.5t27.5 11.5t28 -11.5t12 -27.5t-12 -27.5t-28 -11.5t-27.5 11.5zM55.5 313.5q-11.5 11.5 -11.5 27.5t11.5 27.5t27.5 11.5t28 -11.5t12 -27.5t-12 -27.5t-28 -11.5t-27.5 11.5z" />
    <glyph glyph-name="comma" unicode="," horiz-adv-x="166" 
d="M28 -119q22 30 34 56.5t12 43.5q0 7 -3.5 11t-9.5 8q-9 6 -13 12t-4 19q0 17 11 28t27 11q17 0 29 -12.5t12 -37.5q0 -31 -16.5 -72t-48.5 -82z" />
    <glyph glyph-name="ellipsis" unicode="&#x2026;" horiz-adv-x="573" 
d="M461.5 3.5q-11.5 11.5 -11.5 27.5t11.5 27.5t27.5 11.5t28 -11.5t12 -27.5t-12 -27.5t-28 -11.5t-27.5 11.5zM258.5 3.5q-11.5 11.5 -11.5 27.5t11.5 27.5t27.5 11.5t28 -11.5t12 -27.5t-12 -27.5t-28 -11.5t-27.5 11.5zM55.5 3.5q-11.5 11.5 -11.5 27.5t11.5 27.5
t27.5 11.5t28 -11.5t12 -27.5t-12 -27.5t-28 -11.5t-27.5 11.5z" />
    <glyph glyph-name="exclam" unicode="!" horiz-adv-x="210" 
d="M83 181l-10 467h62l-11 -463zM77.5 3.5q-11.5 11.5 -11.5 27.5t11.5 27.5t27.5 11.5t28 -11.5t12 -27.5t-12 -27.5t-28 -11.5t-27.5 11.5z" />
    <glyph glyph-name="exclamdown" unicode="&#xa1;" horiz-adv-x="210" 
d="M77 373.5q-12 11.5 -12 27.5t12 27.5t28 11.5t27.5 -11.5t11.5 -27.5t-11.5 -27.5t-27.5 -11.5t-28 11.5zM75 -215l11 462l41 4l10 -466h-62z" />
    <glyph glyph-name="numbersign" unicode="#" horiz-adv-x="540" 
d="M521 451h-92l-37 -248h87v-42h-94l-24 -161h-48l24 161h-187l-24 -161h-49l24 161h-82v42h89l37 248h-85v42h92l23 155h49l-23 -155h187l23 155h48l-23 -155h85v-42zM344 203l37 248h-187l-37 -248h187z" />
    <glyph glyph-name="numbersign.osf" horiz-adv-x="633" 
d="M582 431h-94l-36 -240h89v-43h-96l-22 -148h-51l22 148h-202l-22 -148h-51l22 148h-90v43h97l36 240h-92v43h99l21 142h51l-21 -142h202l21 142h51l-21 -142h87v-43zM401 191l36 240h-202l-36 -240h202z" />
    <glyph glyph-name="period" unicode="." horiz-adv-x="166" 
d="M55.5 3.5q-11.5 11.5 -11.5 27.5t11.5 27.5t27.5 11.5t28 -11.5t12 -27.5t-12 -27.5t-28 -11.5t-27.5 11.5z" />
    <glyph glyph-name="question" unicode="?" horiz-adv-x="440" 
d="M181 212q0 41 8.5 72.5t29.5 59t57 55.5q38 30 52 53t14 55q0 31 -15.5 54t-43 36t-63.5 13q-43 0 -82 -17.5t-77 -48.5l-31 35q45 39 92.5 59.5t103.5 20.5q49 0 88 -18.5t61.5 -52.5t22.5 -77q0 -44 -17 -75.5t-62 -64.5q-49 -36 -68.5 -73.5t-19.5 -92.5v-16l-50 -4
v27zM179.5 3.5q-11.5 11.5 -11.5 27.5t11.5 27.5t27.5 11.5t28 -11.5t12 -27.5t-12 -27.5t-28 -11.5t-27.5 11.5z" />
    <glyph glyph-name="questiondown" unicode="&#xbf;" horiz-adv-x="440" 
d="M205 373.5q-12 11.5 -12 27.5t11.5 27.5t28.5 11.5q16 0 27.5 -11.5t11.5 -27.5t-11.5 -27.5t-27.5 -11.5t-28 11.5zM126 -207.5q-39 18.5 -61.5 52t-22.5 76.5q0 45 17 76.5t62 64.5q49 37 69 74t20 92v15l50 5v-27q0 -61 -21 -103.5t-75 -83.5q-38 -30 -52 -53.5
t-14 -54.5t15.5 -54.5t43 -36.5t63.5 -13q43 0 82 18t77 49l31 -36q-44 -39 -92 -59t-104 -20q-49 0 -88 18.5z" />
    <glyph glyph-name="quotedbl" unicode="&#x22;" horiz-adv-x="382" 
d="M95 418v230h58l-23 -230h-35zM241 418v230h58l-23 -230h-35z" />
    <glyph glyph-name="quotesingle" unicode="'" horiz-adv-x="236" 
d="M95 418v230h58l-23 -230h-35z" />
    <glyph glyph-name="semicolon" unicode=";" horiz-adv-x="166" 
d="M28 -119q22 30 34 56.5t12 43.5q0 7 -3.5 11t-9.5 8q-9 6 -13 12t-4 19q0 17 11 28t27 11q17 0 29 -12.5t12 -37.5q0 -31 -16.5 -72t-48.5 -82zM55.5 313.5q-11.5 11.5 -11.5 27.5t11.5 27.5t27.5 11.5t28 -11.5t12 -27.5t-12 -27.5t-28 -11.5t-27.5 11.5z" />
    <glyph glyph-name="slash" unicode="/" horiz-adv-x="485" 
d="M99 -133l-47 15l335 886l46 -15z" />
    <glyph glyph-name="underscore" unicode="_" horiz-adv-x="540" 
d="M57 -139v48h426v-48h-426z" />
    <glyph glyph-name="braceleft" unicode="{" horiz-adv-x="360" 
d="M175 -75q-47 36 -47 103q0 14 2.5 35t5.5 42q10 66 10 100q0 41 -21.5 61t-69.5 21v42q48 1 69.5 21t21.5 61q0 34 -10 100q-3 21 -5.5 42t-2.5 35q0 67 47 103t142 45l8 -44q-78 -8 -111 -34t-33 -74q0 -35 9 -89q3 -22 5.5 -45t2.5 -40q0 -48 -23.5 -73t-57.5 -29
q34 -4 57.5 -29t23.5 -73q0 -17 -2.5 -40t-5.5 -45q-9 -54 -9 -89q0 -48 33 -74t111 -34l-8 -44q-95 9 -142 45z" />
    <glyph glyph-name="braceright" unicode="}" horiz-adv-x="360" 
d="M35 -76q78 8 111 34t33 74q0 35 -9 89q-3 22 -5.5 45t-2.5 40q0 48 23.5 73t57.5 29q-34 4 -57.5 29t-23.5 73q0 17 2.5 40t5.5 45q9 54 9 89q0 48 -33 74t-111 34l8 44q95 -9 142 -45t47 -103q0 -14 -2.5 -35t-5.5 -42q-10 -66 -10 -100q0 -41 21.5 -61t69.5 -21v-42
q-48 -1 -69.5 -21t-21.5 -61q0 -34 10 -100q3 -21 5.5 -42t2.5 -35q0 -67 -47 -103t-142 -45z" />
    <glyph glyph-name="bracketleft" unicode="[" horiz-adv-x="360" 
d="M104 -111v839h229v-46h-177v-747h177v-46h-229z" />
    <glyph glyph-name="bracketright" unicode="]" horiz-adv-x="360" 
d="M27 -111v46h177v747h-177v46h229v-839h-229z" />
    <glyph glyph-name="braceleft.case" horiz-adv-x="360" 
d="M175 -55q-47 36 -47 103q0 14 2.5 35t5.5 42q10 66 10 100q0 41 -21.5 61t-69.5 21v42q48 1 69.5 21t21.5 61q0 34 -10 100q-3 21 -5.5 42t-2.5 35q0 67 47 103t142 45l8 -44q-78 -8 -111 -34t-33 -74q0 -35 9 -89q3 -22 5.5 -45t2.5 -40q0 -48 -23.5 -73t-57.5 -29
q34 -4 57.5 -29t23.5 -73q0 -17 -2.5 -40t-5.5 -45q-9 -54 -9 -89q0 -48 33 -74t111 -34l-8 -44q-95 9 -142 45z" />
    <glyph glyph-name="braceright.case" horiz-adv-x="360" 
d="M35 -56q78 8 111 34t33 74q0 35 -9 89q-3 22 -5.5 45t-2.5 40q0 48 23.5 73t57.5 29q-34 4 -57.5 29t-23.5 73q0 17 2.5 40t5.5 45q9 54 9 89q0 48 -33 74t-111 34l8 44q95 -9 142 -45t47 -103q0 -14 -2.5 -35t-5.5 -42q-10 -66 -10 -100q0 -41 21.5 -61t69.5 -21v-42
q-48 -1 -69.5 -21t-21.5 -61q0 -34 10 -100q3 -21 5.5 -42t2.5 -35q0 -67 -47 -103t-142 -45z" />
    <glyph glyph-name="bracketleft.case" horiz-adv-x="360" 
d="M104 -91v839h229v-46h-177v-747h177v-46h-229z" />
    <glyph glyph-name="bracketright.case" horiz-adv-x="360" 
d="M27 -91v46h177v747h-177v46h229v-839h-229z" />
    <glyph glyph-name="parenleft.case" horiz-adv-x="360" 
d="M182.5 14q-44.5 61 -69 136.5t-24.5 172.5t24.5 172.5t69 136.5t111.5 124l32 -27q-59 -59 -98.5 -117.5t-62 -130t-22.5 -158.5t22.5 -158.5t62 -130t98.5 -117.5l-32 -27q-67 63 -111.5 124z" />
    <glyph glyph-name="parenright.case" horiz-adv-x="360" 
d="M34 -83q59 59 98.5 117.5t62 130t22.5 158.5t-22.5 158.5t-62 130t-98.5 117.5l32 27q67 -63 111.5 -124t69 -136.5t24.5 -172.5t-24.5 -172.5t-69 -136.5t-111.5 -124z" />
    <glyph glyph-name="parenleft" unicode="(" horiz-adv-x="360" 
d="M182.5 -6q-44.5 61 -69 136.5t-24.5 172.5t24.5 172.5t69 136.5t111.5 124l32 -27q-59 -59 -98.5 -117.5t-62 -130t-22.5 -158.5t22.5 -158.5t62 -130t98.5 -117.5l-32 -27q-67 63 -111.5 124z" />
    <glyph glyph-name="parenright" unicode=")" horiz-adv-x="360" 
d="M34 -103q59 59 98.5 117.5t62 130t22.5 158.5t-22.5 158.5t-62 130t-98.5 117.5l32 27q67 -63 111.5 -124t69 -136.5t24.5 -172.5t-24.5 -172.5t-69 -136.5t-111.5 -124z" />
    <glyph glyph-name="emdash.case" horiz-adv-x="1000" 
d="M57 300v49h886v-49h-886z" />
    <glyph glyph-name="endash.case" horiz-adv-x="600" 
d="M57 300v49h486v-49h-486z" />
    <glyph glyph-name="uni2015.case" horiz-adv-x="1000" 
d="M-2 300v49h1004v-49h-1004z" />
    <glyph glyph-name="hyphen.case" horiz-adv-x="380" 
d="M57 300v49h266v-49h-266z" />
    <glyph glyph-name="uni00AD.case" horiz-adv-x="380" 
d="M57 300v49h266v-49h-266z" />
    <glyph glyph-name="emdash" unicode="&#x2014;" horiz-adv-x="1000" 
d="M57 243v49h886v-49h-886z" />
    <glyph glyph-name="endash" unicode="&#x2013;" horiz-adv-x="600" 
d="M57 243v49h486v-49h-486z" />
    <glyph glyph-name="figuredash" unicode="&#x2012;" horiz-adv-x="540" 
d="M57 300v48h426v-48h-426z" />
    <glyph glyph-name="uni2015" unicode="&#x2015;" horiz-adv-x="1000" 
d="M-2 243v49h1004v-49h-1004z" />
    <glyph glyph-name="hyphen" unicode="-" horiz-adv-x="380" 
d="M57 243v49h266v-49h-266z" />
    <glyph glyph-name="uni00AD" unicode="&#xad;" horiz-adv-x="380" 
d="M57 243v49h266v-49h-266z" />
    <glyph glyph-name="guillemotleft.case" horiz-adv-x="496" 
d="M206 137l-141 161v53l141 161l29 -21l-122 -167l122 -166zM382 137l-141 161v53l141 161l29 -21l-122 -167l122 -166z" />
    <glyph glyph-name="guillemotright.case" horiz-adv-x="496" 
d="M290 137l-29 21l122 166l-122 167l29 21l141 -161v-53zM114 137l-29 21l122 166l-122 167l29 21l141 -161v-53z" />
    <glyph glyph-name="guilsinglleft.case" horiz-adv-x="320" 
d="M206 137l-141 161v53l141 161l29 -21l-122 -167l122 -166z" />
    <glyph glyph-name="guilsinglright.case" horiz-adv-x="320" 
d="M114 137l-29 21l122 166l-122 167l29 21l141 -161v-53z" />
    <glyph glyph-name="guillemotleft" unicode="&#xab;" horiz-adv-x="496" 
d="M206 80l-141 161v53l141 161l29 -21l-122 -167l122 -166zM382 80l-141 161v53l141 161l29 -21l-122 -167l122 -166z" />
    <glyph glyph-name="guillemotright" unicode="&#xbb;" horiz-adv-x="496" 
d="M290 80l-29 21l122 166l-122 167l29 21l141 -161v-53zM114 80l-29 21l122 166l-122 167l29 21l141 -161v-53z" />
    <glyph glyph-name="guilsinglleft" unicode="&#x2039;" horiz-adv-x="320" 
d="M206 80l-141 161v53l141 161l29 -21l-122 -167l122 -166z" />
    <glyph glyph-name="guilsinglright" unicode="&#x203a;" horiz-adv-x="320" 
d="M114 80l-29 21l122 166l-122 167l29 21l141 -161v-53z" />
    <glyph glyph-name="quotedblbase" unicode="&#x201e;" horiz-adv-x="289" 
d="M28 -94q18 24 28 44.5t10 33.5q0 5 -2 9t-5 6q-10 5 -15.5 12t-5.5 19q0 16 10 25.5t25 9.5t26.5 -12.5t11.5 -33.5q0 -31 -13.5 -61t-43.5 -67zM163 -94q18 24 28 44.5t10 33.5q0 5 -2 9t-5 6q-10 5 -15.5 12t-5.5 19q0 16 10 25.5t25 9.5t26.5 -12.5t11.5 -33.5
q0 -31 -13.5 -61t-43.5 -67z" />
    <glyph glyph-name="quotedblleft" unicode="&#x201c;" horiz-adv-x="289" 
d="M55.5 497q-11.5 12 -11.5 33q0 31 13.5 61.5t42.5 66.5l26 -15q-18 -24 -28 -44.5t-10 -33.5q0 -5 2 -9.5t6 -5.5q21 -10 21 -31q0 -15 -10 -24.5t-25 -9.5t-26.5 12zM189.5 497q-11.5 12 -11.5 33q0 31 13.5 61t43.5 67l26 -15q-18 -24 -28 -44.5t-10 -33.5q0 -5 2 -9
t5 -6q21 -10 21 -31q0 -16 -9.5 -25t-25.5 -9q-15 0 -26.5 12z" />
    <glyph glyph-name="quotedblright" unicode="&#x201d;" horiz-adv-x="289" 
d="M28 563q18 24 28 44.5t10 33.5q0 5 -2 9t-5 6q-10 5 -15.5 12t-5.5 19q0 16 10 25.5t25 9.5t26.5 -12.5t11.5 -33.5q0 -31 -13.5 -61t-43.5 -67zM163 563q18 24 28 44.5t10 33.5q0 5 -2 9t-5 6q-10 5 -15.5 12t-5.5 19q0 16 10 25.5t25 9.5t26.5 -12.5t11.5 -33.5
q0 -31 -13.5 -61t-43.5 -67z" />
    <glyph glyph-name="quoteleft" unicode="&#x2018;" horiz-adv-x="154" 
d="M55.5 497q-11.5 12 -11.5 33q0 31 13.5 61.5t42.5 66.5l26 -15q-18 -24 -28 -44.5t-10 -33.5q0 -5 2 -9.5t6 -5.5q21 -10 21 -31q0 -15 -10 -24.5t-25 -9.5t-26.5 12z" />
    <glyph glyph-name="quoteright" unicode="&#x2019;" horiz-adv-x="154" 
d="M28 563q18 24 28 44.5t10 33.5q0 5 -2 9t-5 6q-10 5 -15.5 12t-5.5 19q0 16 10 25.5t25 9.5t26.5 -12.5t11.5 -33.5q0 -31 -13.5 -61t-43.5 -67z" />
    <glyph glyph-name="quotesinglbase" unicode="&#x201a;" horiz-adv-x="154" 
d="M28 -94q18 24 28 44.5t10 33.5q0 5 -2 9t-5 6q-10 5 -15.5 12t-5.5 19q0 16 10 25.5t25 9.5t26.5 -12.5t11.5 -33.5q0 -31 -13.5 -61t-43.5 -67z" />
    <glyph glyph-name="uni06D4" unicode="&#x6d4;" horiz-adv-x="265" 
d="M20 22l11 44l5 4q42 -11 78.5 -16t78.5 -5h23l-10 -49h-26q-89 0 -160 22z" />
    <glyph glyph-name="uni060C" unicode="&#x60c;" horiz-adv-x="190" 
d="M55.5 4q-11.5 13 -11.5 37q0 30 16.5 71.5t47.5 83.5l30 -16q-21 -29 -33.5 -56t-12.5 -44q0 -7 3.5 -11t9.5 -8q9 -6 13.5 -12t4.5 -19q0 -17 -11.5 -28t-27.5 -11q-17 0 -28.5 13z" />
    <glyph glyph-name="uni061B" unicode="&#x61b;" horiz-adv-x="187" 
d="M55.5 3.5q-11.5 11.5 -11.5 27.5t11.5 27.5t27.5 11.5t28 -11.5t12 -27.5t-12 -27.5t-28 -11.5t-27.5 11.5zM55.5 250q-11.5 13 -11.5 37q0 30 16.5 71.5t47.5 83.5l30 -16q-21 -29 -33.5 -56t-12.5 -44q0 -7 3.5 -11t9.5 -8q9 -6 13.5 -12t4.5 -19q0 -17 -11.5 -28
t-27.5 -11q-17 0 -28.5 13z" />
    <glyph glyph-name="uni061F" unicode="&#x61f;" horiz-adv-x="405" 
d="M201 189v16q0 37 -8 64.5t-27.5 52t-53.5 49.5q-44 33 -61.5 64.5t-17.5 75.5q0 43 22.5 77t62 52.5t87.5 18.5q89 0 167 -56l-24 -42q-32 23 -65.5 36t-70.5 13q-36 0 -64 -13t-43.5 -36t-15.5 -54t14.5 -55t52.5 -53q53 -41 74 -83.5t21 -103.5q0 -19 -1 -27z
M192.5 3.5q-11.5 11.5 -11.5 27.5t11.5 27.5t27.5 11.5t28 -11.5t12 -27.5t-12 -27.5t-28 -11.5t-27.5 11.5z" />
    <glyph glyph-name="uni066D" unicode="&#x66d;" horiz-adv-x="710" 
d="M160 -16l-22 17l124 234l-222 108l6 28l248 -26l47 239h29l46 -238l248 25l6 -30l-224 -104l126 -236l-22 -17l-195 171z" />
    <glyph glyph-name="uniFD3E" unicode="&#xfd3e;" horiz-adv-x="545" 
d="M460 -195q-33 21 -77.5 66t-84 102t-56.5 113q-19 -8 -39 -12.5t-35 -4.5q-25 0 -25 13q0 8 4.5 16t14.5 18l55 56q12 12 12 20q0 6 -7 6q-8 0 -19 -8l-64 -47q-19 -14 -26 -14q-5 0 -9 7t-4 21q0 15 6 39q-32 13 -46.5 25t-14.5 25t14 24t47 26q-6 24 -6 39q0 14 4 21
t9 7q7 0 26 -14l64 -47q11 -8 19 -8q7 0 7 6q0 8 -12 20l-55 56q-10 10 -14.5 18t-4.5 16q0 13 25 13q15 0 35 -4.5t39 -12.5q17 56 56.5 114t84.5 103t77 64q16 10 26 10q7 0 7 -6t-12 -20q-63 -69 -103.5 -136.5t-47.5 -125.5q31 9 47 9q22 0 22 -15q0 -5 -3.5 -11.5
t-8.5 -11.5l-55 -60q-11 -12 -11 -20q0 -6 7 -6q8 0 19 8l64 47q19 14 26 14q5 0 9 -7t4 -21q0 -15 -6 -39q32 -14 46.5 -25.5t14.5 -24.5t-14 -24.5t-47 -25.5q6 -24 6 -39q0 -14 -4 -21t-9 -7q-7 0 -26 14l-64 47q-11 8 -19 8q-7 0 -7 -6q0 -8 11 -20l55 -60
q5 -5 8.5 -11.5t3.5 -11.5q0 -15 -22 -15q-16 0 -47 9q13 -108 151 -262q12 -14 12 -20t-7 -6q-10 0 -26 10zM247 321q-3 8 -3 13q0 10 8 15t22 5q16 0 23.5 -4t7.5 -14q0 -6 -3 -14l2 -1l55 63q8 9 8 12t-4 3q-8 0 -25.5 -7.5t-34.5 -17.5q3 34 8.5 57t19.5 56q4 10 7.5 17
t5.5 13q8 16 8 20q0 3 -1 4.5t-3 1.5q-6 0 -11 -5.5t-15 -19.5q-46 -64 -64 -145q-62 30 -76 30q-2 0 -3.5 -0.5t-1.5 -1.5q0 -2 2 -4.5t4 -4.5l62 -72zM143 172l58 43l-1 2q-9 -3 -15 -3q-11 0 -16 8t-5 24t5 24t16 8q6 0 15 -3l1 2l-58 43q-14 10 -18 10t-4 -8q0 -9 2 -21
t5 -24q-27 -6 -43 -14t-16 -17q0 -8 16.5 -16.5t42.5 -14.5q-3 -12 -5 -24t-2 -21q0 -8 4 -8t18 10zM429 170q0 9 -2 21t-5 24q26 6 42.5 14.5t16.5 16.5t-16.5 16.5t-42.5 14.5q3 12 5 24t2 21q0 8 -4 8t-18 -10l-58 -43l1 -2q9 3 15 3q11 0 16 -8t5 -24t-5 -24t-16 -8
q-6 0 -15 3l-1 -2l58 -43q14 -10 18 -10t4 8zM310.5 210.5q14.5 14.5 14.5 35.5t-14.5 35.5t-35.5 14.5t-35.5 -14.5t-14.5 -35.5t14.5 -35.5t35.5 -14.5t35.5 14.5zM351 -49.5q1 1.5 1 4.5q0 4 -8 20q-2 6 -5.5 13t-7.5 17q-14 33 -19.5 56t-8.5 57q17 -10 34.5 -17.5
t25.5 -7.5q3 0 3 3q0 4 -4 8l-58 67l-2 -1q3 -7 3 -14q0 -10 -7.5 -14t-23.5 -4q-14 0 -22 5t-8 15q0 6 3 13l-2 1l-62 -72q-6 -6 -6 -9q0 -2 4 -2q15 0 77 30q18 -81 64 -145q10 -14 15 -19.5t11 -5.5q2 0 3 1.5z" />
    <glyph glyph-name="uniFD3F" unicode="&#xfd3f;" horiz-adv-x="545" 
d="M52 -199q0 6 12 20q138 154 151 262q-31 -9 -47 -9q-22 0 -22 15q0 5 3.5 11.5t8.5 11.5l55 60q11 12 11 20q0 6 -7 6q-8 0 -19 -8l-64 -47q-19 -14 -26 -14q-5 0 -9 7t-4 21q0 15 6 39q-33 14 -47 25.5t-14 24.5t14.5 24.5t46.5 25.5q-6 24 -6 39q0 14 4 21t9 7
q7 0 26 -14l64 -47q11 -8 19 -8q7 0 7 6q0 8 -11 20l-55 60q-5 5 -8.5 11.5t-3.5 11.5q0 15 22 15q16 0 47 -9q-7 58 -47.5 125.5t-103.5 136.5q-12 14 -12 20t7 6q10 0 26 -10q32 -19 77 -64t84.5 -103t56.5 -114q19 8 39 12.5t35 4.5q25 0 25 -13q0 -8 -4.5 -16t-14.5 -18
l-55 -56q-12 -12 -12 -20q0 -6 7 -6q8 0 19 8l64 47q19 14 26 14q5 0 9 -7t4 -21q0 -15 -6 -39q33 -15 47 -26t14 -24t-14.5 -25t-46.5 -25q6 -24 6 -39q0 -14 -4 -21t-9 -7q-7 0 -26 14l-64 47q-11 8 -19 8q-7 0 -7 -6q0 -8 12 -20l55 -56q10 -10 14.5 -18t4.5 -16
q0 -13 -25 -13q-15 0 -35 4.5t-39 12.5q-17 -56 -56.5 -113t-84 -102t-77.5 -66q-16 -10 -26 -10q-7 0 -7 6zM362 392q2 2 4 4.5t2 4.5q0 1 -1.5 1.5t-3.5 0.5q-14 0 -76 -30q-18 81 -64 145q-10 14 -15 19.5t-11 5.5q-2 0 -3 -1.5t-1 -4.5q0 -4 8 -20q2 -6 5.5 -13t7.5 -17
q14 -33 19.5 -56t8.5 -57q-17 10 -34.5 17.5t-25.5 7.5q-4 0 -4 -3t8 -12l55 -63l2 1q-3 8 -3 14q0 10 7.5 14t23.5 4q14 0 22 -5t8 -15q0 -5 -3 -13l2 -1zM138 172l58 43l-1 2q-9 -3 -15 -3q-11 0 -16 8t-5 24t5 24t16 8q6 0 15 -3l1 2l-58 43q-14 10 -18 10t-4 -8
q0 -9 2 -21t5 -24q-26 -6 -42.5 -14.5t-16.5 -16.5t16.5 -16.5t42.5 -14.5q-3 -12 -5 -24t-2 -21q0 -8 4 -8t18 10zM424 170q0 9 -2 21t-5 24q26 6 42.5 14.5t16.5 16.5q0 9 -16 17t-43 14q3 12 5 24t2 21q0 8 -4 8t-18 -10l-58 -43l1 -2q9 3 15 3q11 0 16 -8t5 -24t-5 -24
t-16 -8q-6 0 -15 3l-1 -2l58 -43q14 -10 18 -10t4 8zM305.5 210.5q14.5 14.5 14.5 35.5t-14.5 35.5t-35.5 14.5t-35.5 -14.5t-14.5 -35.5t14.5 -35.5t35.5 -14.5t35.5 14.5zM208 -45.5q5 5.5 15 19.5q46 64 64 145q62 -30 77 -30q4 0 4 2q0 3 -6 9l-62 72l-2 -1q3 -7 3 -13
q0 -10 -8 -15t-22 -5q-16 0 -23.5 4t-7.5 14q0 7 3 14l-2 1l-58 -67q-4 -4 -4 -8q0 -3 3 -3q8 0 25.5 7.5t34.5 17.5q-3 -34 -8.5 -57t-19.5 -56q-4 -10 -7.5 -17t-5.5 -13q-8 -16 -8 -20q0 -3 1 -4.5t3 -1.5q6 0 11 5.5z" />
    <glyph glyph-name="uni2007" unicode="&#x2007;" horiz-adv-x="540" 
 />
    <glyph glyph-name="space.frac" horiz-adv-x="50" 
 />
    <glyph glyph-name="uni00A0" unicode="&#xa0;" horiz-adv-x="254" 
 />
    <glyph glyph-name="uni200B" unicode="&#x200b;" 
 />
    <glyph glyph-name="uni200E" unicode="&#x200e;" 
d="M-8 -150v908h111l-43 55l13 9l55 -72l-55 -72l-13 9l43 55h-95v-892h-16z" />
    <glyph glyph-name="uni200F" unicode="&#x200f;" 
d="M-8 -150v892h-95l43 -55l-13 -9l-55 72l55 72l13 -9l-43 -55h111v-908h-16z" />
    <glyph glyph-name="uni200D" unicode="&#x200d;" 
d="M-8 -150v881l-49 -49l-11 11l57 57l-54 54l11 11l54 -54l54 54l11 -11l-54 -54l57 -57l-11 -11l-49 49v-881h-16z" />
    <glyph glyph-name="uni200C" unicode="&#x200c;" 
d="M-8 -150v900h16v-900h-16z" />
    <glyph glyph-name="uniFEFF" unicode="&#xfeff;" 
 />
    <glyph glyph-name="cent" unicode="&#xa2;" horiz-adv-x="540" 
d="M307 -10v-131h-48v131q-79 8 -123.5 63.5t-44.5 151.5q0 69 23.5 118t61.5 76.5t83 36.5v148h48v-144q58 -1 122 -35l-19 -40q-32 15 -59.5 22.5t-55.5 7.5q-46 0 -79.5 -24t-51.5 -67t-18 -99q0 -170 142 -170q36 0 68 11t64 32l22 -38q-59 -43 -135 -50z" />
    <glyph glyph-name="currency" unicode="&#xa4;" horiz-adv-x="540" 
d="M470 60l-65 66q-27 -20 -61.5 -31t-73.5 -11t-73.5 11t-60.5 31l-65 -66l-31 30l66 65q-20 25 -31 57.5t-11 71.5q0 77 42 128l-67 66l31 30l65 -66q27 20 61.5 31t73.5 11t73.5 -11t60.5 -31l65 66l31 -30l-66 -65q20 -25 31 -57.5t11 -71.5q0 -77 -42 -128l67 -66z
M350.5 146.5q35.5 18.5 55.5 54t20 83.5q0 77 -42.5 116t-113.5 39t-113.5 -39.5t-42.5 -115.5q0 -48 20 -83.5t55.5 -54t80.5 -18.5t80.5 18.5z" />
    <glyph glyph-name="dollar" unicode="$" horiz-adv-x="540" 
d="M444 44.5q-48 -45.5 -137 -53.5v-132h-49v130q-118 3 -211 73l27 40q44 -33 95.5 -49t100.5 -16q84 0 125 34t41 94q0 40 -19 65.5t-51 42.5t-89 38l-19 6q-62 23 -99.5 43t-61.5 52.5t-24 81.5q0 48 25 84t67 56t93 24v131h49v-131q46 -3 89 -17.5t87 -43.5l-27 -40
q-45 28 -87.5 41t-91.5 13q-36 0 -70 -12t-56 -37t-22 -64q0 -33 14.5 -55t45 -39t85.5 -37l19 -7q64 -23 103 -43t67.5 -57t28.5 -95q0 -75 -48 -120.5z" />
    <glyph glyph-name="Euro" unicode="&#x20ac;" horiz-adv-x="540" 
d="M516 65q-44 -39 -88 -57.5t-95 -18.5q-103 0 -159 66t-70 180h-80l7 40h69q-1 15 -1 47q0 17 2 49h-77l7 41h75q12 78 46 133.5t83.5 84t108.5 28.5q48 0 88 -14.5t80 -45.5l-27 -39q-37 27 -68.5 39t-71.5 12q-77 0 -123.5 -54t-61.5 -144h258l-7 -41h-256
q-2 -32 -2 -48q0 -32 1 -48h245l-7 -40h-234q13 -92 55 -145t121 -53q45 0 81.5 17t71.5 48z" />
    <glyph glyph-name="florin" unicode="&#x192;" horiz-adv-x="540" 
d="M313 618q-24 -29 -24 -79v-104h146l-5 -42h-141v-445q0 -69 -32 -107t-95 -38q-27 0 -52.5 5.5t-45.5 14.5l16 40q37 -14 78 -14q79 0 79 102v442h-92v42h92v103q0 47 18 82t51 53.5t77 18.5q26 0 48.5 -5t44.5 -14l-14 -42q-20 8 -38 12t-38 4q-49 0 -73 -29z" />
    <glyph glyph-name="cent.osf" horiz-adv-x="409" 
d="M257 -10v-131h-48v131q-79 8 -123.5 63.5t-44.5 151.5q0 69 23.5 118t61.5 76.5t83 36.5v148h48v-144q58 -1 122 -35l-19 -40q-32 15 -59.5 22.5t-55.5 7.5q-46 0 -79.5 -24t-51.5 -67t-18 -99q0 -170 142 -170q36 0 68 11t64 32l22 -38q-59 -43 -135 -50z" />
    <glyph glyph-name="dollar.osf" horiz-adv-x="540" 
d="M437.5 47.5q-46.5 -44.5 -133.5 -51.5v-137h-48v136q-112 4 -200 70l27 38q44 -31 92 -46.5t96 -15.5q77 0 117.5 32t40.5 90q0 37 -18.5 60t-46.5 36t-94 38q-68 26 -105 44.5t-60 48t-23 74.5q0 46 23.5 80t63.5 53.5t87 23.5v135h48v-135q45 -2 86 -16t85 -42l-27 -40
q-42 28 -82.5 40.5t-87.5 12.5q-35 0 -67.5 -11.5t-53.5 -36t-21 -61.5q0 -32 16 -52.5t41.5 -33t74.5 -30.5l21 -8q73 -27 108 -43.5t61 -49t26 -86.5q0 -72 -46.5 -116.5z" />
    <glyph glyph-name="Euro.osf" horiz-adv-x="580" 
d="M548 62q-45 -37 -91 -55t-99 -18q-107 0 -167 63.5t-76 170.5h-82l6 40h71q-1 14 -1 43q0 16 2 46h-78l6 41h78q13 74 49.5 127t88.5 80t114 27q50 0 92 -14t84 -44l-28 -39q-38 26 -71.5 37.5t-75.5 11.5q-84 0 -133.5 -50.5t-65.5 -135.5h277l-7 -41h-276
q-2 -30 -2 -45q0 -16 2 -44h263l-7 -40h-252q14 -86 59.5 -136t129.5 -50q48 0 86.5 16.5t74.5 45.5z" />
    <glyph glyph-name="florin.osf" horiz-adv-x="326" 
d="M198 574q-24 -29 -24 -79v-104h146l-6 -42h-140v-401q0 -69 -32.5 -107t-95.5 -38q-26 0 -51.5 5.5t-46.5 14.5l16 40q37 -14 79 -14q44 0 61.5 29t17.5 73v398h-92v42h92v102q0 48 17.5 82.5t50.5 53t77 18.5q50 0 94 -18l-15 -42q-20 8 -37.5 12t-37.5 4q-49 0 -73 -29
z" />
    <glyph glyph-name="sterling.osf" horiz-adv-x="540" 
d="M205 117.5q-11 -35.5 -33 -71.5h303v-46h-407v46h52q23 41 33.5 73t10.5 78q0 42 -12 93h-79v41h68q-13 49 -19 77.5t-6 60.5q0 44 22.5 80t64 57t96.5 21q100 0 181 -77l-32 -35q-34 31 -71 47.5t-80 16.5q-42 0 -71 -15t-43 -40.5t-14 -56.5q0 -30 5.5 -57t19.5 -79
h204v-41h-194q12 -50 12 -91q0 -46 -11 -81.5z" />
    <glyph glyph-name="yen.osf" horiz-adv-x="600" 
d="M551 616l-209 -325h172v-41h-188v-85h188v-41h-188v-124h-55v124h-185v41h185v85h-185v41h170l-207 325h62l190 -304l191 304h59z" />
    <glyph glyph-name="sterling" unicode="&#xa3;" horiz-adv-x="540" 
d="M205 121.5q-11 -37.5 -33 -75.5h303v-46h-407v46h52q23 44 33.5 78t10.5 82q0 47 -13 99h-78v42h68q-14 56 -19.5 85t-5.5 62q0 46 22.5 83.5t64 59.5t96.5 22q101 0 181 -80l-32 -35q-34 32 -71 49.5t-80 17.5q-42 0 -71 -16t-43 -43t-14 -60q0 -28 5 -56.5t11.5 -54
t8.5 -34.5h204v-42h-194q12 -53 12 -97q0 -49 -11 -86.5z" />
    <glyph glyph-name="yen" unicode="&#xa5;" horiz-adv-x="540" 
d="M514 648l-207 -344h167v-41h-181v-91h181v-41h-181v-131h-54v131h-178v41h178v91h-178v41h165l-205 344h61l186 -322l187 322h59z" />
    <glyph glyph-name="uni2219" unicode="&#x2219;" horiz-adv-x="540" 
d="M243.5 228.5q-11.5 11.5 -11.5 27.5t11.5 27.5t27.5 11.5t28 -11.5t12 -27.5t-12 -27.5t-28 -11.5t-27.5 11.5z" />
    <glyph glyph-name="uni2215" unicode="&#x2215;" horiz-adv-x="540" 
d="M96 -9l-41 22l391 644l39 -21z" />
    <glyph glyph-name="plus" unicode="+" horiz-adv-x="540" 
d="M245 67v164h-168v48h168v164h50v-164h168v-48h-168v-164h-50z" />
    <glyph glyph-name="minus" unicode="&#x2212;" horiz-adv-x="540" 
d="M77 231v48h386v-48h-386z" />
    <glyph glyph-name="multiply" unicode="&#xd7;" horiz-adv-x="540" 
d="M443 395l-140 -140l140 -140l-33 -33l-140 140l-140 -140l-33 33l140 140l-140 140l33 33l140 -140l140 140z" />
    <glyph glyph-name="divide" unicode="&#xf7;" horiz-adv-x="540" 
d="M243.5 408.5q-11.5 11.5 -11.5 27.5t11.5 27.5t27.5 11.5t28 -11.5t12 -27.5t-12 -27.5t-28 -11.5t-27.5 11.5zM77 231v48h386v-48h-386zM243.5 46.5q-11.5 11.5 -11.5 27.5t11.5 27.5t27.5 11.5t28 -11.5t12 -27.5t-12 -27.5t-28 -11.5t-27.5 11.5z" />
    <glyph glyph-name="equal" unicode="=" horiz-adv-x="540" 
d="M77 311v48h386v-48h-386zM77 151v48h386v-48h-386z" />
    <glyph glyph-name="notequal" unicode="&#x2260;" horiz-adv-x="540" 
d="M463 311h-137l-65 -112h202v-48h-229l-103 -178l-36 20l91 158h-109v48h137l65 112h-202v48h229l103 178l36 -20l-91 -158h109v-48z" />
    <glyph glyph-name="greater" unicode="&#x3e;" horiz-adv-x="540" 
d="M96 448l367 -157v-71l-367 -156l-19 44l348 147l-348 150z" />
    <glyph glyph-name="less" unicode="&#x3c;" horiz-adv-x="540" 
d="M463 403l-348 -147l348 -150l-19 -43l-367 157v71l367 156z" />
    <glyph glyph-name="greaterequal" unicode="&#x2265;" horiz-adv-x="540" 
d="M96 448l367 -144v-71l-371 -137l-15 45l347 128l-347 136zM77 0v48h386v-48h-386z" />
    <glyph glyph-name="lessequal" unicode="&#x2264;" horiz-adv-x="540" 
d="M463 405l-347 -136l347 -128l-15 -45l-371 137v71l367 144zM77 0v47h386v-47h-386z" />
    <glyph glyph-name="plusminus" unicode="&#xb1;" horiz-adv-x="540" 
d="M245 108v149h-168v47h168v149h50v-149h168v-47h-168v-149h-50zM77 0v48h386v-48h-386z" />
    <glyph glyph-name="approxequal" unicode="&#x2248;" horiz-adv-x="540" 
d="M305.5 294q-21.5 8 -50.5 24q-27 14 -41.5 20t-30.5 6q-20 0 -38 -14t-32 -38l-36 14q22 45 48.5 66.5t62.5 21.5q25 0 46.5 -8t50.5 -24q23 -13 39 -19.5t32 -6.5q21 0 39 13.5t32 38.5l36 -14q-22 -45 -49 -66.5t-63 -21.5q-24 0 -45.5 8zM305.5 131q-21.5 8 -50.5 24
q-27 14 -41.5 20t-30.5 6q-20 0 -38 -14t-32 -38l-36 14q22 45 48.5 66.5t62.5 21.5q25 0 46.5 -8t50.5 -24q23 -13 39 -19.5t32 -6.5q21 0 39 13.5t32 38.5l36 -14q-22 -45 -49 -66.5t-63 -21.5q-24 0 -45.5 8z" />
    <glyph glyph-name="logicalnot" unicode="&#xac;" horiz-adv-x="540" 
d="M412 135v165h-335v47h386v-212h-51z" />
    <glyph glyph-name="asciitilde" unicode="~" horiz-adv-x="540" 
d="M305.5 223q-21.5 8 -50.5 24q-27 14 -41.5 20t-30.5 6q-20 0 -38 -14t-32 -38l-36 14q22 45 48.5 66.5t62.5 21.5q25 0 46.5 -8t50.5 -24q23 -13 39 -19.5t32 -6.5q21 0 39 13.5t32 38.5l36 -14q-22 -45 -49 -66.5t-63 -21.5q-24 0 -45.5 8z" />
    <glyph glyph-name="infinity" unicode="&#x221e;" horiz-adv-x="777" 
d="M648.5 422q38.5 -21 60.5 -60.5t22 -92.5q0 -50 -23.5 -89t-65 -60.5t-92.5 -21.5q-62 0 -102.5 33t-62.5 90q-26 -55 -68.5 -89t-102.5 -34q-48 0 -86.5 21t-60.5 60.5t-22 92.5q0 50 23.5 89t65 60.5t92.5 21.5q62 0 102.5 -33.5t62.5 -90.5q26 56 68.5 90t102.5 34
q48 0 86.5 -21zM306 176q35 35 64 96q-25 59 -58 93.5t-83 34.5q-35 0 -64.5 -14t-47.5 -43t-18 -71t15 -71.5t42.5 -44.5t62.5 -15q52 0 87 35zM611.5 155q29.5 14 47.5 43t18 71t-15 71.5t-42.5 44.5t-62.5 15q-52 0 -87 -35t-64 -96q25 -59 58 -93.5t83 -34.5
q35 0 64.5 14z" />
    <glyph glyph-name="integral" unicode="&#x222b;" horiz-adv-x="300" 
d="M-25 -190.5q-24 5.5 -48 15.5l16 40q23 -8 40.5 -12t40.5 -4q50 0 74 29.5t24 78.5v737q0 49 20 84t55 53t79 18q28 0 50 -5t47 -14l-15 -42q-22 8 -40.5 12t-39.5 4q-53 0 -78.5 -30t-25.5 -84v-737q0 -47 -18 -80.5t-50.5 -51t-75.5 -17.5q-31 0 -55 5.5z" />
    <glyph glyph-name="Omega" unicode="&#x2126;" horiz-adv-x="716" 
d="M513 45q53 4 130 4v-49h-192v41q78 42 112 116t34 168q0 83 -27 147.5t-81 101.5t-132 37q-77 0 -130.5 -36.5t-80.5 -101t-27 -146.5q0 -95 33.5 -168.5t112.5 -117.5v-41h-192v49q75 0 128 -4q-71 39 -105 110.5t-34 170.5q0 111 41.5 186t109.5 111t147 36
q84 0 150.5 -39t104.5 -114.5t38 -181.5q0 -204 -140 -279z" />
    <glyph glyph-name="Delta" unicode="&#x2206;" horiz-adv-x="615" 
d="M337 648l257 -643v-5h-572v5l255 643h60zM94 47h424l-212 541z" />
    <glyph glyph-name="product" unicode="&#x220f;" horiz-adv-x="540" 
d="M513 648l-5 -44h-67v-790h-52v790h-238v-790h-52v790h-65v44h479z" />
    <glyph glyph-name="summation" unicode="&#x2211;" horiz-adv-x="540" 
d="M485 648v-49h-360l229 -336v-38l-229 -362h360v-49h-430v35l249 395l-249 369v35h430z" />
    <glyph glyph-name="radical" unicode="&#x221a;" horiz-adv-x="540" 
d="M205 0l-172 422l52 17l145 -366l225 758h231v-46h-192l-234 -785h-55z" />
    <glyph glyph-name="partialdiff" unicode="&#x2202;" horiz-adv-x="540" 
d="M357.5 571.5q64.5 -46.5 92.5 -121.5t28 -203q0 -77 -23.5 -135.5t-69.5 -90.5t-113 -32q-59 0 -106.5 23t-75.5 70t-28 116q0 70 25 115t66.5 66t93.5 21q49 0 92 -16.5t83 -50.5q-8 83 -37 134.5t-83.5 85.5t-150.5 66l20 40q122 -41 186.5 -87.5zM385.5 88
q40.5 54 40.5 159q0 25 -1 38q-43 35 -82 52t-85 17q-72 0 -107.5 -37.5t-35.5 -121.5q0 -50 19.5 -86.5t54.5 -55.5t80 -19q76 0 116.5 54z" />
    <glyph glyph-name="mu" unicode="&#xb5;" horiz-adv-x="511" 
d="M432 436v-436h-47l-3 40q-36 -21 -76.5 -35t-78.5 -14q-67 0 -101 37q5 -35 5 -78v-136h-52v616l52 6v-294q0 -38 9.5 -61t32 -34.5t61.5 -11.5q36 0 73.5 13.5t72.5 34.5v347z" />
    <glyph glyph-name="percent.osf" horiz-adv-x="953" 
d="M254 -43l-38 25l486 671l38 -25zM144 275q-41 23 -64 66t-23 101q0 57 23 99.5t64 65t94 22.5t94 -23t64 -66t23 -100t-23 -99.5t-64 -65.5t-94 -23t-94 23zM307.5 313q29.5 18 45.5 51t16 77t-16 77t-45.5 50.5t-69.5 17.5t-69.5 -17.5t-45.5 -50.5t-16 -77t16 -77
t45.5 -51t69.5 -18t69.5 18zM621.5 12q-41.5 23 -64.5 66t-23 101q0 57 23 100t64.5 65.5t94.5 22.5q52 0 93 -23t64 -66t23 -100t-23 -100t-64 -66t-93 -23q-53 0 -94.5 23zM785.5 50.5q29.5 17.5 45 50.5t15.5 77t-15.5 77t-45 50.5t-69.5 17.5q-41 0 -70.5 -17.5
t-45.5 -50t-16 -76.5q0 -45 16 -78t45.5 -50.5t70.5 -17.5q40 0 69.5 17.5z" />
    <glyph glyph-name="perthousand.osf" horiz-adv-x="1373" 
d="M254 -43l-38 25l486 671l38 -25zM144 275q-41 23 -64 66t-23 101q0 57 23 99.5t64 65t94 22.5t94 -23t64 -66t23 -100t-23 -99.5t-64 -65.5t-94 -23t-94 23zM307.5 313q29.5 18 45.5 51t16 77t-16 77t-45.5 50.5t-69.5 17.5t-69.5 -17.5t-45.5 -50.5t-16 -77t16 -77
t45.5 -51t69.5 -18t69.5 18zM621.5 12q-41.5 23 -64.5 66t-23 101q0 57 23 100t64.5 65.5t94.5 22.5q52 0 93 -23t64 -66t23 -100t-23 -100t-64 -66t-93 -23q-53 0 -94.5 23zM1041.5 12q-41.5 23 -64.5 66t-23 101q0 57 23 100t64.5 65.5t94.5 22.5q52 0 93 -23t64 -66
t23 -100t-23 -100t-64 -66t-93 -23q-53 0 -94.5 23zM785.5 50.5q29.5 17.5 45 50.5t15.5 77t-15.5 77t-45 50.5t-69.5 17.5q-41 0 -70.5 -17.5t-45.5 -50t-16 -76.5q0 -45 16 -78t45.5 -50.5t70.5 -17.5q40 0 69.5 17.5zM1205.5 50.5q29.5 17.5 45 50.5t15.5 77t-15.5 77
t-45 50.5t-69.5 17.5q-41 0 -70.5 -17.5t-45.5 -50t-16 -76.5q0 -45 16 -78t45.5 -50.5t70.5 -17.5q40 0 69.5 17.5z" />
    <glyph glyph-name="percent" unicode="%" horiz-adv-x="953" 
d="M144 304q-41 23 -64 66t-23 101q0 57 23 100t64 65.5t94 22.5t94 -23t64 -66t23 -100t-23 -100t-64 -66t-94 -23t-94 23zM262 -11l-39 26l472 644l36 -25zM307.5 342.5q29.5 17.5 45.5 50.5t16 77t-16 77t-45.5 50.5t-69.5 17.5t-69.5 -17.5t-45.5 -50t-16 -76.5
q0 -45 16 -78t45.5 -50.5t69.5 -17.5t69.5 17.5zM622 12q-41 23 -64 66t-23 101q0 57 23 100t64 65.5t94 22.5t94 -23t64 -66t23 -100t-23 -100t-64 -66t-94 -23t-94 23zM785.5 50.5q29.5 17.5 45.5 50.5t16 77t-16 77t-45.5 50.5t-69.5 17.5t-69.5 -17.5t-45.5 -50
t-16 -76.5q0 -45 16 -78t45.5 -50.5t69.5 -17.5t69.5 17.5z" />
    <glyph glyph-name="perthousand" unicode="&#x2030;" horiz-adv-x="1373" 
d="M144 304q-41 23 -64 66t-23 101q0 57 23 100t64 65.5t94 22.5t94 -23t64 -66t23 -100t-23 -100t-64 -66t-94 -23t-94 23zM262 -11l-39 26l472 644l36 -25zM307.5 342.5q29.5 17.5 45.5 50.5t16 77t-16 77t-45.5 50.5t-69.5 17.5t-69.5 -17.5t-45.5 -50t-16 -76.5
q0 -45 16 -78t45.5 -50.5t69.5 -17.5t69.5 17.5zM622 12q-41 23 -64 66t-23 101q0 57 23 100t64 65.5t94 22.5t94 -23t64 -66t23 -100t-23 -100t-64 -66t-94 -23t-94 23zM1042 12q-41 23 -64 66t-23 101q0 57 23 100t64 65.5t94 22.5t94 -23t64 -66t23 -100t-23 -100
t-64 -66t-94 -23t-94 23zM785.5 50.5q29.5 17.5 45.5 50.5t16 77t-16 77t-45.5 50.5t-69.5 17.5t-69.5 -17.5t-45.5 -50t-16 -76.5q0 -45 16 -78t45.5 -50.5t69.5 -17.5t69.5 17.5zM1205.5 50.5q29.5 17.5 45.5 50.5t16 77t-16 77t-45.5 50.5t-69.5 17.5t-69.5 -17.5
t-45.5 -50t-16 -76.5q0 -45 16 -78t45.5 -50.5t69.5 -17.5t69.5 17.5z" />
    <glyph glyph-name="lozenge" unicode="&#x25ca;" horiz-adv-x="540" 
d="M246 0l-218 323l219 325h49l216 -324l-217 -324h-49zM270 44l184 280l-184 277l-185 -277z" />
    <glyph glyph-name="at" unicode="@" horiz-adv-x="904" 
d="M676 611.5q86 -47.5 131 -130t45 -185.5q0 -61 -20 -113t-59.5 -83t-93.5 -31q-40 0 -67.5 15t-40.5 42q-36 -31 -73 -44t-76 -13q-56 0 -92.5 26.5t-53.5 71.5t-17 100q0 70 30 118.5t78 72t101 23.5q43 0 75 -8t64 -23v-268q0 -30 18.5 -49.5t56.5 -19.5q36 0 63 24.5
t41 66t14 92.5q0 86 -35.5 158t-111 116t-189.5 44q-102 0 -184 -43t-129 -124t-47 -191q0 -101 42.5 -176t119 -115t177.5 -40q55 0 102 8t95 27l14 -41q-50 -21 -101.5 -30.5t-108.5 -9.5q-116 0 -205 46.5t-138 132t-49 198.5q0 123 54.5 214t149.5 140t215 49
q119 0 205 -47.5zM429 113q66 0 127 50v263q-21 6 -40 9t-43 3q-44 0 -80.5 -19t-58.5 -57t-22 -93q0 -156 117 -156z" />
    </font>
</defs>
</svg>
